<svg xmlns="http://www.w3.org/2000/svg" xmlns:xlink="http://www.w3.org/1999/xlink" viewBox="0 0 226.9 77.39"><defs><style>.cls-1{isolation:isolate;}.cls-2,.cls-5,.cls-8{fill:#fff7cc;}.cls-2{mix-blend-mode:overlay;opacity:0.25;}.cls-3{fill:#3e9434;}.cls-4{fill:#989e2b;opacity:0.6;}.cls-4,.cls-9{mix-blend-mode:multiply;}.cls-6{fill:url(#Безымянный_градиент_23);}.cls-7{fill:#a97996;}.cls-8{mix-blend-mode:screen;opacity:0.15;}.cls-9{fill:#b86053;opacity:0.3;}.cls-10{fill:url(#Безымянный_градиент_23-2);}.cls-11{fill:url(#Безымянный_градиент_23-3);}.cls-12{fill:url(#Безымянный_градиент_23-4);}.cls-13{fill:url(#Безымянный_градиент_23-5);}.cls-14{fill:url(#Безымянный_градиент_23-6);}</style><linearGradient id="Безымянный_градиент_23" x1="798.05" y1="71.08" x2="775.25" y2="50.76" gradientTransform="matrix(-1.01, -0.01, -0.01, 0.99, 1001.36, 5.62)" gradientUnits="userSpaceOnUse"><stop offset="0" stop-color="#131f49"/><stop offset="0.8" stop-color="#14466a"/><stop offset="1" stop-color="#006099"/></linearGradient><linearGradient id="Безымянный_градиент_23-2" x1="823.71" y1="68.96" x2="789.84" y2="38.77" xlink:href="#Безымянный_градиент_23"/><linearGradient id="Безымянный_градиент_23-3" x1="978.67" y1="72.67" x2="944.8" y2="42.49" xlink:href="#Безымянный_градиент_23"/><linearGradient id="Безымянный_градиент_23-4" x1="862.31" y1="66.92" x2="814.37" y2="24.19" xlink:href="#Безымянный_градиент_23"/><linearGradient id="Безымянный_градиент_23-5" x1="954.96" y1="68.27" x2="907.02" y2="25.54" xlink:href="#Безымянный_градиент_23"/><linearGradient id="Безымянный_градиент_23-6" x1="922.08" y1="64.54" x2="857.88" y2="7.32" xlink:href="#Безымянный_градиент_23"/></defs><g class="cls-1"><g id="Слой_2" data-name="Слой 2"><g id="layer_1" data-name="layer 1"><polygon class="cls-2" points="167.54 72.07 145.26 75.58 184.98 77.03 209.25 74.84 213.96 72.1 184.94 71.04 167.54 72.07 167.54 72.07"/><path class="cls-3" d="M95.78,75.05a10,10,0,0,1-3.5-2.26,24.5,24.5,0,0,1,3.31-.28,10.14,10.14,0,0,1-5.18-4.15,11.77,11.77,0,0,1,6.28,3.32A27.11,27.11,0,0,1,93,65.33a19.26,19.26,0,0,1,4.76,5.9A21.32,21.32,0,0,1,97.74,62,30.33,30.33,0,0,1,98.22,71a51.35,51.35,0,0,1,3.41-8.8A31.19,31.19,0,0,1,100,71.05a23.67,23.67,0,0,1,4.39-6.43,38.25,38.25,0,0,1-3.13,7.78,13.56,13.56,0,0,1,5-4.7,17.3,17.3,0,0,1-3.73,5,11.28,11.28,0,0,1,4.21-1.84A8.92,8.92,0,0,1,103.26,74a18.92,18.92,0,0,1,4.12,0A7.36,7.36,0,0,1,102,75.33a.92.92,0,0,0,.11-.4l-1.35.5c-.08-.25-.12-.48-.19-.74,0-.08-.07-.18-.16-.19a.21.21,0,0,0-.18.1l-.71.76c-.47-.5-.9-1-1.37-1.49a4.69,4.69,0,0,1-.23,1.22c-.53-.32-1.1-.57-1.63-.88a1.79,1.79,0,0,1,.18.79C96.31,75,96,75,95.78,75.05Z"/><path class="cls-4" d="M60,75.91c0,.82,22.11,1.48,49.38,1.48s49.38-.66,49.38-1.48-22.11-1.49-49.38-1.49S60,75.09,60,75.91Z"/><path class="cls-4" d="M125.43,73.85c0,.49,15.24.88,34,.88s34-.39,34-.88-15.24-.87-34-.87S125.43,73.37,125.43,73.85Z"/><path class="cls-4" d="M165.82,72.29c0,.32,10.08.58,22.5.58s22.51-.26,22.51-.58-10.08-.58-22.51-.58S165.82,72,165.82,72.29Z"/><path class="cls-4" d="M31.42,73.85c0,.49,15.24.88,34,.88s34-.39,34-.88S84.24,73,65.45,73,31.42,73.37,31.42,73.85Z"/><path class="cls-4" d="M9.81,72.29c0,.32,10.08.58,22.51.58s22.5-.26,22.5-.58-10.08-.58-22.5-.58S9.81,72,9.81,72.29Z"/><path class="cls-4" d="M193.53,71.37c0,.23,7.23.41,16.14.41s16.14-.18,16.14-.41S218.58,71,209.67,71,193.53,71.14,193.53,71.37Z"/><polygon class="cls-5" points="218.54 47.73 188.27 44.59 193.92 63.48 226.9 63.95 218.54 47.73"/><path class="cls-6" d="M215.25,48.18l2.64.28.62.45,1.4,2.73c-.07.15-.12.23-.19.38L217,51.8l-.61-.46-1.35-2.78C215.13,48.41,215.18,48.33,215.25,48.18Zm1.63,4.15,1.35,2.78.63.45,2.75.16.2-.4-1.4-2.72-.63-.45-2.69-.21Zm1.83,3.76,1.35,2.78.63.44,2.81.1.21-.4-1.4-2.72-.63-.44-2.76-.16Zm1.83,3.77c.53,1.11.8,1.67,1.34,2.78l.65.43,2.86,0c.09-.16.14-.25.22-.41L224.21,60l-.64-.43-2.81-.1C220.67,59.61,220.62,59.7,220.54,59.86Zm-8.88-12,2.64.27.61.47,1.35,2.78c-.08.16-.13.24-.21.39l-2.69-.21-.61-.47c-.52-1.14-.78-1.7-1.29-2.84Zm1.55,4.24c.51,1.13.77,1.7,1.29,2.83l.62.46,2.75.16.21-.4c-.54-1.11-.81-1.67-1.34-2.78l-.62-.46-2.7-.22ZM215,55.89c.51,1.14.77,1.7,1.29,2.84l.63.45,2.8.1c.09-.16.14-.25.22-.41-.53-1.11-.8-1.67-1.34-2.78l-.63-.45-2.75-.16C215.09,55.64,215,55.73,215,55.89Zm1.75,3.84c.51,1.14.77,1.71,1.29,2.84l.63.44,2.87,0,.23-.41-1.35-2.79c-.25-.17-.39-.26-.63-.44l-2.81-.09Zm-8.64-12.29,2.64.27.6.48c.52,1.13.78,1.7,1.29,2.84l-.21.4-2.7-.22-.6-.47-1.23-2.9Zm1.46,4.32,1.24,2.9.61.47,2.75.16c.08-.16.13-.25.22-.41L213.06,52l-.61-.46-2.7-.22C209.67,51.51,209.62,51.6,209.53,51.76Zm1.68,3.93,1.23,2.89.62.46,2.8.1c.1-.16.15-.25.24-.42-.52-1.13-.78-1.7-1.29-2.84l-.62-.46-2.75-.15Zm1.67,3.92,1.23,2.9.63.45,2.86,0,.24-.43c-.51-1.14-.77-1.7-1.29-2.84l-.62-.45-2.81-.1Zm-8.4-12.55,2.64.28.59.48,1.24,2.9-.23.41L206,50.92l-.59-.49c-.47-1.18-.71-1.77-1.18-3Zm1.38,4.42c.47,1.18.7,1.77,1.18,3l.6.47,2.75.16.23-.42-1.24-2.9-.6-.48-2.69-.21Zm1.59,4c.47,1.19.71,1.78,1.18,3l.61.47,2.81.1.24-.43-1.24-2.9-.61-.47-2.75-.16C207.6,55.22,207.55,55.32,207.45,55.48Zm1.6,4,1.18,2.95.62.46,2.86,0,.25-.43-1.23-2.9-.62-.46-2.81-.1Zm-8.16-12.8,2.64.28.58.49,1.18,3-.23.42-2.69-.22-.59-.49-1.12-3Zm1.29,4.51,1.12,3,.6.49,2.74.16c.1-.17.15-.27.25-.43l-1.18-3-.59-.49-2.7-.21Zm1.52,4.08c.45,1.21.68,1.81,1.12,3l.61.47,2.8.1.25-.44-1.18-3-.6-.47L204,54.84Zm1.52,4.08,1.13,3,.61.47,2.86,0,.25-.45-1.17-3-.61-.46-2.81-.1Zm-7.92-13,2.64.27.57.51c.45,1.2.68,1.81,1.12,3-.09.17-.14.27-.24.43l-2.69-.21-.57-.51c-.43-1.23-.65-1.84-1.07-3.07Zm1.2,4.59L199.57,54l.58.49,2.75.16c.1-.17.16-.27.25-.44l-1.12-3-.58-.49-2.7-.22C198.66,50.64,198.6,50.74,198.5,50.91ZM200,55.08,201,58.15l.59.49,2.8.1.26-.45-1.12-3-.59-.48-2.75-.16Zm1.44,4.16,1.07,3.08.6.47,2.86,0,.27-.45-1.12-3-.6-.48-2.81-.09ZM193.71,46l2.64.27.56.51L198,49.81l-.25.44L195,50l-.57-.51c-.41-1.26-.61-1.88-1-3.14Zm1.12,4.68c.4,1.25.6,1.88,1,3.13l.57.51,2.75.15.26-.44c-.43-1.23-.64-1.85-1.06-3.08l-.58-.5-2.69-.22C195,50.36,194.93,50.45,194.83,50.63Zm1.37,4.24c.4,1.26.6,1.88,1,3.14l.58.49,2.81.1.26-.45c-.42-1.24-.64-1.85-1.06-3.08l-.59-.5-2.75-.15Zm1.37,4.25c.4,1.25.6,1.88,1,3.13l.59.49,2.86,0,.28-.47-1.07-3.07-.59-.49-2.81-.1C197.73,58.83,197.67,58.94,197.57,59.12Zm-7.45-13.55,2.64.28.55.52c.41,1.25.61,1.88,1,3.14-.1.17-.15.27-.26.44l-2.69-.22-.56-.52L189.86,46Zm1,4.77c.38,1.28.57,1.92,1,3.2l.56.51,2.75.16.27-.46c-.4-1.25-.61-1.88-1-3.13l-.57-.52-2.69-.21C191.31,50.07,191.26,50.17,191.15,50.34Zm1.29,4.33c.39,1.28.58,1.92,1,3.19l.57.51,2.81.1.27-.47-1-3.14-.58-.5-2.75-.16Zm1.3,4.32.95,3.2.59.49,2.86,0,.28-.47c-.4-1.26-.6-1.88-1-3.14l-.58-.49-2.81-.1Z"/><polygon class="cls-7" points="188.27 44.59 187.55 44.9 192.96 63.95 226.11 64.42 226.9 63.95 193.92 63.48 188.27 44.59"/><path class="cls-8" d="M212.45,51.57l.61.46,1.29,2.85c-.09.16-.14.25-.22.41l-2.75-.16-.61-.47-1.24-2.9c.09-.16.14-.25.22-.41Zm9.86,4.72-.63-.44-2.76-.16-.21.4,1.35,2.78.63.44,2.81.1.21-.4Zm-8.89-4.65-.21.41c.51,1.13.77,1.7,1.29,2.83l.62.46,2.75.16.21-.4c-.54-1.11-.81-1.67-1.34-2.78l-.62-.46ZM206.7,55l-1.12-.07L207.51,56l-.21-.53Zm10.39-3.06-.21.39,1.35,2.78.63.45,2.75.16.2-.4-1.4-2.72-.63-.45Zm-11-.88-.23.42c.47,1.18.7,1.77,1.18,3l.6.47,2.75.16.23-.42-1.24-2.9-.6-.48Zm14.45,8.8c.53,1.11.8,1.67,1.34,2.78l.65.43,2.86,0c.09-.16.14-.25.22-.41L224.21,60l-.64-.43-2.81-.1C220.67,59.61,220.62,59.7,220.54,59.86Zm-18.12-9.09-.24.43c.36.95.57,1.54.87,2.34l2.24,1.24,1.35.08c.1-.17.15-.27.25-.43l-1.18-3-.59-.49Zm-12.3-5.2-.26.45.08.28L194,48.55c-.22-.71-.41-1.29-.7-2.18l-.55-.52Zm7.66,4.83-.49,0,1.09.6,0-.06Zm1,.07c-.09.17-.15.27-.25.44l.05.14,4.32,2.39c-.28-.76-.49-1.33-.84-2.26l-.58-.49Zm18.78,11.07,2.71,1.5h1.26l.23-.41-1.35-2.79c-.25-.17-.39-.26-.63-.44l-2.81-.09-.23.41C217,60.47,217.27,61,217.53,61.54Zm-9.46-14.1-.21.4,1.23,2.9.6.47,2.7.22.21-.4c-.51-1.14-.77-1.71-1.29-2.84l-.6-.48Zm3.59.37-.2.39c.51,1.14.77,1.7,1.29,2.84l.61.47,2.69.21c.08-.15.13-.23.21-.39l-1.35-2.78-.61-.47Zm1.62,11.38,4,2.23c-.24-.52-.45-1-.77-1.69l-.62-.45Zm2-11c-.07.15-.12.23-.19.38l1.35,2.78.61.46,2.7.22c.07-.15.12-.23.19-.38l-1.4-2.73-.62-.45Zm-10.77-1.12-.22.41c.47,1.19.71,1.78,1.18,3l.59.49,2.69.21.23-.41-1.24-2.9-.59-.48Zm11.38,12.08c.1-.16.15-.25.24-.42-.52-1.13-.78-1.7-1.29-2.84l-.62-.46-2.75-.15-.23.42,1.23,2.89.62.46Zm-8.16-3,4.56,2.52,0-.05-1.24-2.9-.61-.47-2.75-.16c-.09.17-.14.27-.24.43C207.54,55.71,207.63,55.92,207.7,56.11Zm12,3.17c.09-.16.14-.25.22-.41-.53-1.11-.8-1.67-1.34-2.78l-.63-.45-2.75-.16c-.09.16-.14.25-.22.41.51,1.14.77,1.7,1.29,2.84l.63.45ZM200.89,46.69l-.23.42,1.12,3,.59.49,2.69.22.23-.42-1.18-3-.58-.49Zm-7.43-.31.73,2.26L197,50.19l.75.06.25-.44-1.07-3.08-.56-.51L193.71,46Zm3.84-.06-.24.43c.42,1.23.64,1.84,1.07,3.07l.57.51,2.69.21c.1-.16.15-.26.24-.43-.44-1.2-.67-1.81-1.12-3l-.57-.51Z"/><rect class="cls-5" x="208.56" y="64.24" width="2.22" height="6.09"/><rect class="cls-7" x="207.81" y="64.24" width="0.75" height="6.09"/><polygon class="cls-5" points="213.33 70.33 214.44 71.3 206.74 71.3 207.29 70.33 213.33 70.33"/><polygon class="cls-7" points="207.29 70.33 206.74 71.3 204.16 71.3 205.27 70.33 207.29 70.33"/><polygon class="cls-9" points="210.78 64.24 208.56 68.44 207.81 68.68 207.81 64.24 210.78 64.24"/><polygon class="cls-5" points="203.71 37.06 158.74 32.4 167.13 60.47 216.12 61.17 203.71 37.06"/><path class="cls-10" d="M198.82,37.74l3.93.41.91.68c.84,1.61,1.25,2.42,2.09,4l-.3.57-4-.32-.92-.68-2-4.13C198.65,38.09,198.71,38,198.82,37.74Zm2.42,6.16c.81,1.65,1.21,2.48,2,4.13l.93.67,4.08.23.31-.58-2.08-4-.94-.67-4-.32ZM204,49.49l2,4.14c.37.25.58.39.94.65l4.17.15.32-.6-2.08-4-.95-.66-4.08-.23Zm2.71,5.6,2,4.13,1,.64,4.25.06.33-.61-2.08-4.05-1-.64L207,54.48Zm-13.18-17.9,3.92.4.91.7,2,4.13L200,43l-4-.32L195.1,42l-1.92-4.22Zm2.29,6.29,1.92,4.22.92.68,4.09.23L203,48l-2-4.14-.91-.68-4-.32C196,43.12,195.91,43.25,195.78,43.48Zm2.6,5.71,1.92,4.22.93.67,4.17.15c.13-.24.2-.38.33-.61l-2-4.14-.93-.67-4.09-.23C198.59,48.82,198.51,49,198.38,49.19ZM201,54.9c.77,1.69,1.15,2.54,1.92,4.22l.95.66,4.25.06.34-.63-2-4.13-.94-.65-4.17-.15ZM188.15,36.63l3.92.41.9.71c.76,1.69,1.15,2.53,1.91,4.22l-.31.59-4-.32-.89-.71c-.73-1.72-1.1-2.58-1.84-4.3Zm2.17,6.43,1.84,4.3.9.7,4.09.23c.13-.23.2-.37.33-.61-.77-1.68-1.15-2.53-1.92-4.22l-.9-.69-4-.32Zm2.49,5.83c.73,1.72,1.1,2.58,1.83,4.31l.92.68,4.17.14.35-.62-1.92-4.22-.92-.68-4.09-.23Zm2.48,5.83c.74,1.72,1.11,2.58,1.84,4.31l.93.66,4.25.06.36-.63-1.92-4.22-.93-.67-4.17-.15ZM182.82,36.08l3.92.41.88.72c.73,1.72,1.1,2.58,1.83,4.31-.13.23-.2.37-.33.61l-4-.33-.88-.72-1.75-4.39Zm2,6.56L186.61,47l.89.71,4.09.23c.14-.24.21-.38.34-.62-.73-1.72-1.1-2.58-1.83-4.31l-.89-.71-4-.32Zm2.37,6c.7,1.76,1.05,2.63,1.76,4.39l.9.7,4.17.14.36-.63c-.74-1.73-1.1-2.59-1.84-4.31l-.9-.7L187.59,48Zm2.38,5.95,1.75,4.39.92.68,4.25.06c.14-.25.23-.39.37-.65-.73-1.72-1.1-2.58-1.83-4.31l-.92-.68L190,53.89C189.83,54.14,189.75,54.28,189.61,54.54Zm-12.13-19,3.92.41.87.74L184,41.06l-.34.63-4-.33-.86-.73c-.67-1.79-1-2.69-1.67-4.48Zm1.92,6.7,1.67,4.48.88.72,4.08.23.36-.63-1.75-4.4-.88-.72-4-.32C179.62,41.83,179.54,42,179.4,42.22Zm2.26,6.07,1.67,4.48.89.7,4.17.15.37-.65L187,48.58l-.89-.71L182,47.64C181.88,47.89,181.8,48,181.66,48.29Zm2.26,6.06,1.67,4.49.9.69,4.25.06.39-.66-1.75-4.4-.91-.69-4.17-.15ZM172.15,35l3.92.41.85.75,1.67,4.48-.36.64-4-.33-.86-.74-1.58-4.57Zm1.79,6.82,1.58,4.57.87.74,4.08.23c.15-.25.23-.39.37-.65l-1.66-4.48-.87-.74-4-.31ZM176.08,48l1.59,4.57.88.72,4.17.15.38-.66-1.67-4.49-.88-.72-4.08-.23Zm2.15,6.19c.63,1.83,1,2.74,1.59,4.57l.89.71,4.25.06c.16-.27.24-.42.4-.68l-1.67-4.48-.89-.71-4.17-.15C178.47,53.76,178.39,53.91,178.23,54.17ZM166.81,34.42l3.92.4.84.77c.64,1.82,1,2.74,1.59,4.57-.15.25-.23.39-.37.65l-4-.32-.84-.77-1.5-4.65C166.58,34.81,166.67,34.67,166.81,34.42Zm1.66,6.95c.61,1.87.91,2.8,1.51,4.66l.85.75,4.09.23.38-.66-1.58-4.57-.86-.75-4-.32Zm2,6.31,1.5,4.66.87.73,4.17.15.39-.68L175.86,48l-.87-.73L170.9,47Zm2,6.31,1.5,4.65.88.72,4.26.07.4-.69L178,54.16l-.88-.72L173,53.3ZM161.47,33.86l3.93.41.82.78,1.5,4.66c-.15.25-.23.4-.38.66l-4-.32-.83-.78-1.42-4.74C161.24,34.27,161.33,34.12,161.47,33.86ZM163,41l1.42,4.75.84.76,4.09.23.39-.67-1.5-4.66c-.32-.3-.51-.47-.84-.76l-4-.32Zm1.92,6.43c.57,1.9.86,2.84,1.42,4.74l.86.75,4.17.15.4-.69-1.5-4.66-.85-.75-4.09-.23Zm1.93,6.42c.56,1.9.85,2.85,1.41,4.75l.87.73,4.25.06c.17-.27.26-.43.42-.7L172.31,54l-.86-.74-4.17-.14C167.11,53.37,167,53.53,166.86,53.8Z"/><polygon class="cls-7" points="158.74 32.4 157.66 32.86 165.7 61.17 214.95 61.87 216.12 61.17 167.13 60.47 158.74 32.4"/><path class="cls-8" d="M194.66,42.77l.9.69c.77,1.69,1.15,2.54,1.92,4.22-.13.24-.2.38-.33.61l-4.09-.23-.9-.7-1.84-4.3.33-.61Zm14.65,7-.95-.66-4.08-.23-.32.59,2,4.14c.37.25.58.39.94.65l4.17.15.32-.6ZM196.1,42.88c-.12.24-.19.37-.32.6l1.92,4.22.92.68,4.09.23L203,48l-2-4.14-.91-.68Zm-10,5-1.68-.1,2.88,1.59c-.1-.24-.2-.5-.31-.78Zm15.43-4.55-.31.58c.81,1.65,1.21,2.48,2,4.13l.93.67,4.08.23.31-.58-2.08-4-.94-.67ZM185.2,42l-.34.63L186.61,47l.89.71,4.09.23c.14-.24.21-.38.34-.62-.73-1.72-1.1-2.58-1.83-4.31l-.89-.71Zm21.47,13.08,2,4.13,1,.64,4.25.06.33-.61-2.08-4.05-1-.64L207,54.48ZM179.75,41.58c-.13.25-.21.39-.35.64.53,1.42.85,2.29,1.3,3.48L184,47.54l2,.11.36-.63-1.75-4.4-.88-.72Zm-18.28-7.72c-.14.26-.23.41-.38.67l.13.41,6.05,3.34-1.05-3.23-.82-.78ZM172.86,41l-.73-.06,1.62.89,0-.08Zm1.45.12-.37.64L174,42l6.41,3.54-1.24-3.35-.87-.74ZM202.2,57.58l4,2.23,1.86,0,.34-.63-2-4.13-.94-.65-4.17-.15-.35.62Zm-14-20.95-.32.6c.74,1.72,1.11,2.58,1.84,4.3l.89.71,4,.32.31-.59c-.76-1.69-1.15-2.54-1.91-4.22l-.9-.71Zm5.34.56-.31.58L195.1,42l.91.69,4,.32.31-.58-2-4.13-.91-.7Zm2.4,16.9,6,3.32-1.15-2.51-.93-.67Zm2.93-16.35c-.11.22-.17.35-.29.57l2,4.13.92.68,4,.32.3-.57c-.84-1.62-1.25-2.43-2.09-4l-.91-.68Zm-16-1.66-.33.61,1.75,4.39.88.72,4,.33c.13-.24.2-.38.33-.61-.73-1.73-1.1-2.59-1.83-4.31l-.88-.72ZM199.73,54l.35-.62-1.92-4.22-.92-.68-4.09-.23-.34.62c.73,1.72,1.1,2.58,1.83,4.31l.92.68Zm-12.13-4.5,6.78,3.74,0-.07c-.74-1.73-1.1-2.59-1.84-4.31l-.9-.7L187.59,48l-.36.64C187.37,48.93,187.49,49.23,187.6,49.52Zm17.8,4.71c.13-.24.2-.38.33-.61l-2-4.14-.93-.67-4.09-.23c-.12.24-.2.37-.33.61l1.92,4.22.93.67ZM177.48,35.52l-.34.63c.66,1.79,1,2.69,1.67,4.48l.86.73,4,.33.34-.63-1.75-4.39-.87-.74Zm-11-.45,1.08,3.35,4.16,2.3,1.11.09c.14-.26.22-.4.37-.65-.64-1.83-.95-2.75-1.59-4.57l-.84-.77-3.92-.4C166.67,34.67,166.58,34.81,166.44,35.07Zm5.71-.1-.36.64,1.58,4.57.86.74,4,.33.36-.64-1.67-4.48-.85-.75Z"/><rect class="cls-5" x="188.88" y="61.6" width="3.3" height="9.05"/><rect class="cls-7" x="187.77" y="61.6" width="1.11" height="9.05"/><polygon class="cls-5" points="195.96 70.65 197.61 72.08 186.17 72.08 186.99 70.65 195.96 70.65"/><polygon class="cls-7" points="186.99 70.65 186.17 72.08 182.34 72.08 183.99 70.65 186.99 70.65"/><polygon class="cls-9" points="192.18 61.6 188.88 67.84 187.77 68.19 187.77 61.6 192.18 61.6"/><polygon class="cls-5" points="46.05 37.06 1.08 32.4 9.47 60.47 58.47 61.17 46.05 37.06"/><path class="cls-11" d="M41.17,37.74l3.92.41.92.68,2.08,4-.29.57-4-.32-.92-.68c-.8-1.65-1.2-2.48-2-4.13Zm2.42,6.16,2,4.13.93.67,4.09.23c.12-.22.18-.35.3-.58l-2.08-4-.93-.67-4-.32Zm2.71,5.59,2,4.14,1,.65,4.17.15.31-.6-2.08-4-.94-.66-4.09-.23ZM49,55.09l2,4.13.95.64,4.25.06.34-.61-2.09-4.05-.95-.64-4.18-.14C49.22,54.72,49.14,54.85,49,55.09ZM35.83,37.19l3.92.4.91.7,2,4.13-.31.58-4-.32-.9-.69c-.77-1.69-1.16-2.53-1.92-4.22C35.65,37.54,35.71,37.41,35.83,37.19Zm2.3,6.29c.76,1.69,1.15,2.53,1.92,4.22l.91.68,4.09.23.32-.59-2-4.14-.92-.68-4-.32Zm2.6,5.71c.76,1.69,1.15,2.53,1.92,4.22l.93.67,4.16.15.34-.61-2-4.14c-.37-.26-.57-.4-.93-.67l-4.09-.23Zm2.6,5.71c.76,1.69,1.15,2.54,1.92,4.22l.94.66,4.25.06.34-.63-2-4.13-.94-.65-4.17-.15ZM30.5,36.63l3.92.41.89.71L37.23,42l-.32.59-4-.32-.9-.71-1.83-4.3C30.3,37,30.37,36.86,30.5,36.63Zm2.16,6.43,1.84,4.3c.35.28.55.43.91.7l4.08.23c.13-.23.2-.37.33-.61-.76-1.68-1.15-2.53-1.91-4.22L37,42.77l-4-.32Zm2.49,5.83c.74,1.72,1.1,2.58,1.84,4.31l.92.68,4.16.14.35-.62L40.5,49.18l-.92-.68-4.08-.23Zm2.49,5.83c.73,1.72,1.1,2.58,1.83,4.31l.93.66,4.26.06c.14-.24.21-.38.35-.63-.76-1.69-1.15-2.53-1.91-4.22l-.93-.67L38,54.08C37.86,54.33,37.78,54.47,37.64,54.72ZM25.16,36.08l3.92.41.88.72c.74,1.72,1.1,2.58,1.83,4.31l-.33.61-4-.33-.88-.72-1.75-4.39Zm2,6.56L29,47l.9.71,4.08.23.35-.62c-.74-1.72-1.1-2.58-1.84-4.31l-.89-.71-4-.32Zm2.38,6L31.33,53l.9.7,4.17.14.36-.63c-.73-1.73-1.1-2.59-1.83-4.31-.36-.27-.56-.42-.91-.7L29.93,48ZM32,54.54l1.75,4.39.92.68,4.25.06c.15-.25.23-.39.37-.65-.73-1.72-1.1-2.58-1.83-4.31L36.49,54l-4.17-.14C32.18,54.14,32.09,54.28,32,54.54Zm-12.13-19,3.93.41.86.74,1.75,4.39-.34.63-4-.33-.87-.73-1.67-4.48Zm1.92,6.7,1.67,4.48.88.72,4.08.23.36-.63L27,42.62l-.88-.72-4-.32ZM24,48.29l1.67,4.48.89.7,4.17.15c.15-.25.23-.39.37-.65l-1.75-4.39-.89-.71-4.09-.23Zm2.26,6.06,1.67,4.49.91.69,4.25.06.38-.66-1.75-4.4-.9-.69-4.18-.15C26.5,54,26.41,54.09,26.26,54.35ZM14.49,35l3.92.41.85.75,1.67,4.48-.36.64-4-.33-.85-.74-1.59-4.57Zm1.79,6.82,1.58,4.57.87.74,4.09.23.37-.65L21.52,42.2l-.87-.74-4-.31ZM18.43,48,20,52.55l.88.72,4.17.15.38-.66-1.66-4.49-.88-.72-4.09-.23Zm2.14,6.19,1.59,4.57.89.71,4.25.06c.16-.27.24-.42.4-.68L26,54.35l-.89-.71L21,53.49C20.82,53.76,20.73,53.91,20.57,54.17ZM9.15,34.42l3.92.4.85.77,1.58,4.57c-.15.25-.23.39-.37.65l-4-.32-.85-.77-1.5-4.65Zm1.67,6.95L12.32,46l.85.75,4.09.23.38-.66-1.58-4.57L15.2,41l-4-.32Zm2,6.31,1.5,4.66.87.73,4.17.15.39-.68L18.2,48l-.87-.73L13.25,47C13.09,47.27,13,47.42,12.85,47.68Zm2,6.31,1.5,4.65c.34.29.53.44.88.72l4.25.07.41-.69c-.64-1.83-.95-2.75-1.59-4.58l-.87-.72-4.18-.14C15.14,53.57,15.05,53.72,14.89,54ZM9.2,53.8l1.42,4.75.86.73,4.25.06.43-.7L14.66,54l-.87-.74L9.62,53.1Z"/><polygon class="cls-7" points="1.08 32.4 0 32.86 8.04 61.17 57.29 61.87 58.47 61.17 9.47 60.47 1.08 32.4"/><path class="cls-8" d="M37,42.77l.91.69c.76,1.69,1.15,2.54,1.91,4.22-.13.24-.2.38-.33.61l-4.08-.23c-.36-.27-.56-.42-.91-.7l-1.84-4.3.34-.61Zm14.65,7-.94-.66-4.09-.23-.32.59,2,4.14,1,.65,4.17.15.31-.6ZM38.44,42.88l-.31.6c.76,1.69,1.15,2.53,1.92,4.22l.91.68,4.09.23.32-.59-2-4.14-.92-.68Zm-10,5-1.67-.1,2.87,1.59c-.09-.24-.2-.5-.31-.78Zm15.43-4.55-.3.58,2,4.13.93.67,4.09.23c.12-.22.18-.35.3-.58l-2.08-4-.93-.67ZM27.55,42l-.35.63L29,47l.9.71,4.08.23.35-.62c-.74-1.72-1.1-2.58-1.84-4.31l-.89-.71ZM49,55.09l2,4.13.95.64,4.25.06.34-.61-2.09-4.05-.95-.64-4.18-.14C49.22,54.72,49.14,54.85,49,55.09ZM22.1,41.58l-.36.64c.53,1.42.85,2.29,1.3,3.48l3.32,1.84,2,.11.36-.63L27,42.62l-.88-.72ZM15.2,41,14.48,41l1.61.89,0-.08Zm1.45.12-.37.64.07.22,6.42,3.54L21.52,42.2l-.87-.74ZM44.54,57.58l4,2.23,1.86,0,.34-.63-2-4.13-.94-.65-4.17-.15-.34.62C43.82,56,44.16,56.74,44.54,57.58Zm-14-20.95c-.13.23-.2.36-.32.6L32,41.53l.9.71,4,.32.32-.59c-.77-1.69-1.15-2.54-1.92-4.22L34.42,37Zm5.33.56c-.12.22-.18.35-.3.58.76,1.69,1.15,2.53,1.92,4.22l.9.69,4,.32.31-.58-2-4.13-.91-.7Zm2.4,16.9,6,3.32L43.1,54.9l-.93-.67Zm2.94-16.35-.3.57c.81,1.65,1.21,2.48,2,4.13l.92.68,4,.32.29-.57-2.08-4-.92-.68Zm-16-1.66-.33.61,1.75,4.39.88.72,4,.33.33-.61c-.73-1.73-1.09-2.59-1.83-4.31l-.88-.72ZM42.07,54l.35-.62L40.5,49.18l-.92-.68-4.08-.23-.35.62c.74,1.72,1.1,2.58,1.84,4.31l.92.68ZM30,49.52l6.77,3.74,0-.07c-.73-1.73-1.1-2.59-1.83-4.31-.36-.27-.56-.42-.91-.7L29.93,48l-.35.64C29.71,48.93,29.83,49.23,30,49.52Zm17.79,4.71.34-.61-2-4.14c-.37-.26-.57-.4-.93-.67l-4.09-.23-.33.61c.76,1.69,1.15,2.53,1.92,4.22l.93.67ZM19.82,35.52l-.34.63,1.67,4.48.87.73,4,.33.34-.63-1.75-4.39-.86-.74Zm-11-.45c.45,1.37.73,2.24,1.09,3.35L14,40.72l1.11.09c.14-.26.22-.4.37-.65l-1.58-4.57-.85-.77-3.92-.4Zm5.71-.1-.36.64,1.59,4.57.85.74,4,.33.36-.64-1.67-4.48-.85-.75Z"/><rect class="cls-5" x="31.22" y="61.6" width="3.3" height="9.05"/><rect class="cls-7" x="30.11" y="61.6" width="1.11" height="9.05"/><polygon class="cls-5" points="38.31 70.65 39.96 72.08 28.52 72.08 29.34 70.65 38.31 70.65"/><polygon class="cls-7" points="29.34 70.65 28.52 72.08 24.68 72.08 26.33 70.65 29.34 70.65"/><polygon class="cls-9" points="34.52 61.6 31.22 67.84 30.11 68.19 30.11 61.6 34.52 61.6"/><polygon class="cls-5" points="178.81 24.09 115.15 17.48 127.03 57.22 196.38 58.21 178.81 24.09"/><path class="cls-12" d="M171.89,25.05l5.55.57,1.3,1,2.95,5.72-.41.81-5.67-.46-1.3-1-2.83-5.85Zm3.43,8.72,2.83,5.84,1.32,1,5.78.33.44-.82-2.95-5.73-1.32-.94-5.67-.46Zm3.84,7.91L182,47.53l1.34.93,5.9.21c.18-.33.27-.52.45-.85l-3-5.72-1.34-.93-5.78-.33C179.43,41.17,179.33,41.35,179.16,41.68ZM183,49.6l2.83,5.85,1.36.9,6,.09.47-.86-2.95-5.73-1.35-.91-5.9-.2C183.28,49.07,183.18,49.26,183,49.6ZM164.34,24.26l5.55.58,1.28,1L174,31.67c-.16.32-.26.5-.43.83L167.91,32l-1.29-1c-1.08-2.39-1.63-3.59-2.71-6Zm3.25,8.91c1.08,2.39,1.63,3.58,2.71,6l1.3,1,5.79.33.45-.85c-1.14-2.34-1.7-3.51-2.83-5.85-.51-.37-.8-.58-1.3-1L168,32.33C167.86,32.66,167.76,32.84,167.59,33.17Zm3.68,8.09c1.08,2.38,1.63,3.58,2.71,6l1.32.94,5.9.21.47-.86-2.83-5.85-1.32-1-5.78-.33C171.55,40.73,171.45,40.92,171.27,41.26ZM175,49.34c1.08,2.39,1.63,3.58,2.71,6l1.34.93,6,.08c.19-.34.3-.53.48-.88-1.13-2.34-1.69-3.51-2.83-5.85l-1.33-.93-5.91-.2ZM156.79,23.48l5.55.57,1.26,1,2.72,6-.46.85-5.66-.46-1.26-1-2.6-6.1C156.51,24,156.61,23.81,156.79,23.48Zm3.07,9.1,2.6,6.09,1.28,1,5.78.34.47-.87c-1.09-2.39-1.63-3.58-2.71-6l-1.29-1-5.66-.45C160.14,32.05,160,32.24,159.86,32.58Zm3.52,8.25,2.6,6.09,1.3,1,5.9.21.48-.89c-1.08-2.39-1.62-3.58-2.71-6l-1.3-1L163.86,40Zm3.52,8.25,2.6,6.1,1.31.94,6,.09.51-.9-2.72-6-1.31-.94-5.91-.21ZM149.24,22.7l5.55.57,1.24,1,2.6,6.1-.47.86-5.67-.45-1.24-1-2.48-6.22C149,23.22,149.05,23,149.24,22.7ZM152.13,32c1,2.49,1.48,3.73,2.48,6.22l1.26,1,5.78.33.49-.88c-1-2.44-1.56-3.66-2.59-6.1l-1.27-1-5.67-.45Zm3.36,8.42c1,2.49,1.48,3.73,2.48,6.22l1.28,1,5.9.21.5-.9-2.59-6.1-1.28-1L156,39.5C155.79,39.85,155.68,40.05,155.49,40.4Zm3.36,8.42c1,2.49,1.48,3.73,2.48,6.22.5.38.79.59,1.3,1l6,.09.53-.92-2.6-6.1-1.3-1-5.9-.21ZM141.68,21.91l5.55.58,1.23,1,2.48,6.22-.49.88-5.66-.45-1.23-1c-.95-2.54-1.42-3.81-2.36-6.35Zm2.72,9.47c.94,2.54,1.41,3.81,2.36,6.35l1.24,1,5.79.33.5-.9c-1-2.49-1.48-3.74-2.47-6.22l-1.25-1-5.67-.45C144.7,30.83,144.59,31,144.4,31.38ZM147.6,40c.94,2.54,1.41,3.81,2.36,6.35l1.26,1,5.9.21.53-.92c-1-2.49-1.49-3.74-2.48-6.23l-1.26-1-5.79-.33Zm3.2,8.59c.94,2.54,1.41,3.81,2.36,6.34l1.28,1,6,.08L161,55l-2.48-6.22-1.28-1-5.9-.21ZM134.13,21.13l5.55.57,1.21,1.06c.94,2.54,1.42,3.81,2.36,6.35l-.51.9-5.66-.46-1.21-1.05c-.9-2.59-1.35-3.88-2.24-6.47Zm2.54,9.66c.89,2.58,1.34,3.88,2.24,6.46l1.23,1,5.78.34.52-.92c-.94-2.54-1.41-3.81-2.36-6.35l-1.22-1-5.67-.45Zm3,8.75L142,46l1.24,1,5.9.21c.22-.37.34-.57.55-.94-.95-2.54-1.42-3.81-2.36-6.34l-1.25-1-5.78-.32C140,39,139.92,39.18,139.7,39.54Zm3,8.76L145,54.77l1.26,1,6,.09.56-1c-.94-2.54-1.42-3.81-2.36-6.35l-1.26-1-5.91-.21C143.09,47.72,143,47.93,142.74,48.3ZM126.58,20.35l5.55.57L133.32,22c.9,2.59,1.35,3.88,2.24,6.47l-.52.92-5.67-.46-1.19-1.07-2.12-6.6Zm2.36,9.84c.85,2.64,1.27,4,2.12,6.59l1.21,1.06,5.78.33.54-.94-2.24-6.47-1.2-1.06-5.67-.45Zm2.87,8.93c.86,2.63,1.28,4,2.13,6.59l1.23,1,5.9.21.56-1c-.9-2.59-1.35-3.88-2.24-6.47l-1.23-1-5.79-.33ZM134.69,48c.85,2.64,1.28,4,2.13,6.59l1.25,1,6,.09.58-1-2.24-6.47-1.24-1-5.91-.2C135.05,47.45,134.92,47.66,134.69,48ZM119,19.56l5.55.58,1.17,1.09,2.12,6.6-.54.94-5.66-.46-1.18-1.09-2-6.72Zm2.18,10,2,6.72,1.19,1.08,5.79.33.56-1c-.85-2.64-1.28-4-2.13-6.59l-1.19-1.08-5.66-.45Zm2.71,9.1c.81,2.68,1.21,4,2,6.71l1.21,1.06,5.9.21.58-1-2.12-6.6c-.48-.41-.74-.65-1.21-1.06l-5.79-.33Zm2.72,9.09c.81,2.69,1.21,4,2,6.72l1.23,1,6,.08.59-1L134.37,48l-1.23-1-5.9-.2Z"/><polygon class="cls-7" points="115.15 17.48 113.63 18.14 125.01 58.2 194.72 59.19 196.38 58.21 127.03 57.22 115.15 17.48"/><path class="cls-8" d="M166,32.16l1.29,1c1.08,2.39,1.62,3.58,2.71,6l-.47.87-5.78-.34-1.28-1-2.6-6.09c.18-.34.28-.53.47-.87Zm20.74,9.94-1.34-.93-5.78-.33c-.18.33-.28.51-.45.84L182,47.53l1.34.93,5.9.21c.18-.33.27-.52.45-.85ZM168,32.33c-.18.33-.28.51-.45.84,1.08,2.39,1.63,3.58,2.71,6l1.3,1,5.79.33.45-.85c-1.14-2.34-1.7-3.51-2.83-5.85-.51-.37-.8-.58-1.3-1Zm-14.13,7.05-2.37-.13,4.07,2.25-.44-1.12Zm21.84-6.44-.43.83,2.83,5.84,1.32,1,5.78.33.44-.82-2.95-5.73-1.32-.94ZM152.61,31.1l-.48.88c1,2.49,1.48,3.73,2.48,6.22l1.26,1,5.78.33.49-.88c-1-2.44-1.56-3.66-2.59-6.1l-1.27-1ZM183,49.6l2.83,5.85,1.36.9,6,.09.47-.86-2.95-5.73-1.35-.91-5.9-.2C183.28,49.07,183.18,49.26,183,49.6ZM144.9,30.48c-.2.35-.31.55-.5.9.75,2,1.2,3.25,1.83,4.94l4.71,2.6,2.85.16.5-.9L151.82,32l-1.25-1ZM119,19.56l-.54.94.17.58,8.57,4.74c-.48-1.5-.87-2.71-1.48-4.59l-1.17-1.09ZM135.15,29.7l-1-.08,2.29,1.26-.05-.12Zm2,.17-.52.92.1.3,9.08,5c-.6-1.59-1-2.8-1.77-4.74l-1.22-1Zm39.48,23.26,5.71,3.16,2.64,0c.19-.34.3-.53.48-.88-1.13-2.34-1.69-3.51-2.83-5.85l-1.33-.93-5.91-.2-.48.88ZM156.79,23.48c-.18.33-.28.51-.45.84l2.6,6.1,1.26,1,5.66.46.46-.85-2.72-6-1.26-1Zm7.55.78-.43.83c1.08,2.38,1.63,3.58,2.71,6l1.29,1,5.66.46c.17-.33.27-.51.43-.83l-2.83-5.85-1.28-1Zm3.39,23.93,8.51,4.7-1.62-3.56-1.31-.94Zm4.16-23.14-.41.8,2.83,5.85,1.3,1,5.67.46.41-.81-2.95-5.72-1.3-1ZM149.24,22.7c-.19.33-.29.52-.47.86l2.48,6.22,1.24,1,5.67.45.47-.86-2.6-6.1-1.24-1Zm23.94,25.4.48-.89c-1.08-2.39-1.62-3.58-2.71-6l-1.3-1L163.86,40l-.48.88,2.6,6.09,1.3,1ZM156,41.72,165.6,47l.05-.1c-1-2.44-1.55-3.66-2.59-6.1l-1.28-1L156,39.5c-.2.35-.31.55-.5.9Zm25.19,6.66.47-.86-2.83-5.85-1.32-1-5.78-.33c-.19.34-.29.53-.47.87,1.08,2.38,1.63,3.58,2.71,6l1.32.94ZM141.68,21.91l-.48.88c.94,2.54,1.41,3.81,2.36,6.35l1.23,1,5.66.45.49-.88-2.48-6.22-1.23-1Zm-15.62-.65c.62,1.95,1,3.18,1.53,4.76l5.88,3.24,1.57.13.52-.92c-.89-2.59-1.34-3.88-2.24-6.47l-1.19-1.08-5.55-.57Zm8.07-.13-.5.9c.89,2.59,1.34,3.88,2.24,6.47l1.21,1.05,5.66.46.51-.9c-.94-2.54-1.42-3.81-2.36-6.35l-1.21-1.06Z"/><rect class="cls-5" x="157.81" y="58.81" width="4.67" height="12.81"/><rect class="cls-7" x="156.25" y="58.81" width="1.57" height="12.81"/><polygon class="cls-5" points="167.84 71.63 170.18 73.66 153.98 73.66 155.15 71.63 167.84 71.63"/><polygon class="cls-7" points="155.15 71.63 153.98 73.66 148.55 73.66 150.89 71.63 155.15 71.63"/><polygon class="cls-9" points="162.49 58.81 157.81 67.64 156.25 68.15 156.25 58.81 162.49 58.81"/><polygon class="cls-5" points="85.32 24.09 21.67 17.48 33.55 57.22 102.89 58.21 85.32 24.09"/><path class="cls-13" d="M78.41,25.05l5.55.57,1.3,1,2.95,5.72c-.16.32-.25.49-.42.81l-5.66-.46-1.3-1L78,25.85Zm3.43,8.72,2.83,5.84,1.32,1,5.78.33c.17-.32.27-.5.43-.82l-3-5.73-1.31-.94-5.67-.46Zm3.84,7.91,2.83,5.85,1.34.93,5.9.21c.17-.33.27-.52.45-.85l-3-5.72-1.34-.93-5.78-.33C86,41.17,85.85,41.35,85.68,41.68Zm3.84,7.92,2.83,5.85,1.36.9,6,.09.47-.86-3-5.73-1.35-.91-5.9-.2C89.8,49.07,89.7,49.26,89.52,49.6ZM70.86,24.26l5.55.58,1.28,1,2.83,5.85-.43.83L74.42,32l-1.28-1c-1.08-2.39-1.63-3.59-2.71-6Zm3.25,8.91c1.08,2.39,1.63,3.58,2.71,6l1.3,1,5.78.33.46-.85-2.84-5.85-1.29-1-5.67-.45C74.38,32.66,74.28,32.84,74.11,33.17Zm3.68,8.09c1.08,2.38,1.63,3.58,2.71,6l1.32.94,5.9.21c.18-.34.29-.53.47-.86l-2.83-5.85-1.32-1-5.79-.33Zm3.68,8.08c1.08,2.39,1.63,3.58,2.71,6l1.34.93,6,.08.48-.88-2.83-5.85-1.33-.93L82,48.46ZM63.31,23.48l5.55.57,1.26,1c1.09,2.39,1.63,3.58,2.71,6l-.45.85-5.66-.46-1.27-1-2.59-6.1C63,24,63.13,23.81,63.31,23.48Zm3.07,9.1L69,38.67l1.29,1L76,40l.47-.87-2.72-6-1.28-1-5.67-.45Zm3.52,8.25c1,2.44,1.55,3.66,2.59,6.09l1.3,1,5.9.21c.2-.35.3-.54.49-.89-1.08-2.39-1.63-3.58-2.71-6l-1.3-1L70.38,40Zm3.52,8.25c1,2.44,1.55,3.66,2.59,6.1l1.32.94,6,.09.5-.9c-1.08-2.39-1.62-3.59-2.71-6l-1.32-.94-5.9-.21C73.72,48.53,73.61,48.73,73.42,49.08ZM55.75,22.7l5.56.57,1.24,1,2.6,6.1-.47.86L59,30.8l-1.24-1c-1-2.49-1.49-3.73-2.48-6.22ZM58.64,32l2.49,6.22,1.26,1,5.78.33.49-.88-2.6-6.1-1.26-1-5.67-.45ZM62,40.4l2.49,6.22,1.28,1,5.9.21c.2-.35.31-.55.5-.9l-2.59-6.1-1.28-1-5.79-.33Zm3.36,8.42L67.85,55l1.29,1,6,.09.53-.92-2.6-6.1-1.3-1-5.9-.21ZM48.2,21.91l5.55.58,1.23,1,2.48,6.22-.49.88-5.67-.45-1.22-1-2.37-6.35C47.91,22.45,48,22.26,48.2,21.91Zm2.71,9.47,2.37,6.35,1.24,1,5.78.33.51-.9L58.33,32l-1.24-1-5.67-.45ZM54.11,40l2.37,6.35,1.26,1,5.9.21c.21-.36.32-.56.52-.92l-2.47-6.23-1.27-1-5.78-.33Zm3.2,8.59c.95,2.54,1.42,3.81,2.37,6.34l1.28,1L67,56l.54-.94L65,48.81l-1.28-1-5.9-.21ZM40.65,21.13l5.55.57,1.21,1.06c.94,2.54,1.42,3.81,2.36,6.35l-.51.9-5.66-.46L42.39,28.5,40.14,22Zm2.53,9.66,2.25,6.46,1.23,1,5.78.34.52-.92c-.94-2.54-1.41-3.81-2.36-6.35l-1.22-1-5.67-.45Zm3,8.75L48.47,46l1.24,1,5.9.21c.22-.37.33-.57.54-.94L53.8,40l-1.25-1-5.79-.32C46.55,39,46.44,39.18,46.22,39.54Zm3,8.76,2.25,6.47,1.26,1,6,.09.56-1c-1-2.54-1.42-3.81-2.36-6.35l-1.26-1-5.91-.21ZM33.1,20.35l5.55.57L39.84,22l2.24,6.47-.52.92-5.67-.46L34.7,27.86l-2.13-6.6C32.78,20.9,32.89,20.7,33.1,20.35Zm2.35,9.84c.85,2.64,1.28,4,2.13,6.59l1.21,1.06,5.78.33.54-.94-2.24-6.47L41.66,29.7,36,29.25Zm2.88,8.93c.85,2.63,1.28,4,2.13,6.59l1.23,1,5.9.21.56-1c-.9-2.59-1.35-3.88-2.24-6.47l-1.23-1-5.79-.33C38.68,38.53,38.55,38.74,38.33,39.12ZM41.21,48c.85,2.64,1.28,4,2.13,6.59l1.24,1,6,.09.58-1-2.24-6.47-1.25-1-5.9-.2C41.57,47.45,41.44,47.66,41.21,48ZM25.55,19.56l5.55.58c.45.43.71.67,1.17,1.09l2.12,6.6-.54.94-5.66-.46L27,27.22,25,20.5Zm2.17,10c.81,2.69,1.21,4,2,6.72l1.19,1.08,5.78.33c.22-.37.35-.58.56-1-.84-2.64-1.27-4-2.12-6.59L34,29.09l-5.67-.45C28.07,29,27.94,29.22,27.72,29.59Zm2.72,9.1c.81,2.68,1.21,4,2,6.71l1.21,1.06,5.9.21.58-1c-.85-2.64-1.28-4-2.12-6.6-.48-.41-.74-.65-1.21-1.06L31,37.71Zm2.72,9.09c.81,2.69,1.21,4,2,6.72l1.23,1,6,.08c.24-.39.37-.6.6-1L40.89,48l-1.23-1-5.9-.2Z"/><polygon class="cls-7" points="21.67 17.48 20.14 18.14 31.52 58.2 101.23 59.19 102.89 58.21 33.55 57.22 21.67 17.48"/><path class="cls-8" d="M72.51,32.16l1.28,1,2.72,6L76,40l-5.78-.34-1.29-1-2.59-6.09.46-.87ZM93.25,42.1l-1.34-.93-5.78-.33c-.18.33-.28.51-.45.84l2.83,5.85,1.34.93,5.9.21c.17-.33.27-.52.45-.85ZM74.56,32.33c-.18.33-.28.51-.45.84,1.08,2.39,1.63,3.58,2.71,6l1.3,1,5.78.33.46-.85-2.84-5.85-1.29-1ZM60.42,39.38l-2.36-.13,4.07,2.25-.44-1.12Zm21.85-6.44-.43.83,2.83,5.84,1.32,1,5.78.33c.17-.32.27-.5.43-.82l-3-5.73-1.31-.94ZM59.13,31.1l-.49.88,2.49,6.22,1.26,1,5.78.33.49-.88-2.6-6.1-1.26-1ZM89.52,49.6l2.83,5.85,1.36.9,6,.09.47-.86-3-5.73-1.35-.91-5.9-.2C89.8,49.07,89.7,49.26,89.52,49.6ZM51.42,30.48l-.51.9c.76,2,1.21,3.25,1.84,4.94l4.71,2.6,2.84.16.51-.9L58.33,32l-1.24-1ZM25.55,19.56,25,20.5l.17.58,8.56,4.74-1.47-4.59c-.46-.42-.72-.66-1.17-1.09ZM41.66,29.7l-1-.08,2.28,1.26,0-.12Zm2.05.17-.53.92.11.3,9.08,5c-.6-1.59-1-2.8-1.77-4.74l-1.22-1ZM83.19,53.13l5.71,3.16,2.64,0,.48-.88-2.83-5.85-1.33-.93L82,48.46l-.48.88ZM63.31,23.48c-.18.33-.28.51-.45.84l2.59,6.1,1.27,1,5.66.46.45-.85c-1.08-2.39-1.62-3.58-2.71-6l-1.26-1Zm7.55.78-.43.83c1.08,2.38,1.63,3.58,2.71,6l1.28,1,5.67.46.43-.83-2.83-5.85-1.28-1Zm3.39,23.93,8.51,4.7-1.62-3.56-1.32-.94Zm4.16-23.14-.41.8,2.83,5.85,1.3,1,5.66.46c.17-.32.26-.49.42-.81l-2.95-5.72-1.3-1ZM55.75,22.7l-.46.86c1,2.49,1.48,3.73,2.48,6.22l1.24,1,5.67.45.47-.86-2.6-6.1-1.24-1ZM79.69,48.1c.2-.35.3-.54.49-.89-1.08-2.39-1.63-3.58-2.71-6l-1.3-1L70.38,40l-.48.88c1,2.44,1.55,3.66,2.59,6.09l1.3,1ZM62.53,41.72,72.12,47l0-.1-2.59-6.1-1.28-1-5.79-.33-.51.9C62.2,40.88,62.37,41.31,62.53,41.72Zm25.19,6.66c.18-.34.29-.53.47-.86l-2.83-5.85-1.32-1-5.79-.33-.46.87c1.08,2.38,1.63,3.58,2.71,6l1.32.94ZM48.2,21.91c-.19.35-.29.54-.49.88l2.37,6.35,1.22,1,5.67.45.49-.88L55,23.53l-1.23-1Zm-15.63-.65L34.11,26,40,29.26l1.58.13.52-.92L39.84,22l-1.19-1.08-5.55-.57C32.89,20.7,32.78,20.9,32.57,21.26Zm8.08-.13-.51.9,2.25,6.47,1.21,1.05,5.66.46.51-.9c-.94-2.54-1.42-3.81-2.36-6.35L46.2,21.7Z"/><rect class="cls-5" x="64.33" y="58.81" width="4.67" height="12.81"/><rect class="cls-7" x="62.77" y="58.81" width="1.57" height="12.81"/><polygon class="cls-5" points="74.36 71.63 76.7 73.66 60.5 73.66 61.66 71.63 74.36 71.63"/><polygon class="cls-7" points="61.66 71.63 60.5 73.66 55.07 73.66 57.41 71.63 61.66 71.63"/><polygon class="cls-9" points="69 58.81 64.33 67.64 62.77 68.15 62.77 58.81 69 58.81"/><polygon class="cls-5" points="134.74 8.84 49.49 0 65.4 53.22 158.27 54.54 134.74 8.84"/><path class="cls-14" d="M125.48,10.13l7.43.77,1.74,1.29,3.95,7.67-.55,1.08-7.59-.61L128.72,19l-3.8-7.83Zm4.59,11.68c1.51,3.13,2.27,4.7,3.79,7.83l1.77,1.26,7.74.45c.23-.43.36-.67.58-1.11L140,22.57l-1.76-1.26-7.59-.61C130.42,21.13,130.29,21.38,130.07,21.81Zm5.14,10.6,3.8,7.83c.69.49,1.09.76,1.79,1.24l7.9.28c.23-.44.36-.69.6-1.13l-4-7.67-1.79-1.24-7.75-.44C135.58,31.72,135.45,32,135.21,32.41ZM140.35,43l3.8,7.83L146,52.06l8.06.11.63-1.15-4-7.67-1.81-1.22L141,41.86C140.74,42.31,140.6,42.56,140.35,43Zm-25-33.93,7.44.77,1.71,1.32,3.8,7.83c-.23.43-.36.67-.58,1.11l-7.59-.62-1.72-1.31c-1.45-3.2-2.18-4.8-3.64-8C115,9.75,115.14,9.51,115.36,9.08ZM119.71,21c1.46,3.2,2.19,4.8,3.64,8l1.74,1.29,7.75.44.6-1.13c-1.52-3.13-2.27-4.7-3.79-7.83l-1.74-1.29-7.59-.61Zm4.93,10.83,3.64,8,1.77,1.27,7.9.28c.24-.45.38-.71.63-1.16l-3.8-7.83L133,31.12l-7.75-.44C125,31.13,124.89,31.39,124.64,31.84Zm4.93,10.83c1.46,3.19,2.18,4.79,3.64,8L135,51.9l8.06.12c.25-.47.4-.72.65-1.18L139.92,43l-1.79-1.24-7.91-.27ZM105.25,8l7.43.77,1.7,1.34,3.63,8c-.24.44-.37.69-.6,1.13l-7.59-.61-1.69-1.34c-1.4-3.26-2.09-4.9-3.48-8.16Zm4.11,12.18c1.39,3.27,2.09,4.9,3.48,8.16l1.72,1.32,7.74.45.63-1.16-3.63-8-1.72-1.32-7.59-.6Zm4.71,11.05,3.49,8.17,1.74,1.29,7.9.28.65-1.18c-1.45-3.2-2.18-4.8-3.63-8-.68-.5-1.07-.78-1.74-1.29l-7.75-.44Zm4.72,11.06c1.39,3.26,2.09,4.89,3.48,8.16L124,51.74l8.06.12c.27-.47.42-.74.68-1.21l-3.63-8-1.77-1.26-7.9-.28C119.2,41.58,119.05,41.85,118.79,42.32ZM95.14,7l7.43.77,1.67,1.37c1.39,3.26,2.08,4.9,3.47,8.17-.24.45-.38.7-.63,1.15l-7.58-.61-1.67-1.37L94.51,8.14C94.75,7.68,94.89,7.43,95.14,7ZM99,19.41l3.32,8.33L104,29.08l7.75.45c.25-.46.39-.72.65-1.18l-3.48-8.17-1.69-1.34-7.59-.61Zm4.5,11.28L106.83,39l1.72,1.32,7.9.28c.26-.48.41-.74.67-1.21l-3.47-8.17-1.72-1.31-7.75-.44ZM108,42l3.32,8.33,1.74,1.29,8.06.11.7-1.23-3.48-8.17L116.61,41l-7.9-.27C108.43,41.22,108.28,41.49,108,42Zm-23-36,7.44.77L94.1,8.09l3.32,8.34-.66,1.18L89.18,17l-1.65-1.39c-1.26-3.4-1.9-5.1-3.16-8.5Zm3.63,12.68,3.17,8.5,1.67,1.37,7.74.44.68-1.2c-1.33-3.34-2-5-3.32-8.34L96.92,18l-7.59-.6C89.07,17.88,88.92,18.14,88.65,18.61Zm4.29,11.51c1.26,3.4,1.9,5.1,3.16,8.49L97.8,40l7.9.29c.27-.49.43-.76.7-1.24l-3.32-8.33-1.69-1.34-7.75-.44Zm4.28,11.5,3.17,8.5,1.71,1.31,8.06.12c.29-.49.45-.77.73-1.26L107.57,42l-1.71-1.32L98,40.36C97.67,40.85,97.51,41.13,97.22,41.62ZM74.91,4.88l7.43.77L84,7.07c1.26,3.4,1.9,5.1,3.16,8.5-.26.47-.41.74-.68,1.21l-7.58-.61-1.62-1.42c-1.21-3.47-1.81-5.2-3-8.66C74.5,5.62,74.64,5.35,74.91,4.88ZM78.3,17.82c1.2,3.46,1.8,5.19,3,8.66L83,27.87l7.74.45.71-1.24c-1.27-3.4-1.9-5.1-3.16-8.5l-1.65-1.39L79,16.58Zm4.07,11.72c1.2,3.47,1.81,5.2,3,8.67l1.67,1.36,7.9.28.72-1.25c-1.26-3.4-1.89-5.1-3.16-8.5l-1.66-1.37-7.75-.44Zm4.07,11.73c1.2,3.47,1.81,5.2,3,8.66l1.69,1.35,8.06.11.75-1.28c-1.26-3.4-1.9-5.1-3.16-8.5L95.1,40.27,87.19,40C86.9,40.49,86.74,40.77,86.44,41.27ZM64.79,3.83l7.44.77,1.59,1.45,3,8.66L76.12,16l-7.58-.62c-.63-.56-1-.87-1.6-1.44L64.09,5.06C64.37,4.58,64.52,4.31,64.79,3.83ZM68,17l2.85,8.82c.63.56,1,.87,1.62,1.42l7.74.45.72-1.26-3-8.67-1.61-1.41-7.6-.61ZM71.8,29l2.85,8.83,1.65,1.39,7.9.28c.29-.5.45-.78.75-1.28l-3-8.67L80.3,28.13l-7.75-.44C72.26,28.19,72.1,28.47,71.8,29Zm3.86,12,2.85,8.82c.65.54,1,.84,1.67,1.37l8,.11.78-1.3-3-8.67-1.67-1.37-7.91-.27Zm-21-38.15,7.43.77L63.68,5l2.85,8.84c-.29.49-.45.76-.73,1.25l-7.58-.61L56.64,13C55.57,9.44,55,7.64,54,4ZM57.6,16.22c1.07,3.6,1.61,5.4,2.69,9l1.59,1.45,7.74.44c.3-.5.46-.78.75-1.28-1.13-3.53-1.7-5.3-2.84-8.83l-1.59-1.45-7.59-.6C58.05,15.44,57.89,15.72,57.6,16.22ZM61.24,28.4c1.07,3.6,1.61,5.39,2.69,9,.63.56,1,.87,1.62,1.42l7.9.28.77-1.31c-1.14-3.53-1.7-5.3-2.84-8.83l-1.62-1.42L62,27.09Zm3.64,12.18,2.69,9L69.21,51l8.06.12.8-1.33c-1.14-3.54-1.71-5.3-2.84-8.84l-1.65-1.39-7.9-.28Z"/><polygon class="cls-7" points="49.49 0 47.44 0.88 62.69 54.54 156.04 55.86 158.27 54.54 65.4 53.22 49.49 0"/><path class="cls-8" d="M117.58,19.66,119.3,21l3.63,8-.63,1.16-7.74-.45-1.72-1.32c-1.39-3.26-2.09-4.89-3.48-8.16l.63-1.15ZM145.35,33l-1.79-1.24-7.75-.44c-.23.44-.36.69-.6,1.13l3.8,7.83c.69.49,1.09.76,1.79,1.24l7.9.28c.23-.44.36-.69.6-1.13Zm-25-13.08L119.71,21c1.46,3.2,2.19,4.8,3.64,8l1.74,1.29,7.75.44.6-1.13c-1.52-3.13-2.27-4.7-3.79-7.83l-1.74-1.29Zm-18.93,9.45-3.17-.18,5.46,3-.6-1.49Zm29.26-8.63c-.23.43-.36.68-.58,1.11,1.51,3.13,2.27,4.7,3.79,7.83l1.77,1.26,7.74.45c.23-.43.36-.67.58-1.11L140,22.57l-1.76-1.26Zm-31-2.47L99,19.41l3.32,8.33L104,29.08l7.75.45c.25-.46.39-.72.65-1.18l-3.48-8.17-1.69-1.34ZM140.35,43l3.8,7.83L146,52.06l8.06.11.63-1.15-4-7.67-1.81-1.22L141,41.86C140.74,42.31,140.6,42.56,140.35,43Zm-51-25.6c-.26.47-.41.73-.68,1.2l2.46,6.61,6.31,3.48,3.81.22.68-1.2c-1.33-3.34-2-5-3.32-8.34L96.92,18ZM54.68,2.78,54,4c.08.28.15.53.23.78l11.47,6.34c-.64-2-1.17-3.62-2-6.14L62.11,3.55ZM76.27,16.37l-1.39-.11,3.06,1.68-.06-.16Zm2.73.21-.7,1.24.14.4L90.6,24.94c-.8-2.14-1.4-3.75-2.36-6.36l-1.65-1.39Zm52.88,31.16L139.53,52l3.53.05c.25-.47.4-.72.65-1.18L139.92,43l-1.79-1.24-7.91-.28c-.25.47-.39.72-.65,1.19ZM105.25,8l-.6,1.13c1.39,3.26,2.08,4.9,3.48,8.16l1.69,1.34,7.59.61c.23-.44.36-.69.6-1.13l-3.63-8-1.7-1.34Zm10.11,1.05c-.22.43-.35.67-.58,1.1,1.46,3.2,2.19,4.8,3.64,8l1.72,1.31,7.59.62c.22-.44.35-.68.58-1.11l-3.8-7.83L122.8,9.85Zm4.55,32.05,11.39,6.29-2.16-4.77-1.77-1.26Zm5.57-31-.56,1.08,3.8,7.83,1.74,1.29,7.59.61.55-1.08-3.95-7.67-1.74-1.29ZM95.14,7c-.25.45-.39.7-.63,1.16l3.32,8.32,1.67,1.37,7.58.61c.25-.45.39-.7.63-1.15-1.39-3.27-2.08-4.91-3.47-8.17l-1.67-1.37ZM127.2,41l.65-1.18c-1.45-3.2-2.18-4.8-3.63-8-.68-.5-1.07-.78-1.74-1.29l-7.75-.44-.66,1.18,3.49,8.17,1.74,1.29Zm-23-8.54,12.84,7.09.07-.14-3.47-8.17-1.72-1.31-7.75-.44-.67,1.2C103.76,31.34,104,31.91,104.21,32.46ZM138,41.38c.24-.45.38-.71.63-1.16l-3.8-7.83L133,31.12l-7.75-.44c-.24.45-.38.71-.63,1.16l3.64,8,1.77,1.27ZM85,5.93l-.65,1.18c1.26,3.4,1.9,5.1,3.16,8.5L89.18,17l7.58.61.66-1.18L94.1,8.09,92.46,6.7ZM64.09,5.06c.84,2.61,1.38,4.26,2.06,6.37L74,15.78l2.1.17.7-1.24-3-8.66L72.23,4.6l-7.44-.77C64.52,4.31,64.37,4.58,64.09,5.06Zm10.82-.18c-.27.47-.41.74-.68,1.21,1.2,3.46,1.8,5.19,3,8.66l1.62,1.42,7.58.61c.27-.47.42-.74.68-1.21-1.26-3.4-1.9-5.1-3.16-8.5L82.34,5.65Z"/><rect class="cls-5" x="106.62" y="55.35" width="6.26" height="17.16"/><rect class="cls-7" x="104.53" y="55.35" width="2.1" height="17.16"/><polygon class="cls-5" points="120.06 72.51 123.18 75.23 101.5 75.23 103.05 72.51 120.06 72.51"/><polygon class="cls-7" points="103.05 72.51 101.5 75.23 94.22 75.23 97.35 72.51 103.05 72.51"/><polygon class="cls-9" points="112.88 55.35 106.62 67.18 104.53 67.86 104.53 55.35 112.88 55.35"/></g></g></g></svg>