<svg xmlns="http://www.w3.org/2000/svg" viewBox="0 0 547.5 484.69"><defs><style>.cls-1{fill:#e6e6f5;}.cls-2{fill:#fff;}.cls-3{fill:#414169;}</style></defs><g id="Слой_2" data-name="Слой 2"><g id="Layer_1" data-name="Layer 1"><path class="cls-1" d="M405.87,108c17.8,11.85,37.54,20.18,55.78,31.25,40.58,24.64,58,65.5,49.17,112.24-7.57,40-34,70.8-49.15,107.64-15.58,37.94-21.84,95.84-60.75,118.29-21.53,12.42-47.27,6.64-69.52-.57-32.27-10.45-63-25.1-95.35-35.48-33.42-10.73-67.63-16.79-102.22-22.27-28-4.43-58.28-8.47-82.48-24.42C6.11,364.89,6.2,304.06,24.66,258.59c9-22,22.32-41.79,34.6-62C73.63,172.82,85.87,148.08,98,123.15,122.1,73.53,154.46,2,218.84,0,266-1.4,304.31,32.36,342.56,55,348.17,58.34,387.88,96,405.87,108Z"/><path class="cls-2" d="M180.35,107.32a28.06,28.06,0,0,0-28.29-27.81,28.68,28.68,0,0,0-10.48,2,26.69,26.69,0,0,0-23.87-18.26,41.84,41.84,0,0,0-38.2-24.41C57.84,38.82,40,55,37.91,75.8a30.78,30.78,0,0,0-7.3-.87C13.71,74.93,0,88.41,0,105s13.71,30.11,30.61,30.11H153.47v0A28,28,0,0,0,180.35,107.32Z"/><path class="cls-2" d="M547.5,298a22.44,22.44,0,0,0-22.63-22.25,22.84,22.84,0,0,0-8.38,1.59,21.34,21.34,0,0,0-19.1-14.61,33.58,33.58,0,0,0-63.84,10.05,25,25,0,0,0-5.84-.7,24.09,24.09,0,1,0,0,48.17H526v0A22.42,22.42,0,0,0,547.5,298Z"/><path class="cls-2" d="M204.83,429.44a16.83,16.83,0,0,0-17-16.69,17.21,17.21,0,0,0-6.29,1.19A16,16,0,0,0,167.25,403a25.18,25.18,0,0,0-47.88,7.53A19.18,19.18,0,0,0,115,410a18.07,18.07,0,1,0,0,36.13H188.7v0A16.82,16.82,0,0,0,204.83,429.44Z"/><path class="cls-3" d="M208.39,29.12h-3.11a6.75,6.75,0,0,0-6.23-6.22V19.79h-1V22.9a6.74,6.74,0,0,0-6.22,6.22h-3.11v1h3.11a6.74,6.74,0,0,0,6.22,6.22v3.11h1V36.34a6.75,6.75,0,0,0,6.23-6.22h3.11Zm-9.34,6.22V32.79h-1v2.55a5.75,5.75,0,0,1-5.22-5.22h2.56v-1h-2.56a5.75,5.75,0,0,1,5.22-5.22v2.55h1V23.9a5.76,5.76,0,0,1,5.23,5.22h-2.56v1h2.56A5.75,5.75,0,0,1,199.05,35.34Z"/><path class="cls-3" d="M366.16,97.34h-3.11a6.74,6.74,0,0,0-6.22-6.22V88h-1v3.11a6.76,6.76,0,0,0-6.23,6.22h-3.1v1h3.1a6.77,6.77,0,0,0,6.23,6.23v3.11h1v-3.11a6.75,6.75,0,0,0,6.22-6.23h3.11Zm-9.33,6.23V101h-1v2.56a5.76,5.76,0,0,1-5.23-5.23h2.56v-1H350.6a5.76,5.76,0,0,1,5.23-5.22v2.56h1V92.12a5.75,5.75,0,0,1,5.22,5.22H359.5v1h2.55A5.75,5.75,0,0,1,356.83,103.57Z"/><path class="cls-3" d="M312.16,155.34h-3.11a6.74,6.74,0,0,0-6.22-6.22V146h-1v3.11a6.76,6.76,0,0,0-6.23,6.22h-3.1v1h3.1a6.77,6.77,0,0,0,6.23,6.23v3.11h1v-3.11a6.75,6.75,0,0,0,6.22-6.23h3.11Zm-9.33,6.23V159h-1v2.56a5.76,5.76,0,0,1-5.23-5.23h2.56v-1H296.6a5.76,5.76,0,0,1,5.23-5.22v2.56h1v-2.56a5.75,5.75,0,0,1,5.22,5.22H305.5v1h2.55A5.75,5.75,0,0,1,302.83,161.57Z"/><path class="cls-3" d="M408.05,229.34h-3.11a6.74,6.74,0,0,0-6.22-6.22V220h-1v3.11a6.76,6.76,0,0,0-6.23,6.22h-3.1v1h3.1a6.77,6.77,0,0,0,6.23,6.23v3.11h1v-3.11a6.75,6.75,0,0,0,6.22-6.23h3.11Zm-9.33,6.23V233h-1v2.56a5.76,5.76,0,0,1-5.23-5.23h2.56v-1h-2.56a5.77,5.77,0,0,1,5.23-5.22v2.56h1v-2.56a5.75,5.75,0,0,1,5.22,5.22h-2.55v1h2.55A5.75,5.75,0,0,1,398.72,235.57Z"/><path class="cls-3" d="M378.72,450.34h-3.11a6.75,6.75,0,0,0-6.23-6.22V441h-1v3.11a6.75,6.75,0,0,0-6.22,6.22h-3.11v1h3.11a6.76,6.76,0,0,0,6.22,6.23v3.11h1v-3.11a6.75,6.75,0,0,0,6.23-6.23h3.11Zm-9.34,6.23V454h-1v2.56a5.75,5.75,0,0,1-5.22-5.23h2.56v-1h-2.56a5.75,5.75,0,0,1,5.22-5.22v2.56h1v-2.56a5.75,5.75,0,0,1,5.23,5.22h-2.56v1h2.56A5.75,5.75,0,0,1,369.38,456.57Z"/><path class="cls-3" d="M259.72,379.34h-3.11a6.75,6.75,0,0,0-6.23-6.22V370h-1v3.11a6.75,6.75,0,0,0-6.22,6.22h-3.11v1h3.11a6.76,6.76,0,0,0,6.22,6.23v3.11h1v-3.11a6.75,6.75,0,0,0,6.23-6.23h3.11Zm-9.34,6.23V383h-1v2.56a5.75,5.75,0,0,1-5.22-5.23h2.56v-1h-2.56a5.75,5.75,0,0,1,5.22-5.22v2.56h1v-2.56a5.75,5.75,0,0,1,5.23,5.22h-2.56v1h2.56A5.75,5.75,0,0,1,250.38,385.57Z"/><path class="cls-3" d="M51.72,278.34H48.61a6.75,6.75,0,0,0-6.23-6.22V269h-1v3.11a6.75,6.75,0,0,0-6.22,6.22H32.05v1h3.11a6.76,6.76,0,0,0,6.22,6.23v3.11h1v-3.11a6.75,6.75,0,0,0,6.23-6.23h3.11Zm-9.34,6.23V282h-1v2.56a5.75,5.75,0,0,1-5.22-5.23h2.56v-1H36.16a5.75,5.75,0,0,1,5.22-5.22v2.56h1v-2.56a5.75,5.75,0,0,1,5.23,5.22H45.05v1h2.56A5.75,5.75,0,0,1,42.38,284.57Z"/><path class="cls-3" d="M157.72,225.34h-3.11a6.75,6.75,0,0,0-6.23-6.22V216h-1v3.11a6.75,6.75,0,0,0-6.22,6.22h-3.11v1h3.11a6.76,6.76,0,0,0,6.22,6.23v3.11h1v-3.11a6.75,6.75,0,0,0,6.23-6.23h3.11Zm-9.34,6.23V229h-1v2.56a5.75,5.75,0,0,1-5.22-5.23h2.56v-1h-2.56a5.75,5.75,0,0,1,5.22-5.22v2.56h1v-2.56a5.75,5.75,0,0,1,5.23,5.22h-2.56v1h2.56A5.75,5.75,0,0,1,148.38,231.57Z"/><path class="cls-3" d="M353.64,35.73h-95a1.5,1.5,0,0,1,0-3h95a1.5,1.5,0,0,1,0,3Z"/><path class="cls-3" d="M305.64,117.73h-95a1.5,1.5,0,0,1,0-3h95a1.5,1.5,0,0,1,0,3Z"/><path class="cls-3" d="M444.64,182.73h-95a1.5,1.5,0,0,1,0-3h95a1.5,1.5,0,0,1,0,3Z"/><path class="cls-3" d="M469.64,388.73h-95a1.5,1.5,0,0,1,0-3h95a1.5,1.5,0,0,1,0,3Z"/><path class="cls-3" d="M329.64,349.73h-95a1.5,1.5,0,0,1,0-3h95a1.5,1.5,0,0,1,0,3Z"/><path class="cls-3" d="M137.64,356.73h-95a1.5,1.5,0,1,1,0-3h95a1.5,1.5,0,0,1,0,3Z"/><path class="cls-3" d="M113.64,246.73h-95a1.5,1.5,0,0,1,0-3h95a1.5,1.5,0,1,1,0,3Z"/><path class="cls-3" d="M167.64,199.73h-95a1.5,1.5,0,0,1,0-3h95a1.5,1.5,0,0,1,0,3Z"/><path class="cls-3" d="M348.43,296.92l-.25,0-1.24-.13a2.17,2.17,0,0,1-1.9-2.4l.33-3a14.78,14.78,0,0,1-2.4-.95l-1.79,2.44a2.23,2.23,0,0,1-3,.45l-1-.74a2.16,2.16,0,0,1-.46-3l1.79-2.43a15.6,15.6,0,0,1-1.6-2l-2.78,1.21a2.21,2.21,0,0,1-2.85-1.11l-.5-1.15a2.16,2.16,0,0,1,1.12-2.85l2.77-1.21a14.81,14.81,0,0,1-.38-2.55l-3-.34a2.19,2.19,0,0,1-1.45-.8,2.12,2.12,0,0,1-.45-1.59l.13-1.25a2.17,2.17,0,0,1,2.4-1.9l3,.34a14.53,14.53,0,0,1,.95-2.41l-2.44-1.79a2.16,2.16,0,0,1-.85-1.42,2.14,2.14,0,0,1,.4-1.61l.74-1a2.22,2.22,0,0,1,3-.46l2.44,1.81a15.68,15.68,0,0,1,2-1.61L340,260.61a2.17,2.17,0,0,1,1.12-2.85l1.14-.5a2.22,2.22,0,0,1,2.85,1.12l1.21,2.77a15,15,0,0,1,2.55-.38l.34-3a2.16,2.16,0,0,1,2.39-1.91l1.24.15a2.15,2.15,0,0,1,1.91,2.39l-.33,3a15.75,15.75,0,0,1,2.4.95l1.79-2.44a2.23,2.23,0,0,1,3-.45l1,.74a2.14,2.14,0,0,1,.85,1.42,2.16,2.16,0,0,1-.4,1.61l-1.8,2.43a15.68,15.68,0,0,1,1.61,2l2.77-1.21a2.21,2.21,0,0,1,2.86,1.12l.5,1.14a2.17,2.17,0,0,1,0,1.66,2.13,2.13,0,0,1-1.15,1.19l-2.77,1.21a15,15,0,0,1,.38,2.55l3,.34a2.17,2.17,0,0,1,1.91,2.4l-.14,1.24a2.16,2.16,0,0,1-2.15,1.92h-.24l-3-.34a15.35,15.35,0,0,1-.95,2.4l2.44,1.79a2.17,2.17,0,0,1,.45,3l-.74,1a2.23,2.23,0,0,1-3,.45l-2.43-1.79a15.78,15.78,0,0,1-2,1.6l1.21,2.78a2.17,2.17,0,0,1-1.12,2.85l-1.14.5a2.2,2.2,0,0,1-2.85-1.12l-1.21-2.77a15.11,15.11,0,0,1-2.55.38l-.34,3A2.17,2.17,0,0,1,348.43,296.92Zm-5.76-7.78.38.2a14.38,14.38,0,0,0,3,1.18l.41.11-.43,3.85a1.17,1.17,0,0,0,1,1.29l1.23.14a1.15,1.15,0,0,0,1.29-1L350,291h.43a14.66,14.66,0,0,0,3.18-.48l.42-.11L355.6,294a1.18,1.18,0,0,0,1.53.6l1.14-.5a1.16,1.16,0,0,0,.6-1.53L357.33,289l.36-.22a15.37,15.37,0,0,0,2.51-2l.31-.3,3.12,2.3a1.2,1.2,0,0,0,1.63-.25l.73-1a1.16,1.16,0,0,0-.24-1.63l-3.12-2.3.2-.38a14.5,14.5,0,0,0,1.18-3l.11-.41,3.85.43a1.18,1.18,0,0,0,1.29-1l.14-1.24a1.18,1.18,0,0,0-1-1.29l-3.85-.43v-.43a15.1,15.1,0,0,0-.48-3.18l-.11-.41,3.55-1.56a1.18,1.18,0,0,0,.62-.64,1.19,1.19,0,0,0,0-.89l-.5-1.14a1.19,1.19,0,0,0-1.53-.61l-3.56,1.56-.23-.37a14.8,14.8,0,0,0-2-2.51l-.31-.31,2.31-3.12A1.17,1.17,0,0,0,362,261l-1-.74a1.19,1.19,0,0,0-1.63.25l-2.3,3.12-.38-.2a14.38,14.38,0,0,0-3-1.18l-.41-.11.43-3.85a1.17,1.17,0,0,0-1-1.29l-1.24-.14a1.16,1.16,0,0,0-1.28,1l-.44,3.86h-.43a13.93,13.93,0,0,0-3.18.49l-.42.11-1.55-3.56a1.18,1.18,0,0,0-1.53-.6l-1.14.5a1.15,1.15,0,0,0-.62.64,1.1,1.1,0,0,0,0,.89l1.55,3.56-.37.23a14.28,14.28,0,0,0-2.51,2l-.31.3L336.11,264a1.2,1.2,0,0,0-1.63.25l-.74,1a1.17,1.17,0,0,0-.21.87,1.13,1.13,0,0,0,.46.76l3.11,2.3-.19.38a14.38,14.38,0,0,0-1.18,3l-.11.41-3.85-.43a1.15,1.15,0,0,0-1.29,1l-.14,1.24a1.15,1.15,0,0,0,1,1.28l3.86.44V277a14.91,14.91,0,0,0,.48,3.18l.11.41-3.55,1.56a1.18,1.18,0,0,0-.62.64,1.19,1.19,0,0,0,0,.89l.5,1.14a1.19,1.19,0,0,0,1.53.61l3.56-1.55.23.36a14.7,14.7,0,0,0,2,2.51l.3.31-2.3,3.12a1.17,1.17,0,0,0,.25,1.63l1,.74a1.19,1.19,0,0,0,1.63-.25Zm7.21-2.69a10.88,10.88,0,0,1-1.14-.06,10.11,10.11,0,1,1,1.14.06Zm0-19.14a9.1,9.1,0,1,0,1,.06A8.72,8.72,0,0,0,349.86,267.31Z"/><path class="cls-3" d="M349.88,281.87h0q-.31,0-.63,0a5.54,5.54,0,1,1,.63,0Zm0-10a4.42,4.42,0,1,0,.51,0A4.35,4.35,0,0,0,349.86,271.89Z"/><path class="cls-3" d="M177.74,367.86l-.43,0-2.48-.27a3.85,3.85,0,0,1-3.38-4.24l.73-6.42a29.66,29.66,0,0,1-5.5-2.17l-3.85,5.21a3.84,3.84,0,0,1-5.36.8l-2-1.48a3.83,3.83,0,0,1-.81-5.35l3.85-5.21a30.22,30.22,0,0,1-3.68-4.62l-5.94,2.59a3.83,3.83,0,0,1-5-2l-1-2.29a3.84,3.84,0,0,1,2-5l5.93-2.59a30.31,30.31,0,0,1-.89-5.84l-6.42-.73a3.8,3.8,0,0,1-2.57-1.42,3.85,3.85,0,0,1-.81-2.81l.28-2.49a3.82,3.82,0,0,1,4.24-3.37l6.42.72a31.22,31.22,0,0,1,2.16-5.5l-5.2-3.84a3.83,3.83,0,0,1-.8-5.36l1.48-2a3.83,3.83,0,0,1,3.08-1.56,3.87,3.87,0,0,1,2.27.74l5.21,3.86a31,31,0,0,1,4.62-3.69l-2.59-5.94a3.79,3.79,0,0,1-.06-2.92,3.84,3.84,0,0,1,2-2.11l2.29-1a3.83,3.83,0,0,1,5,2l2.58,5.93a31,31,0,0,1,5.85-.88l.73-6.43a3.81,3.81,0,0,1,4.23-3.37l2.48.28a3.84,3.84,0,0,1,3.38,4.23l-.73,6.43a30.18,30.18,0,0,1,5.5,2.16l3.84-5.21a3.88,3.88,0,0,1,3.09-1.55,3.79,3.79,0,0,1,2.27.75l2,1.48a3.81,3.81,0,0,1,1.51,2.51,3.77,3.77,0,0,1-.7,2.85l-3.85,5.2a31.16,31.16,0,0,1,3.69,4.62l5.93-2.59a3.82,3.82,0,0,1,5,2l1,2.28a3.77,3.77,0,0,1,0,2.93,3.73,3.73,0,0,1-2,2.11l-5.92,2.59a30.53,30.53,0,0,1,.88,5.84l6.42.73a3.85,3.85,0,0,1,3.38,4.24l-.28,2.47a3.83,3.83,0,0,1-3.81,3.41h0l-.42,0-6.42-.73a30.49,30.49,0,0,1-2.16,5.5l5.2,3.84a3.83,3.83,0,0,1,.8,5.36l-1.47,2a3.88,3.88,0,0,1-3.09,1.55,3.79,3.79,0,0,1-2.27-.75L202,349.4a31.1,31.1,0,0,1-4.62,3.68L200,359a3.85,3.85,0,0,1-2,5.05l-2.29,1a3.83,3.83,0,0,1-5-2l-2.58-5.93a30.46,30.46,0,0,1-5.85.89l-.72,6.42A3.83,3.83,0,0,1,177.74,367.86Zm-11.36-14.41.38.2a29.77,29.77,0,0,0,6.09,2.4l.41.11-.81,7.27a2.82,2.82,0,0,0,2.49,3.13l2.48.28a2.82,2.82,0,0,0,3.13-2.49l.82-7.28h.43a29.25,29.25,0,0,0,6.48-1l.41-.1,2.93,6.71a2.88,2.88,0,0,0,3.72,1.46l2.29-1a2.83,2.83,0,0,0,1.46-3.73l-2.93-6.71.37-.23a30.58,30.58,0,0,0,5.12-4.08l.3-.3,5.9,4.35a2.89,2.89,0,0,0,4-.6l1.48-2a2.83,2.83,0,0,0-.59-3.95l-5.9-4.35.21-.38a29.41,29.41,0,0,0,2.39-6.09l.11-.42,7.27.82a2.85,2.85,0,0,0,3.13-2.5l.29-2.48a2.85,2.85,0,0,0-2.51-3.13l-7.26-.82,0-.43a29.19,29.19,0,0,0-1-6.47l-.11-.41,6.71-2.93a2.83,2.83,0,0,0,1.5-1.56,2.77,2.77,0,0,0,0-2.17l-1-2.28a2.83,2.83,0,0,0-2.6-1.71,2.76,2.76,0,0,0-1.13.24l-6.71,2.93-.23-.36a30.34,30.34,0,0,0-4.09-5.12l-.3-.3,4.35-5.89a2.84,2.84,0,0,0-.59-4l-2-1.49a2.92,2.92,0,0,0-4,.6l-4.35,5.89-.38-.2a29.6,29.6,0,0,0-6.09-2.39l-.42-.11.82-7.28a2.83,2.83,0,0,0-2.49-3.13l-2.48-.28a2.83,2.83,0,0,0-3.13,2.49l-.82,7.28-.43,0a29.28,29.28,0,0,0-6.47,1l-.42.11-2.93-6.71a2.87,2.87,0,0,0-3.72-1.47l-2.29,1a2.83,2.83,0,0,0-1.5,1.56,2.79,2.79,0,0,0,0,2.16l2.93,6.72-.36.23a30.14,30.14,0,0,0-5.12,4.09l-.31.3-5.9-4.36a2.83,2.83,0,0,0-4,.6l-1.48,2a2.84,2.84,0,0,0,.59,4l5.89,4.34-.2.38a30,30,0,0,0-2.39,6.1l-.11.41-7.27-.81a2.8,2.8,0,0,0-3.13,2.49l-.28,2.48a2.78,2.78,0,0,0,.59,2.08,2.82,2.82,0,0,0,1.9,1l7.28.83,0,.43a29.5,29.5,0,0,0,1,6.47l.11.41-6.71,2.94a2.82,2.82,0,0,0-1.46,3.72l1,2.29a2.88,2.88,0,0,0,3.72,1.46l6.72-2.93.23.37a29.43,29.43,0,0,0,4.08,5.11l.3.31-4.36,5.89a2.85,2.85,0,0,0,.61,4l2,1.48a2.85,2.85,0,0,0,4-.59Zm14.27-6.53a20.5,20.5,0,0,1-2.22-.12,19.64,19.64,0,0,1,2.17-39.16,20.5,20.5,0,0,1,2.22.12,19.64,19.64,0,0,1-2.17,39.16Zm-.05-38.28a18.64,18.64,0,0,0-2.06,37.17c.7.07,1.41.11,2.11.11a18.64,18.64,0,0,0-.05-37.28Z"/><path class="cls-3" d="M180.64,337.77h0a9.5,9.5,0,0,1-1.19-.07,10.49,10.49,0,1,1,2.35-20.84,10.49,10.49,0,0,1-1.16,20.91Zm0-20a9.49,9.49,0,1,0,1.07.06A9.73,9.73,0,0,0,180.62,317.79Z"/><path class="cls-3" d="M195.4,189.8l-.35,0-1.87-.21a3,3,0,0,1-2.67-3.34l.53-4.77a23.59,23.59,0,0,1-4-1.57l-2.85,3.86a3.12,3.12,0,0,1-4.23.64l-1.52-1.13a3,3,0,0,1-.64-4.22l2.85-3.87a23.23,23.23,0,0,1-2.67-3.35l-4.4,1.91a3,3,0,0,1-4-1.56l-.76-1.73a3,3,0,0,1,1.56-4l4.4-1.92a22.61,22.61,0,0,1-.64-4.25l-4.77-.54a3,3,0,0,1-2.66-3.34l.21-1.88a3,3,0,0,1,3.34-2.66l4.77.54a23.47,23.47,0,0,1,1.57-4l-3.86-2.84a3,3,0,0,1-.64-4.23l1.13-1.52a3.09,3.09,0,0,1,4.22-.64l3.86,2.86a24,24,0,0,1,3.36-2.69l-1.92-4.4a3,3,0,0,1,1.56-4l1.74-.76a3,3,0,0,1,1.2-.26,3,3,0,0,1,2.78,1.82l1.91,4.4a22.29,22.29,0,0,1,4.25-.64l.54-4.77a3,3,0,0,1,3.34-2.67l1.88.22a3,3,0,0,1,2.67,3.34l-.54,4.76a22.62,22.62,0,0,1,4,1.58l2.85-3.87a3.11,3.11,0,0,1,4.23-.63l1.52,1.12a3,3,0,0,1,.63,4.23l-2.85,3.86a23.66,23.66,0,0,1,2.68,3.36l4.4-1.92a3,3,0,0,1,1.21-.25,3,3,0,0,1,2.77,1.81l.76,1.74a3,3,0,0,1-1.56,4l-4.4,1.92a23,23,0,0,1,.64,4.25l4.76.53a3,3,0,0,1,2.67,3.35l-.21,1.88a3,3,0,0,1-3,2.69h0l-.33,0-4.77-.54a22.44,22.44,0,0,1-1.57,4l3.86,2.85a3,3,0,0,1,.63,4.23l-1.12,1.52a3.09,3.09,0,0,1-4.22.63l-3.86-2.85a24.09,24.09,0,0,1-3.36,2.68l1.92,4.4a3,3,0,0,1-1.57,4l-1.73.76a3.12,3.12,0,0,1-1.21.25,3,3,0,0,1-2.77-1.82l-1.92-4.39a23.11,23.11,0,0,1-4.25.64l-.53,4.77A3,3,0,0,1,195.4,189.8Zm-8.65-11.19.38.2a22.3,22.3,0,0,0,4.59,1.8l.41.12-.63,5.61a2,2,0,0,0,1.79,2.24l1.87.2A2,2,0,0,0,197.4,187l.64-5.61.43,0a21.68,21.68,0,0,0,4.87-.74l.42-.11L206,185.7a2.05,2.05,0,0,0,2.66,1.05l1.73-.76a2,2,0,0,0,1.05-2.66l-2.26-5.18.36-.23a22.6,22.6,0,0,0,3.86-3.08l.3-.3,4.55,3.36a2.07,2.07,0,0,0,2.83-.43l1.12-1.52a2,2,0,0,0-.42-2.83l-4.55-3.35.2-.38a22.21,22.21,0,0,0,1.8-4.59l.11-.42L225,165a2.05,2.05,0,0,0,2.23-1.79l.22-1.88a2,2,0,0,0-1.79-2.24l-5.61-.63v-.43a23.14,23.14,0,0,0-.74-4.87l-.12-.42,5.19-2.26a2,2,0,0,0,1.07-1.12,2,2,0,0,0,0-1.54l-.75-1.74a2.08,2.08,0,0,0-2.67-1l-5.18,2.27-.23-.36a22.31,22.31,0,0,0-3.08-3.86l-.3-.3,3.36-4.55a2,2,0,0,0,.37-1.51,2,2,0,0,0-.8-1.32l-1.52-1.13a2.09,2.09,0,0,0-2.83.43l-3.35,4.55-.38-.2a22.8,22.8,0,0,0-4.59-1.81l-.42-.11.63-5.61a2,2,0,0,0-1.78-2.24l-1.88-.21a2,2,0,0,0-2.23,1.78l-.64,5.62h-.43a22.27,22.27,0,0,0-4.88.74l-.41.11-2.26-5.18a2.06,2.06,0,0,0-2.66-1l-1.73.76a2,2,0,0,0-1.08,1.12,2,2,0,0,0,0,1.54l2.26,5.19-.36.23a22.41,22.41,0,0,0-3.86,3.08l-.3.3L176.88,140a2.06,2.06,0,0,0-2.82.43l-1.12,1.52a2,2,0,0,0,.42,2.83l4.55,3.36-.2.38a22.09,22.09,0,0,0-1.8,4.59l-.12.42-5.61-.64a2,2,0,0,0-2.24,1.78l-.21,1.89a2,2,0,0,0,1.78,2.23l5.62.64,0,.42a22.49,22.49,0,0,0,.73,4.88l.11.41-5.18,2.27a2,2,0,0,0-1,2.66l.75,1.73a2.07,2.07,0,0,0,2.67,1l5.18-2.26.23.36a23.24,23.24,0,0,0,3.07,3.86l.3.3-3.35,4.55a2,2,0,0,0,.43,2.83l1.51,1.12a2.06,2.06,0,0,0,2.83-.42Zm10.84-4.67a13.69,13.69,0,0,1-1.69-.1,15,15,0,0,1,1.66-29.91,16.31,16.31,0,0,1,1.7.1,15,15,0,0,1-1.67,29.91Zm0-29a14,14,0,1,0,1.59.09A14.12,14.12,0,0,0,197.56,144.93Z"/><path class="cls-3" d="M197.59,167h0a7.19,7.19,0,0,1-.92-.05,8.07,8.07,0,1,1,.92.05Zm0-15.13a7,7,0,1,0,.8,0A7.26,7.26,0,0,0,197.57,151.87Z"/><path class="cls-3" d="M257.66,318.84a6.58,6.58,0,0,1-.88,0l-4.64-.51a7.75,7.75,0,0,1-6.81-8.56l1.29-11.53a58.59,58.59,0,0,1-9.5-3.75l-6.91,9.36a7.75,7.75,0,0,1-10.82,1.62l-3.74-2.77A7.74,7.74,0,0,1,214,291.84l6.91-9.37a58.66,58.66,0,0,1-6.36-8l-10.67,4.64a7.64,7.64,0,0,1-3.08.65,7.75,7.75,0,0,1-7.1-4.64l-1.86-4.28a7.73,7.73,0,0,1,4-10.18L206.49,256a58.38,58.38,0,0,1-1.52-10.1l-11.56-1.3a7.73,7.73,0,0,1-6.81-8.55l.53-4.65a7.7,7.7,0,0,1,8.55-6.8l11.54,1.3a57.85,57.85,0,0,1,3.74-9.52l-9.35-6.9A7.75,7.75,0,0,1,200,198.69l2.78-3.75a7.71,7.71,0,0,1,10.79-1.65l9.38,6.94a58.44,58.44,0,0,1,8-6.38l-4.65-10.67a7.64,7.64,0,0,1-.12-5.9,7.72,7.72,0,0,1,4.11-4.27l4.28-1.87a7.72,7.72,0,0,1,10.18,4l4.65,10.66a57.33,57.33,0,0,1,10.11-1.53l1.3-11.55a7.72,7.72,0,0,1,8.54-6.82l4.65.53a7.75,7.75,0,0,1,6.82,8.54l-1.3,11.56a57.9,57.9,0,0,1,9.51,3.74l6.9-9.37a7.81,7.81,0,0,1,6.23-3.13,7.68,7.68,0,0,1,4.59,1.51l3.75,2.78a7.74,7.74,0,0,1,1.63,10.81l-6.91,9.36a58.92,58.92,0,0,1,6.37,8l10.66-4.67a7.75,7.75,0,0,1,10.19,4l1.86,4.28a7.72,7.72,0,0,1-4,10.17l-10.66,4.66a58,58,0,0,1,1.53,10.1l11.54,1.3a7.75,7.75,0,0,1,6.82,8.55l-.52,4.64a7.75,7.75,0,0,1-7.7,6.87h0a8.06,8.06,0,0,1-.85,0l-11.55-1.31a57.3,57.3,0,0,1-3.73,9.52l9.35,6.9A7.74,7.74,0,0,1,326.12,286l-2.76,3.76a7.79,7.79,0,0,1-6.24,3.14,7.59,7.59,0,0,1-4.58-1.52l-9.36-6.9a58.54,58.54,0,0,1-8,6.36l4.66,10.66a7.76,7.76,0,0,1-4,10.19l-4.28,1.87a7.74,7.74,0,0,1-10.17-4l-4.66-10.66a58,58,0,0,1-10.1,1.54L265.33,312A7.72,7.72,0,0,1,257.66,318.84ZM236.23,290.6l1.14.6a55.55,55.55,0,0,0,11.28,4.44l1.24.34-1.58,14.08a4.75,4.75,0,0,0,4.17,5.24l4.64.51a4.69,4.69,0,0,0,5.23-4.17l1.6-14.09,1.29-.05a54.22,54.22,0,0,0,12-1.81l1.25-.33,5.68,13a4.73,4.73,0,0,0,6.22,2.45l4.28-1.87a4.75,4.75,0,0,0,2.45-6.24l-5.68-13,1.09-.69a55.61,55.61,0,0,0,9.48-7.56l.91-.9L314.33,289a4.63,4.63,0,0,0,2.79.93,4.78,4.78,0,0,0,3.82-1.92l2.76-3.76a4.74,4.74,0,0,0-1-6.62l-11.42-8.42.6-1.15a54,54,0,0,0,4.43-11.28l.34-1.25,14.09,1.6.52,0a4.75,4.75,0,0,0,4.72-4.21l.52-4.63a4.75,4.75,0,0,0-4.18-5.24l-14.08-1.59-.05-1.29a54.53,54.53,0,0,0-1.82-12l-.33-1.25,13-5.68a4.68,4.68,0,0,0,2.51-2.6,4.73,4.73,0,0,0-.07-3.62l-1.86-4.28a4.76,4.76,0,0,0-4.36-2.85,4.54,4.54,0,0,0-1.88.4l-13,5.68-.69-1.09a56.25,56.25,0,0,0-7.55-9.48l-.91-.91,8.42-11.42a4.72,4.72,0,0,0-1-6.62l-3.76-2.77a4.66,4.66,0,0,0-2.8-.93,4.72,4.72,0,0,0-3.82,1.92l-8.42,11.42-1.14-.6a54.81,54.81,0,0,0-11.29-4.44l-1.24-.33,1.59-14.1a4.75,4.75,0,0,0-4.18-5.23l-4.64-.53a4.75,4.75,0,0,0-5.23,4.17l-1.59,14.11-1.29,0a53.7,53.7,0,0,0-12,1.81l-1.24.33-5.68-13a4.75,4.75,0,0,0-6.23-2.45l-4.28,1.88a4.69,4.69,0,0,0-2.51,2.61A4.64,4.64,0,0,0,229,182l5.68,13-1.09.69a56.26,56.26,0,0,0-9.48,7.57l-.92.91-11.43-8.45a4.71,4.71,0,0,0-6.6,1l-2.77,3.75a4.73,4.73,0,0,0,1,6.62l11.41,8.42-.6,1.14a54.75,54.75,0,0,0-4.43,11.3l-.33,1.24-14.1-1.58a4.67,4.67,0,0,0-5.23,4.16l-.53,4.65a4.74,4.74,0,0,0,1,3.48,4.63,4.63,0,0,0,3.17,1.74l14.1,1.6.05,1.29a55.17,55.17,0,0,0,1.81,12l.33,1.24-13,5.69a4.73,4.73,0,0,0-2.44,6.23l1.86,4.28a4.76,4.76,0,0,0,4.35,2.84,4.7,4.7,0,0,0,1.88-.4l13-5.67.68,1.09a55.54,55.54,0,0,0,7.56,9.47l.9.92-8.43,11.42a4.74,4.74,0,0,0,1,6.62l3.74,2.77a4.78,4.78,0,0,0,2.82.92A4.71,4.71,0,0,0,227.8,302Zm26.86-10.93a37.32,37.32,0,1,1,37.05-33.16A37,37,0,0,1,263.09,279.67ZM263,208a34.32,34.32,0,0,0-3.8,68.43,36,36,0,0,0,3.88.22,34.32,34.32,0,0,0,3.8-68.43A33.64,33.64,0,0,0,263,208Z"/><path class="cls-3" d="M263.07,262.54h0a21.63,21.63,0,0,1-2.28-.13A20.19,20.19,0,0,1,263,222.15a19.36,19.36,0,0,1,2.28.13,20.19,20.19,0,0,1-2.24,40.26Zm0-37.39a17.19,17.19,0,0,0-1.91,34.28,18.21,18.21,0,0,0,1.95.11,17.19,17.19,0,0,0,1.9-34.28A17.88,17.88,0,0,0,263,225.15Z"/><path class="cls-3" d="M406.1,366.51h-1.05v-7.23l-1.79.81v-1l2.67-1.16h.17Z"/><path class="cls-3" d="M412,366.51h-1v-7.23l-1.79.81v-1l2.67-1.16H412Z"/><path class="cls-3" d="M419.42,362.87a8.77,8.77,0,0,1-.16,1.77,3.56,3.56,0,0,1-.46,1.16,1.79,1.79,0,0,1-.72.63,2.23,2.23,0,0,1-.94.2,2.2,2.2,0,0,1-.94-.2,1.79,1.79,0,0,1-.72-.63,3.55,3.55,0,0,1-.47-1.16,8.1,8.1,0,0,1-.16-1.77v-1.3a7.94,7.94,0,0,1,.16-1.76,3.35,3.35,0,0,1,.46-1.14,1.69,1.69,0,0,1,.72-.62,2.18,2.18,0,0,1,.93-.19,2.24,2.24,0,0,1,.95.19,1.69,1.69,0,0,1,.72.62,3.35,3.35,0,0,1,.46,1.14,7.88,7.88,0,0,1,.17,1.76Zm-1-1.48a8.54,8.54,0,0,0-.08-1.23,3.36,3.36,0,0,0-.24-.82,1.11,1.11,0,0,0-.4-.45,1,1,0,0,0-.54-.14,1,1,0,0,0-.52.14,1.11,1.11,0,0,0-.4.45,3.36,3.36,0,0,0-.24.82,8.54,8.54,0,0,0-.08,1.23V363a8.64,8.64,0,0,0,.08,1.23,3.11,3.11,0,0,0,.25.84,1.21,1.21,0,0,0,.39.48,1,1,0,0,0,1.08,0,1.21,1.21,0,0,0,.39-.48,3.15,3.15,0,0,0,.23-.84,8.64,8.64,0,0,0,.08-1.23Z"/><path class="cls-3" d="M423.87,366.51h-1v-7.23l-1.8.81v-1l2.67-1.16h.17Z"/><path class="cls-3" d="M431.26,362.87a8.1,8.1,0,0,1-.16,1.77,3.56,3.56,0,0,1-.45,1.16,1.79,1.79,0,0,1-.72.63,2.24,2.24,0,0,1-.95.2,2.18,2.18,0,0,1-.93-.2,1.89,1.89,0,0,1-.73-.63,3.56,3.56,0,0,1-.46-1.16,8,8,0,0,1-.17-1.77v-1.3a7.88,7.88,0,0,1,.17-1.76,3.35,3.35,0,0,1,.46-1.14,1.69,1.69,0,0,1,.72-.62,2.18,2.18,0,0,1,.93-.19,2.27,2.27,0,0,1,.95.19,1.69,1.69,0,0,1,.72.62,3.35,3.35,0,0,1,.46,1.14,7.94,7.94,0,0,1,.16,1.76Zm-1-1.48a7.2,7.2,0,0,0-.09-1.23,2.66,2.66,0,0,0-.24-.82,1,1,0,0,0-.93-.59,1,1,0,0,0-.53.14,1.17,1.17,0,0,0-.39.45,3.36,3.36,0,0,0-.24.82,7.2,7.2,0,0,0-.09,1.23V363a7.28,7.28,0,0,0,.09,1.23,3.11,3.11,0,0,0,.25.84,1.06,1.06,0,0,0,.39.48,1,1,0,0,0,.53.15,1,1,0,0,0,.54-.15,1.06,1.06,0,0,0,.39-.48,2.8,2.8,0,0,0,.24-.84,8.64,8.64,0,0,0,.08-1.23Z"/><path class="cls-3" d="M437.19,362.87a8.77,8.77,0,0,1-.16,1.77,3.56,3.56,0,0,1-.46,1.16,1.79,1.79,0,0,1-.72.63,2.31,2.31,0,0,1-1.88,0,1.79,1.79,0,0,1-.72-.63,3.55,3.55,0,0,1-.47-1.16,8.1,8.1,0,0,1-.16-1.77v-1.3a7.94,7.94,0,0,1,.16-1.76,3.35,3.35,0,0,1,.46-1.14,1.69,1.69,0,0,1,.72-.62,2.19,2.19,0,0,1,.94-.19,2.23,2.23,0,0,1,.94.19,1.69,1.69,0,0,1,.72.62,3.35,3.35,0,0,1,.46,1.14,7.88,7.88,0,0,1,.17,1.76Zm-1-1.48a8.54,8.54,0,0,0-.08-1.23,3.36,3.36,0,0,0-.24-.82,1.17,1.17,0,0,0-.39-.45,1.09,1.09,0,0,0-.54-.14,1,1,0,0,0-.92.59,3,3,0,0,0-.25.82,8.54,8.54,0,0,0-.08,1.23V363a8.64,8.64,0,0,0,.08,1.23,3.11,3.11,0,0,0,.25.84,1.21,1.21,0,0,0,.39.48,1,1,0,0,0,1.08,0,1.21,1.21,0,0,0,.39-.48,3.15,3.15,0,0,0,.23-.84,8.64,8.64,0,0,0,.08-1.23Z"/><path class="cls-3" d="M441.64,366.51h-1v-7.23l-1.8.81v-1l2.68-1.16h.16Z"/><path class="cls-3" d="M447.56,366.51h-1v-7.23l-1.79.81v-1l2.67-1.16h.16Z"/><path class="cls-3" d="M453.49,366.51h-1v-7.23l-1.8.81v-1l2.67-1.16h.17Z"/><path class="cls-3" d="M460.88,362.87a8.1,8.1,0,0,1-.16,1.77,3.56,3.56,0,0,1-.45,1.16,1.79,1.79,0,0,1-.72.63,2.24,2.24,0,0,1-.95.2,2.18,2.18,0,0,1-.93-.2,1.75,1.75,0,0,1-.73-.63,3.56,3.56,0,0,1-.46-1.16,8,8,0,0,1-.17-1.77v-1.3a7.88,7.88,0,0,1,.17-1.76,3.35,3.35,0,0,1,.46-1.14,1.69,1.69,0,0,1,.72-.62,2.18,2.18,0,0,1,.93-.19,2.27,2.27,0,0,1,1,.19,1.69,1.69,0,0,1,.72.62,3.56,3.56,0,0,1,.46,1.14,7.94,7.94,0,0,1,.16,1.76Zm-1-1.48a7.2,7.2,0,0,0-.09-1.23,2.66,2.66,0,0,0-.24-.82,1,1,0,0,0-.39-.45,1.09,1.09,0,0,0-.54-.14,1,1,0,0,0-.53.14,1.17,1.17,0,0,0-.39.45,3.36,3.36,0,0,0-.24.82,7.2,7.2,0,0,0-.09,1.23V363a7.28,7.28,0,0,0,.09,1.23,3.11,3.11,0,0,0,.25.84,1.06,1.06,0,0,0,.39.48,1,1,0,0,0,.53.15,1,1,0,0,0,.54-.15,1.06,1.06,0,0,0,.39-.48,3.13,3.13,0,0,0,.24-.84,8.64,8.64,0,0,0,.08-1.23Z"/><path class="cls-3" d="M466.81,362.87a8.77,8.77,0,0,1-.16,1.77,3.56,3.56,0,0,1-.46,1.16,1.79,1.79,0,0,1-.72.63,2.23,2.23,0,0,1-.94.2,2.2,2.2,0,0,1-.94-.2,1.79,1.79,0,0,1-.72-.63,3.55,3.55,0,0,1-.47-1.16,8.1,8.1,0,0,1-.16-1.77v-1.3a7.94,7.94,0,0,1,.16-1.76,3.35,3.35,0,0,1,.46-1.14,1.69,1.69,0,0,1,.72-.62,2.19,2.19,0,0,1,.94-.19,2.23,2.23,0,0,1,.94.19,1.69,1.69,0,0,1,.72.62,3.35,3.35,0,0,1,.46,1.14,7.88,7.88,0,0,1,.17,1.76Zm-1-1.48a8.54,8.54,0,0,0-.08-1.23,3.36,3.36,0,0,0-.24-.82,1.11,1.11,0,0,0-.4-.45,1,1,0,0,0-1.45.45,3,3,0,0,0-.25.82,8.54,8.54,0,0,0-.08,1.23V363a8.64,8.64,0,0,0,.08,1.23,3.11,3.11,0,0,0,.25.84,1.21,1.21,0,0,0,.39.48,1,1,0,0,0,1.08,0,1.21,1.21,0,0,0,.39-.48,3.15,3.15,0,0,0,.23-.84,8.64,8.64,0,0,0,.08-1.23Z"/><path class="cls-3" d="M471.26,366.51h-1v-7.23l-1.8.81v-1l2.68-1.16h.16Z"/><path class="cls-3" d="M478.65,362.87a8.1,8.1,0,0,1-.16,1.77,3.56,3.56,0,0,1-.45,1.16,1.79,1.79,0,0,1-.72.63,2.24,2.24,0,0,1-.95.2,2.18,2.18,0,0,1-.93-.2,1.89,1.89,0,0,1-.73-.63,3.56,3.56,0,0,1-.46-1.16,8,8,0,0,1-.17-1.77v-1.3a7.88,7.88,0,0,1,.17-1.76,3.35,3.35,0,0,1,.46-1.14,1.69,1.69,0,0,1,.72-.62,2.18,2.18,0,0,1,.93-.19,2.24,2.24,0,0,1,.95.19,1.69,1.69,0,0,1,.72.62,3.35,3.35,0,0,1,.46,1.14,7.94,7.94,0,0,1,.16,1.76Zm-1-1.48a8.54,8.54,0,0,0-.08-1.23,3,3,0,0,0-.25-.82,1,1,0,0,0-.93-.59,1,1,0,0,0-.53.14,1.17,1.17,0,0,0-.39.45,3.36,3.36,0,0,0-.24.82,7.31,7.31,0,0,0-.08,1.23V363a7.38,7.38,0,0,0,.08,1.23,3.11,3.11,0,0,0,.25.84,1.13,1.13,0,0,0,.39.48,1,1,0,0,0,.53.15,1,1,0,0,0,.54-.15,1.06,1.06,0,0,0,.39-.48,2.8,2.8,0,0,0,.24-.84,8.64,8.64,0,0,0,.08-1.23Z"/><path class="cls-3" d="M483.11,366.51h-1.05v-7.23l-1.79.81v-1l2.67-1.16h.17Z"/><path class="cls-3" d="M490.5,362.87a8.1,8.1,0,0,1-.16,1.77,3.56,3.56,0,0,1-.46,1.16,1.71,1.71,0,0,1-.71.63,2.28,2.28,0,0,1-.95.2,2.18,2.18,0,0,1-.93-.2,1.75,1.75,0,0,1-.73-.63,3.35,3.35,0,0,1-.46-1.16,8,8,0,0,1-.17-1.77v-1.3a7.88,7.88,0,0,1,.17-1.76,3.16,3.16,0,0,1,.46-1.14,1.69,1.69,0,0,1,.72-.62,2.4,2.4,0,0,1,1.87,0,1.59,1.59,0,0,1,.72.62,3.35,3.35,0,0,1,.47,1.14,7.94,7.94,0,0,1,.16,1.76Zm-1-1.48a7.31,7.31,0,0,0-.08-1.23,2.66,2.66,0,0,0-.24-.82,1,1,0,0,0-.39-.45,1.09,1.09,0,0,0-.54-.14,1,1,0,0,0-.53.14,1.17,1.17,0,0,0-.39.45,3.36,3.36,0,0,0-.24.82,7.2,7.2,0,0,0-.09,1.23V363a7.28,7.28,0,0,0,.09,1.23,3.55,3.55,0,0,0,.24.84,1.15,1.15,0,0,0,.4.48,1,1,0,0,0,.53.15,1,1,0,0,0,.54-.15,1.06,1.06,0,0,0,.39-.48,3.13,3.13,0,0,0,.24-.84,8.79,8.79,0,0,0,.07-1.23Z"/><path class="cls-3" d="M54.24,160.94h-1v-7.22l-1.79.8v-1l2.67-1.17h.16Z"/><path class="cls-3" d="M61.64,157.3a8.77,8.77,0,0,1-.16,1.77,3.47,3.47,0,0,1-.46,1.16,1.82,1.82,0,0,1-.72.64,2.42,2.42,0,0,1-1.88,0,1.82,1.82,0,0,1-.72-.64,3.46,3.46,0,0,1-.47-1.16,8.1,8.1,0,0,1-.16-1.77V156a8,8,0,0,1,.16-1.76,3.35,3.35,0,0,1,.46-1.14,1.77,1.77,0,0,1,.72-.62,2.35,2.35,0,0,1,.94-.19,2.39,2.39,0,0,1,.94.19,1.77,1.77,0,0,1,.72.62,3.35,3.35,0,0,1,.46,1.14,7.94,7.94,0,0,1,.17,1.76Zm-1-1.48a8.29,8.29,0,0,0-.08-1.22,3.23,3.23,0,0,0-.24-.82,1.21,1.21,0,0,0-.39-.46,1.09,1.09,0,0,0-.54-.14,1,1,0,0,0-.53.14,1.06,1.06,0,0,0-.39.46,2.85,2.85,0,0,0-.25.82,8.29,8.29,0,0,0-.08,1.22v1.65a8.54,8.54,0,0,0,.08,1.23,3.11,3.11,0,0,0,.25.84,1.21,1.21,0,0,0,.39.48,1,1,0,0,0,1.08,0,1.21,1.21,0,0,0,.39-.48,3.15,3.15,0,0,0,.23-.84,8.54,8.54,0,0,0,.08-1.23Z"/><path class="cls-3" d="M67.56,157.3a8.1,8.1,0,0,1-.16,1.77,3.47,3.47,0,0,1-.46,1.16,1.73,1.73,0,0,1-.71.64,2.45,2.45,0,0,1-1.89,0,1.82,1.82,0,0,1-.72-.64,3.46,3.46,0,0,1-.47-1.16A8.77,8.77,0,0,1,63,157.3V156a8.66,8.66,0,0,1,.16-1.76,3.35,3.35,0,0,1,.47-1.14,1.77,1.77,0,0,1,.72-.62,2.3,2.3,0,0,1,.93-.19,2.35,2.35,0,0,1,.94.19,1.77,1.77,0,0,1,.72.62,3.35,3.35,0,0,1,.47,1.14,8,8,0,0,1,.16,1.76Zm-1-1.48a7.11,7.11,0,0,0-.08-1.22,2.58,2.58,0,0,0-.24-.82,1.06,1.06,0,0,0-.39-.46,1.09,1.09,0,0,0-.54-.14,1,1,0,0,0-.53.14,1.21,1.21,0,0,0-.39.46,2.58,2.58,0,0,0-.24.82,7,7,0,0,0-.09,1.22v1.65a7.2,7.2,0,0,0,.09,1.23,3.13,3.13,0,0,0,.24.84,1.15,1.15,0,0,0,.4.48.94.94,0,0,0,.53.15,1,1,0,0,0,.54-.15,1.06,1.06,0,0,0,.39-.48,3.15,3.15,0,0,0,.23-.84,7.31,7.31,0,0,0,.08-1.23Z"/><path class="cls-3" d="M73.48,157.3a8.1,8.1,0,0,1-.16,1.77,3.47,3.47,0,0,1-.45,1.16,1.82,1.82,0,0,1-.72.64,2.39,2.39,0,0,1-.94.19,2.35,2.35,0,0,1-.94-.19,1.92,1.92,0,0,1-.73-.64,3.47,3.47,0,0,1-.46-1.16,8,8,0,0,1-.17-1.77V156a7.94,7.94,0,0,1,.17-1.76,3.35,3.35,0,0,1,.46-1.14,1.77,1.77,0,0,1,.72-.62,2.34,2.34,0,0,1,.93-.19,2.4,2.4,0,0,1,1,.19,1.77,1.77,0,0,1,.72.62,3.35,3.35,0,0,1,.46,1.14,8,8,0,0,1,.16,1.76Zm-1-1.48a8.29,8.29,0,0,0-.08-1.22,3.23,3.23,0,0,0-.24-.82,1.14,1.14,0,0,0-.4-.46,1,1,0,0,0-.54-.14,1,1,0,0,0-.53.14,1.21,1.21,0,0,0-.39.46,3.23,3.23,0,0,0-.24.82,7.11,7.11,0,0,0-.08,1.22v1.65A7.31,7.31,0,0,0,70,158.7a3.11,3.11,0,0,0,.25.84,1.13,1.13,0,0,0,.39.48,1,1,0,0,0,.54.15.94.94,0,0,0,.53-.15,1.06,1.06,0,0,0,.39-.48,2.8,2.8,0,0,0,.24-.84,8.54,8.54,0,0,0,.08-1.23Z"/><path class="cls-3" d="M77.94,160.94h-1v-7.22l-1.79.8v-1l2.67-1.17h.17Z"/><path class="cls-3" d="M85.33,157.3a8.1,8.1,0,0,1-.16,1.77,3.47,3.47,0,0,1-.46,1.16,1.73,1.73,0,0,1-.71.64,2.4,2.4,0,0,1-1,.19,2.34,2.34,0,0,1-.93-.19,1.78,1.78,0,0,1-.73-.64,3.47,3.47,0,0,1-.46-1.16,8,8,0,0,1-.17-1.77V156a7.94,7.94,0,0,1,.17-1.76,3.35,3.35,0,0,1,.46-1.14,1.77,1.77,0,0,1,.72-.62,2.4,2.4,0,0,1,1.87,0,1.73,1.73,0,0,1,.73.62,3.56,3.56,0,0,1,.46,1.14,8,8,0,0,1,.16,1.76Zm-1-1.48a7,7,0,0,0-.09-1.22,2.58,2.58,0,0,0-.24-.82,1.06,1.06,0,0,0-.39-.46,1.09,1.09,0,0,0-.54-.14,1,1,0,0,0-.53.14,1.21,1.21,0,0,0-.39.46,2.87,2.87,0,0,0-.24.82,7,7,0,0,0-.09,1.22v1.65a7.2,7.2,0,0,0,.09,1.23,3.13,3.13,0,0,0,.24.84,1.15,1.15,0,0,0,.4.48,1,1,0,0,0,.53.15,1,1,0,0,0,.54-.15,1.06,1.06,0,0,0,.39-.48,3.13,3.13,0,0,0,.24-.84,8.54,8.54,0,0,0,.08-1.23Z"/><path class="cls-3" d="M89.79,160.94H88.74v-7.22l-1.79.8v-1l2.67-1.17h.17Z"/><path class="cls-3" d="M97.18,157.3a8.1,8.1,0,0,1-.16,1.77,3.47,3.47,0,0,1-.46,1.16,1.76,1.76,0,0,1-.72.64,2.35,2.35,0,0,1-.94.19,2.39,2.39,0,0,1-.94-.19,1.82,1.82,0,0,1-.72-.64,3.46,3.46,0,0,1-.47-1.16,8.1,8.1,0,0,1-.16-1.77V156a8,8,0,0,1,.16-1.76,3.35,3.35,0,0,1,.47-1.14,1.81,1.81,0,0,1,.71-.62,2.39,2.39,0,0,1,.94-.19,2.35,2.35,0,0,1,.94.19,1.77,1.77,0,0,1,.72.62,3.35,3.35,0,0,1,.47,1.14,8,8,0,0,1,.16,1.76Zm-1-1.48a7.11,7.11,0,0,0-.08-1.22,2.58,2.58,0,0,0-.24-.82,1.13,1.13,0,0,0-.39-.46,1.09,1.09,0,0,0-.54-.14,1,1,0,0,0-.53.14,1.06,1.06,0,0,0-.39.46,2.58,2.58,0,0,0-.24.82,7,7,0,0,0-.09,1.22v1.65a7.2,7.2,0,0,0,.09,1.23,2.8,2.8,0,0,0,.24.84,1.15,1.15,0,0,0,.4.48.94.94,0,0,0,.53.15,1,1,0,0,0,.54-.15,1.06,1.06,0,0,0,.39-.48,3.15,3.15,0,0,0,.23-.84,7.31,7.31,0,0,0,.08-1.23Z"/><path class="cls-3" d="M103.1,157.3a8.1,8.1,0,0,1-.16,1.77,3.47,3.47,0,0,1-.45,1.16,1.82,1.82,0,0,1-.72.64,2.4,2.4,0,0,1-1,.19,2.34,2.34,0,0,1-.93-.19,1.85,1.85,0,0,1-.73-.64,3.47,3.47,0,0,1-.46-1.16,8,8,0,0,1-.17-1.77V156a7.94,7.94,0,0,1,.17-1.76,3.35,3.35,0,0,1,.46-1.14,1.77,1.77,0,0,1,.72-.62,2.34,2.34,0,0,1,.93-.19,2.4,2.4,0,0,1,1,.19,1.77,1.77,0,0,1,.72.62,3.35,3.35,0,0,1,.46,1.14,8,8,0,0,1,.16,1.76Zm-1-1.48a7,7,0,0,0-.09-1.22,2.58,2.58,0,0,0-.24-.82,1.06,1.06,0,0,0-.39-.46,1,1,0,0,0-.54-.14,1,1,0,0,0-.53.14,1.21,1.21,0,0,0-.39.46,3.23,3.23,0,0,0-.24.82,7,7,0,0,0-.09,1.22v1.65a7.2,7.2,0,0,0,.09,1.23,3.11,3.11,0,0,0,.25.84,1.13,1.13,0,0,0,.39.48,1,1,0,0,0,.53.15,1,1,0,0,0,.54-.15,1.06,1.06,0,0,0,.39-.48,3.13,3.13,0,0,0,.24-.84,8.54,8.54,0,0,0,.08-1.23Z"/><path class="cls-3" d="M109,157.3a8.77,8.77,0,0,1-.16,1.77,3.47,3.47,0,0,1-.46,1.16,1.82,1.82,0,0,1-.72.64,2.42,2.42,0,0,1-1.88,0,1.82,1.82,0,0,1-.72-.64,3.46,3.46,0,0,1-.47-1.16,8.1,8.1,0,0,1-.16-1.77V156a8,8,0,0,1,.16-1.76,3.56,3.56,0,0,1,.46-1.14,1.77,1.77,0,0,1,.72-.62,2.35,2.35,0,0,1,.94-.19,2.39,2.39,0,0,1,.94.19,1.77,1.77,0,0,1,.72.62,3.35,3.35,0,0,1,.46,1.14A7.94,7.94,0,0,1,109,156Zm-1-1.48a8.29,8.29,0,0,0-.08-1.22,3.23,3.23,0,0,0-.24-.82,1.21,1.21,0,0,0-.39-.46,1.09,1.09,0,0,0-.54-.14,1,1,0,0,0-.53.14,1.06,1.06,0,0,0-.39.46,2.85,2.85,0,0,0-.25.82,8.29,8.29,0,0,0-.08,1.22v1.65a8.54,8.54,0,0,0,.08,1.23,3.11,3.11,0,0,0,.25.84,1.15,1.15,0,0,0,.4.48.94.94,0,0,0,.53.15,1,1,0,0,0,.54-.15,1.21,1.21,0,0,0,.39-.48,3.15,3.15,0,0,0,.23-.84,8.54,8.54,0,0,0,.08-1.23Z"/><path class="cls-3" d="M113.48,160.94h-1v-7.22l-1.8.8v-1l2.68-1.17h.16Z"/><path class="cls-3" d="M120.88,157.3a8,8,0,0,1-.17,1.77,3.47,3.47,0,0,1-.45,1.16,1.82,1.82,0,0,1-.72.64,2.39,2.39,0,0,1-.94.19,2.35,2.35,0,0,1-.94-.19,1.92,1.92,0,0,1-.73-.64,3.47,3.47,0,0,1-.46-1.16,8.1,8.1,0,0,1-.16-1.77V156a8,8,0,0,1,.16-1.76,3.35,3.35,0,0,1,.46-1.14,1.77,1.77,0,0,1,.72-.62,2.34,2.34,0,0,1,.93-.19,2.4,2.4,0,0,1,1,.19,1.77,1.77,0,0,1,.72.62,3.35,3.35,0,0,1,.46,1.14,7.94,7.94,0,0,1,.17,1.76Zm-1-1.48a8.29,8.29,0,0,0-.08-1.22,3.23,3.23,0,0,0-.24-.82,1.14,1.14,0,0,0-.4-.46,1,1,0,0,0-.54-.14,1.08,1.08,0,0,0-.53.14,1.21,1.21,0,0,0-.39.46,3.23,3.23,0,0,0-.24.82,7.11,7.11,0,0,0-.08,1.22v1.65a7.31,7.31,0,0,0,.08,1.23,3.11,3.11,0,0,0,.25.84,1.13,1.13,0,0,0,.39.48,1,1,0,0,0,1.08,0,1.11,1.11,0,0,0,.38-.48,2.8,2.8,0,0,0,.24-.84,8.54,8.54,0,0,0,.08-1.23Z"/><path class="cls-3" d="M245.55,427.34h-1v-7.22l-1.79.8v-1l2.67-1.17h.16Z"/><path class="cls-3" d="M253,423.71a8.74,8.74,0,0,1-.16,1.76,3.38,3.38,0,0,1-.46,1.16,1.75,1.75,0,0,1-.72.64,2.42,2.42,0,0,1-1.88,0,1.75,1.75,0,0,1-.72-.64,3.38,3.38,0,0,1-.47-1.16,8.06,8.06,0,0,1-.16-1.76V422.4a7.91,7.91,0,0,1,.16-1.75,3.53,3.53,0,0,1,.46-1.15,1.84,1.84,0,0,1,.72-.62,2.35,2.35,0,0,1,.94-.18,2.39,2.39,0,0,1,.94.18,1.84,1.84,0,0,1,.72.62,3.32,3.32,0,0,1,.46,1.15,7.84,7.84,0,0,1,.17,1.75Zm-1-1.49a8.29,8.29,0,0,0-.08-1.22,3.23,3.23,0,0,0-.24-.82,1.1,1.1,0,0,0-.39-.45,1,1,0,0,0-.54-.14.93.93,0,0,0-.53.14,1,1,0,0,0-.39.45,2.85,2.85,0,0,0-.25.82,8.29,8.29,0,0,0-.08,1.22v1.66a8.49,8.49,0,0,0,.08,1.22,3,3,0,0,0,.25.84,1.15,1.15,0,0,0,.4.48.88.88,0,0,0,.53.16.93.93,0,0,0,.54-.16,1.21,1.21,0,0,0,.39-.48,3,3,0,0,0,.23-.84,8.49,8.49,0,0,0,.08-1.22Z"/><path class="cls-3" d="M258.87,423.71a8.06,8.06,0,0,1-.16,1.76,3.38,3.38,0,0,1-.46,1.16,1.67,1.67,0,0,1-.71.64,2.45,2.45,0,0,1-1.89,0,1.75,1.75,0,0,1-.72-.64,3.19,3.19,0,0,1-.46-1.16,8,8,0,0,1-.17-1.76V422.4a7.84,7.84,0,0,1,.17-1.75,3.14,3.14,0,0,1,.46-1.15,1.84,1.84,0,0,1,.72-.62,2.52,2.52,0,0,1,1.87,0,1.72,1.72,0,0,1,.72.62,3.32,3.32,0,0,1,.47,1.15,7.91,7.91,0,0,1,.16,1.75Zm-1-1.49a7.11,7.11,0,0,0-.08-1.22,2.58,2.58,0,0,0-.24-.82,1,1,0,0,0-.39-.45,1,1,0,0,0-.54-.14.93.93,0,0,0-.53.14,1.1,1.1,0,0,0-.39.45,2.87,2.87,0,0,0-.24.82,7,7,0,0,0-.09,1.22v1.66a7.16,7.16,0,0,0,.09,1.22,3,3,0,0,0,.24.84,1.15,1.15,0,0,0,.4.48.9.9,0,0,0,.53.16.89.89,0,0,0,.54-.16,1.06,1.06,0,0,0,.39-.48,3.41,3.41,0,0,0,.24-.84,8.64,8.64,0,0,0,.07-1.22Z"/><path class="cls-3" d="M264.79,423.71a8.06,8.06,0,0,1-.16,1.76,3.38,3.38,0,0,1-.45,1.16,1.75,1.75,0,0,1-.72.64,2.23,2.23,0,0,1-.94.19,2.19,2.19,0,0,1-.94-.19,1.83,1.83,0,0,1-.73-.64,3.38,3.38,0,0,1-.46-1.16,8.06,8.06,0,0,1-.16-1.76V422.4a7.91,7.91,0,0,1,.16-1.75,3.32,3.32,0,0,1,.46-1.15,1.84,1.84,0,0,1,.72-.62,2.34,2.34,0,0,1,.93-.18,2.4,2.4,0,0,1,.95.18,1.84,1.84,0,0,1,.72.62,3.32,3.32,0,0,1,.46,1.15,7.91,7.91,0,0,1,.16,1.75Zm-1-1.49a8.29,8.29,0,0,0-.08-1.22,3.23,3.23,0,0,0-.24-.82,1,1,0,0,0-.4-.45,1,1,0,0,0-.54-.14,1,1,0,0,0-.53.14,1.1,1.1,0,0,0-.39.45,3.23,3.23,0,0,0-.24.82,7.11,7.11,0,0,0-.08,1.22v1.66a7.26,7.26,0,0,0,.08,1.22,3,3,0,0,0,.25.84,1.13,1.13,0,0,0,.39.48,1,1,0,0,0,1.08,0,1.11,1.11,0,0,0,.38-.48,2.72,2.72,0,0,0,.24-.84,8.49,8.49,0,0,0,.08-1.22Z"/><path class="cls-3" d="M269.25,427.34H268.2v-7.22l-1.79.8v-1l2.67-1.17h.17Z"/><path class="cls-3" d="M276.64,423.71a8.06,8.06,0,0,1-.16,1.76,3.6,3.6,0,0,1-.45,1.16,1.75,1.75,0,0,1-.72.64,2.24,2.24,0,0,1-.95.19,2.18,2.18,0,0,1-.93-.19,1.71,1.71,0,0,1-.73-.64,3.38,3.38,0,0,1-.46-1.16,8,8,0,0,1-.17-1.76V422.4a7.84,7.84,0,0,1,.17-1.75,3.32,3.32,0,0,1,.46-1.15,1.84,1.84,0,0,1,.72-.62,2.52,2.52,0,0,1,1.87,0,1.8,1.8,0,0,1,.73.62,3.53,3.53,0,0,1,.46,1.15,7.91,7.91,0,0,1,.16,1.75Zm-1-1.49a7,7,0,0,0-.09-1.22,2.58,2.58,0,0,0-.24-.82,1,1,0,0,0-.39-.45,1,1,0,0,0-.54-.14,1,1,0,0,0-.53.14,1.1,1.1,0,0,0-.39.45,3.23,3.23,0,0,0-.24.82,7,7,0,0,0-.09,1.22v1.66a7.16,7.16,0,0,0,.09,1.22,3,3,0,0,0,.25.84,1.06,1.06,0,0,0,.39.48.9.9,0,0,0,.53.16.89.89,0,0,0,.54-.16,1.06,1.06,0,0,0,.39-.48,3,3,0,0,0,.24-.84,8.49,8.49,0,0,0,.08-1.22Z"/><path class="cls-3" d="M281.1,427.34h-1.05v-7.22l-1.79.8v-1l2.67-1.17h.17Z"/><path class="cls-3" d="M288.49,423.71a8.06,8.06,0,0,1-.16,1.76,3.38,3.38,0,0,1-.46,1.16,1.63,1.63,0,0,1-.72.64,2.19,2.19,0,0,1-.94.19,2.23,2.23,0,0,1-.94-.19,1.75,1.75,0,0,1-.72-.64,3.38,3.38,0,0,1-.47-1.16,8.06,8.06,0,0,1-.16-1.76V422.4a7.91,7.91,0,0,1,.16-1.75,3.32,3.32,0,0,1,.47-1.15,1.84,1.84,0,0,1,.72-.62,2.3,2.3,0,0,1,.93-.18,2.35,2.35,0,0,1,.94.18,1.84,1.84,0,0,1,.72.62,3.32,3.32,0,0,1,.47,1.15,7.91,7.91,0,0,1,.16,1.75Zm-1-1.49a7.11,7.11,0,0,0-.08-1.22,2.58,2.58,0,0,0-.24-.82,1,1,0,0,0-.39-.45,1,1,0,0,0-.54-.14.93.93,0,0,0-.53.14,1,1,0,0,0-.39.45,2.58,2.58,0,0,0-.24.82,7,7,0,0,0-.09,1.22v1.66a7.16,7.16,0,0,0,.09,1.22,3,3,0,0,0,.24.84,1.15,1.15,0,0,0,.4.48.88.88,0,0,0,.53.16.93.93,0,0,0,.54-.16,1.06,1.06,0,0,0,.39-.48,3,3,0,0,0,.23-.84,7.26,7.26,0,0,0,.08-1.22Z"/><path class="cls-3" d="M294.41,423.71a8.06,8.06,0,0,1-.16,1.76,3.38,3.38,0,0,1-.45,1.16,1.75,1.75,0,0,1-.72.64,2.24,2.24,0,0,1-.95.19,2.18,2.18,0,0,1-.93-.19,1.83,1.83,0,0,1-.73-.64,3.38,3.38,0,0,1-.46-1.16,8,8,0,0,1-.17-1.76V422.4a7.84,7.84,0,0,1,.17-1.75,3.32,3.32,0,0,1,.46-1.15,1.84,1.84,0,0,1,.72-.62,2.34,2.34,0,0,1,.93-.18,2.4,2.4,0,0,1,.95.18,1.84,1.84,0,0,1,.72.62,3.32,3.32,0,0,1,.46,1.15,7.91,7.91,0,0,1,.16,1.75Zm-1-1.49a7,7,0,0,0-.09-1.22,2.58,2.58,0,0,0-.24-.82,1,1,0,0,0-.39-.45,1,1,0,0,0-.54-.14,1,1,0,0,0-.53.14,1.1,1.1,0,0,0-.39.45,3.23,3.23,0,0,0-.24.82,7,7,0,0,0-.09,1.22v1.66a7.16,7.16,0,0,0,.09,1.22,3,3,0,0,0,.25.84,1.13,1.13,0,0,0,.39.48.92.92,0,0,0,.53.16.89.89,0,0,0,.54-.16,1.06,1.06,0,0,0,.39-.48,2.72,2.72,0,0,0,.24-.84,8.49,8.49,0,0,0,.08-1.22Z"/><path class="cls-3" d="M300.34,423.71a8.06,8.06,0,0,1-.16,1.76,3.38,3.38,0,0,1-.46,1.16,1.75,1.75,0,0,1-.72.64,2.42,2.42,0,0,1-1.88,0,1.75,1.75,0,0,1-.72-.64,3.38,3.38,0,0,1-.47-1.16,8.06,8.06,0,0,1-.16-1.76V422.4a7.91,7.91,0,0,1,.16-1.75,3.53,3.53,0,0,1,.46-1.15,1.84,1.84,0,0,1,.72-.62,2.35,2.35,0,0,1,.94-.18,2.39,2.39,0,0,1,.94.18,1.84,1.84,0,0,1,.72.62,3.32,3.32,0,0,1,.46,1.15,7.84,7.84,0,0,1,.17,1.75Zm-1-1.49a8.29,8.29,0,0,0-.08-1.22,3.23,3.23,0,0,0-.24-.82,1.1,1.1,0,0,0-.39-.45,1,1,0,0,0-.54-.14.93.93,0,0,0-.53.14,1,1,0,0,0-.39.45,2.85,2.85,0,0,0-.25.82,8.29,8.29,0,0,0-.08,1.22v1.66a8.49,8.49,0,0,0,.08,1.22,3,3,0,0,0,.25.84,1.15,1.15,0,0,0,.4.48.88.88,0,0,0,.53.16.93.93,0,0,0,.54-.16,1.21,1.21,0,0,0,.39-.48,3,3,0,0,0,.23-.84,7.26,7.26,0,0,0,.08-1.22Z"/><path class="cls-3" d="M304.79,427.34h-1v-7.22l-1.8.8v-1l2.68-1.17h.16Z"/><path class="cls-3" d="M312.19,423.71a8.74,8.74,0,0,1-.16,1.76,3.38,3.38,0,0,1-.46,1.16,1.75,1.75,0,0,1-.72.64,2.23,2.23,0,0,1-.94.19,2.19,2.19,0,0,1-.94-.19,1.75,1.75,0,0,1-.72-.64,3.19,3.19,0,0,1-.47-1.16,8.06,8.06,0,0,1-.16-1.76V422.4a7.91,7.91,0,0,1,.16-1.75,3.32,3.32,0,0,1,.46-1.15,1.84,1.84,0,0,1,.72-.62,2.34,2.34,0,0,1,.93-.18,2.4,2.4,0,0,1,.95.18,1.84,1.84,0,0,1,.72.62,3.32,3.32,0,0,1,.46,1.15,7.84,7.84,0,0,1,.17,1.75Zm-1-1.49a8.29,8.29,0,0,0-.08-1.22,3.23,3.23,0,0,0-.24-.82,1,1,0,0,0-.4-.45,1,1,0,0,0-.54-.14.92.92,0,0,0-.52.14,1,1,0,0,0-.4.45,3.23,3.23,0,0,0-.24.82,8.29,8.29,0,0,0-.08,1.22v1.66a8.49,8.49,0,0,0,.08,1.22,3,3,0,0,0,.25.84,1.21,1.21,0,0,0,.39.48,1,1,0,0,0,1.08,0,1.21,1.21,0,0,0,.39-.48,3,3,0,0,0,.23-.84,8.49,8.49,0,0,0,.08-1.22Z"/><path class="cls-3" d="M390,127.81h-1v-7.22l-1.8.8v-1l2.68-1.17H390Z"/><path class="cls-3" d="M397.39,124.17a8.1,8.1,0,0,1-.16,1.77,3.38,3.38,0,0,1-.45,1.16,1.75,1.75,0,0,1-.72.64,2.23,2.23,0,0,1-.94.19,2.19,2.19,0,0,1-.94-.19,1.83,1.83,0,0,1-.73-.64,3.38,3.38,0,0,1-.46-1.16,8,8,0,0,1-.17-1.77v-1.3a7.78,7.78,0,0,1,.17-1.75,3.32,3.32,0,0,1,.46-1.15,1.77,1.77,0,0,1,.72-.62,2.34,2.34,0,0,1,.93-.19,2.4,2.4,0,0,1,.95.19,1.77,1.77,0,0,1,.72.62,3.32,3.32,0,0,1,.46,1.15,7.84,7.84,0,0,1,.16,1.75Zm-1-1.48a8.29,8.29,0,0,0-.08-1.22,3.23,3.23,0,0,0-.24-.82,1,1,0,0,0-.4-.45,1,1,0,0,0-.54-.14,1,1,0,0,0-.53.14,1.1,1.1,0,0,0-.39.45,3.23,3.23,0,0,0-.24.82,7.11,7.11,0,0,0-.08,1.22v1.65a7.31,7.31,0,0,0,.08,1.23,3.11,3.11,0,0,0,.25.84,1.13,1.13,0,0,0,.39.48,1,1,0,0,0,.54.16,1,1,0,0,0,.53-.16,1.06,1.06,0,0,0,.39-.48,2.8,2.8,0,0,0,.24-.84,8.54,8.54,0,0,0,.08-1.23Z"/><path class="cls-3" d="M403.32,124.17a8.1,8.1,0,0,1-.16,1.77,3.38,3.38,0,0,1-.46,1.16,1.75,1.75,0,0,1-.72.64,2.19,2.19,0,0,1-.94.19,2.23,2.23,0,0,1-.94-.19,1.75,1.75,0,0,1-.72-.64,3.38,3.38,0,0,1-.47-1.16,8.1,8.1,0,0,1-.16-1.77v-1.3a7.84,7.84,0,0,1,.16-1.75,3.53,3.53,0,0,1,.46-1.15,1.77,1.77,0,0,1,.72-.62,2.35,2.35,0,0,1,.94-.19,2.39,2.39,0,0,1,.94.19,1.77,1.77,0,0,1,.72.62,3.32,3.32,0,0,1,.46,1.15,7.78,7.78,0,0,1,.17,1.75Zm-1-1.48a8.29,8.29,0,0,0-.08-1.22,3.23,3.23,0,0,0-.24-.82,1.1,1.1,0,0,0-.39-.45,1,1,0,0,0-.54-.14.93.93,0,0,0-.53.14,1,1,0,0,0-.39.45,2.58,2.58,0,0,0-.24.82,7,7,0,0,0-.09,1.22v1.65a7.2,7.2,0,0,0,.09,1.23,2.8,2.8,0,0,0,.24.84,1.15,1.15,0,0,0,.4.48,1,1,0,0,0,.53.16,1,1,0,0,0,.54-.16,1.13,1.13,0,0,0,.39-.48,3.15,3.15,0,0,0,.23-.84,7.31,7.31,0,0,0,.08-1.23Z"/><path class="cls-3" d="M409.24,124.17a8.1,8.1,0,0,1-.16,1.77,3.38,3.38,0,0,1-.46,1.16,1.67,1.67,0,0,1-.71.64,2.27,2.27,0,0,1-1,.19,2.18,2.18,0,0,1-.93-.19,1.71,1.71,0,0,1-.73-.64,3.38,3.38,0,0,1-.46-1.16,8,8,0,0,1-.17-1.77v-1.3a7.78,7.78,0,0,1,.17-1.75,3.32,3.32,0,0,1,.46-1.15,1.77,1.77,0,0,1,.72-.62,2.4,2.4,0,0,1,1.87,0,1.73,1.73,0,0,1,.73.62,3.53,3.53,0,0,1,.46,1.15,7.84,7.84,0,0,1,.16,1.75Zm-1-1.48a7.11,7.11,0,0,0-.08-1.22,2.58,2.58,0,0,0-.24-.82,1,1,0,0,0-.39-.45,1,1,0,0,0-.54-.14,1,1,0,0,0-.53.14,1.1,1.1,0,0,0-.39.45,3.23,3.23,0,0,0-.24.82,7,7,0,0,0-.09,1.22v1.65a7.2,7.2,0,0,0,.09,1.23,3.11,3.11,0,0,0,.25.84,1.06,1.06,0,0,0,.39.48,1,1,0,0,0,.53.16,1,1,0,0,0,.54-.16,1.06,1.06,0,0,0,.39-.48,3.13,3.13,0,0,0,.24-.84,8.69,8.69,0,0,0,.07-1.23Z"/><path class="cls-3" d="M413.7,127.81h-1.05v-7.22l-1.79.8v-1l2.67-1.17h.17Z"/><path class="cls-3" d="M421.09,124.17a8.1,8.1,0,0,1-.16,1.77,3.38,3.38,0,0,1-.46,1.16,1.63,1.63,0,0,1-.72.64,2.19,2.19,0,0,1-.94.19,2.23,2.23,0,0,1-.94-.19,1.75,1.75,0,0,1-.72-.64,3.38,3.38,0,0,1-.47-1.16,8.1,8.1,0,0,1-.16-1.77v-1.3a7.84,7.84,0,0,1,.16-1.75,3.32,3.32,0,0,1,.47-1.15,1.77,1.77,0,0,1,.72-.62,2.27,2.27,0,0,1,.93-.19,2.35,2.35,0,0,1,.94.19,1.77,1.77,0,0,1,.72.62,3.32,3.32,0,0,1,.47,1.15,7.84,7.84,0,0,1,.16,1.75Zm-1-1.48a7.11,7.11,0,0,0-.08-1.22,2.58,2.58,0,0,0-.24-.82,1.1,1.1,0,0,0-.39-.45,1,1,0,0,0-.54-.14.93.93,0,0,0-.53.14,1,1,0,0,0-.39.45,2.58,2.58,0,0,0-.24.82,7,7,0,0,0-.09,1.22v1.65a7.2,7.2,0,0,0,.09,1.23,3.13,3.13,0,0,0,.24.84,1.15,1.15,0,0,0,.4.48,1,1,0,0,0,.53.16,1,1,0,0,0,.54-.16,1.06,1.06,0,0,0,.39-.48,3.15,3.15,0,0,0,.23-.84,7.31,7.31,0,0,0,.08-1.23Z"/><path class="cls-3" d="M425.54,127.81h-1v-7.22l-1.79.8v-1l2.67-1.17h.16Z"/><path class="cls-3" d="M432.94,124.17a8.77,8.77,0,0,1-.16,1.77,3.38,3.38,0,0,1-.46,1.16,1.75,1.75,0,0,1-.72.64,2.42,2.42,0,0,1-1.88,0,1.75,1.75,0,0,1-.72-.64,3.38,3.38,0,0,1-.47-1.16,8.1,8.1,0,0,1-.16-1.77v-1.3a7.84,7.84,0,0,1,.16-1.75A3.32,3.32,0,0,1,429,120a1.77,1.77,0,0,1,.72-.62,2.35,2.35,0,0,1,.94-.19,2.39,2.39,0,0,1,.94.19,1.77,1.77,0,0,1,.72.62,3.32,3.32,0,0,1,.46,1.15,7.78,7.78,0,0,1,.17,1.75Zm-1-1.48a8.29,8.29,0,0,0-.08-1.22,3.23,3.23,0,0,0-.24-.82,1.1,1.1,0,0,0-.39-.45,1,1,0,0,0-.54-.14.93.93,0,0,0-.53.14,1,1,0,0,0-.39.45,2.85,2.85,0,0,0-.25.82,8.29,8.29,0,0,0-.08,1.22v1.65a8.54,8.54,0,0,0,.08,1.23,3.11,3.11,0,0,0,.25.84,1.21,1.21,0,0,0,.39.48,1,1,0,0,0,1.08,0,1.21,1.21,0,0,0,.39-.48,3.15,3.15,0,0,0,.23-.84,8.54,8.54,0,0,0,.08-1.23Z"/><path class="cls-3" d="M438.86,124.17a8.1,8.1,0,0,1-.16,1.77,3.38,3.38,0,0,1-.46,1.16,1.67,1.67,0,0,1-.71.64,2.45,2.45,0,0,1-1.89,0,1.75,1.75,0,0,1-.72-.64,3.38,3.38,0,0,1-.47-1.16,8.77,8.77,0,0,1-.16-1.77v-1.3a8.49,8.49,0,0,1,.16-1.75,3.32,3.32,0,0,1,.47-1.15,1.77,1.77,0,0,1,.72-.62,2.4,2.4,0,0,1,1.87,0,1.7,1.7,0,0,1,.72.62,3.32,3.32,0,0,1,.47,1.15,7.84,7.84,0,0,1,.16,1.75Zm-1-1.48a7.11,7.11,0,0,0-.08-1.22,2.58,2.58,0,0,0-.24-.82,1,1,0,0,0-.39-.45,1,1,0,0,0-.54-.14,1,1,0,0,0-.53.14,1.1,1.1,0,0,0-.39.45,2.58,2.58,0,0,0-.24.82,7,7,0,0,0-.09,1.22v1.65a7.2,7.2,0,0,0,.09,1.23,3.13,3.13,0,0,0,.24.84,1.15,1.15,0,0,0,.4.48,1,1,0,0,0,.53.16,1,1,0,0,0,.54-.16,1.06,1.06,0,0,0,.39-.48,3.13,3.13,0,0,0,.24-.84,8.69,8.69,0,0,0,.07-1.23Z"/><path class="cls-3" d="M444.79,124.17a8,8,0,0,1-.17,1.77,3.19,3.19,0,0,1-.45,1.16,1.75,1.75,0,0,1-.72.64,2.23,2.23,0,0,1-.94.19,2.19,2.19,0,0,1-.94-.19,1.75,1.75,0,0,1-.72-.64,3.19,3.19,0,0,1-.47-1.16,8,8,0,0,1-.17-1.77v-1.3a7.78,7.78,0,0,1,.17-1.75,3.32,3.32,0,0,1,.46-1.15,1.77,1.77,0,0,1,.72-.62,2.34,2.34,0,0,1,.93-.19,2.4,2.4,0,0,1,.95.19,1.77,1.77,0,0,1,.72.62,3.32,3.32,0,0,1,.46,1.15,7.78,7.78,0,0,1,.17,1.75Zm-1-1.48a8.29,8.29,0,0,0-.08-1.22,3.23,3.23,0,0,0-.24-.82,1,1,0,0,0-.4-.45,1,1,0,0,0-.54-.14,1,1,0,0,0-.53.14,1.1,1.1,0,0,0-.39.45,3.23,3.23,0,0,0-.24.82,8.29,8.29,0,0,0-.08,1.22v1.65a8.54,8.54,0,0,0,.08,1.23,3.11,3.11,0,0,0,.25.84,1.21,1.21,0,0,0,.39.48,1,1,0,0,0,.54.16,1,1,0,0,0,.53-.16,1.15,1.15,0,0,0,.4-.48,3.15,3.15,0,0,0,.23-.84,8.54,8.54,0,0,0,.08-1.23Z"/><path class="cls-3" d="M449.24,127.81h-1v-7.22l-1.8.8v-1l2.67-1.17h.17Z"/><path class="cls-3" d="M456.63,124.17a8.1,8.1,0,0,1-.16,1.77,3.38,3.38,0,0,1-.45,1.16,1.75,1.75,0,0,1-.72.64,2.24,2.24,0,0,1-.95.19,2.18,2.18,0,0,1-.93-.19,1.71,1.71,0,0,1-.73-.64,3.38,3.38,0,0,1-.46-1.16,8,8,0,0,1-.17-1.77v-1.3a7.78,7.78,0,0,1,.17-1.75,3.32,3.32,0,0,1,.46-1.15,1.77,1.77,0,0,1,.72-.62,2.34,2.34,0,0,1,.93-.19,2.44,2.44,0,0,1,1,.19,1.77,1.77,0,0,1,.72.62,3.53,3.53,0,0,1,.46,1.15,7.84,7.84,0,0,1,.16,1.75Zm-1-1.48a7,7,0,0,0-.09-1.22,2.58,2.58,0,0,0-.24-.82,1,1,0,0,0-.39-.45,1,1,0,0,0-.54-.14,1,1,0,0,0-.53.14,1.1,1.1,0,0,0-.39.45,3.23,3.23,0,0,0-.24.82,7,7,0,0,0-.09,1.22v1.65a7.2,7.2,0,0,0,.09,1.23,3.11,3.11,0,0,0,.25.84,1.06,1.06,0,0,0,.39.48,1,1,0,0,0,.53.16,1,1,0,0,0,.54-.16,1.06,1.06,0,0,0,.39-.48,3.13,3.13,0,0,0,.24-.84,8.54,8.54,0,0,0,.08-1.23Z"/><path class="cls-3" d="M10.07,334.68H9v-7.22l-1.8.8v-1l2.68-1.17h.16Z"/><path class="cls-3" d="M17.47,331a8,8,0,0,1-.17,1.77,3.38,3.38,0,0,1-.45,1.16,1.75,1.75,0,0,1-.72.64,2.39,2.39,0,0,1-.94.19,2.35,2.35,0,0,1-.94-.19,1.83,1.83,0,0,1-.73-.64,3.38,3.38,0,0,1-.46-1.16A8.1,8.1,0,0,1,12.9,331v-1.3a8,8,0,0,1,.16-1.76,3.35,3.35,0,0,1,.46-1.14,1.77,1.77,0,0,1,.72-.62,2.34,2.34,0,0,1,.93-.19,2.4,2.4,0,0,1,1,.19,1.77,1.77,0,0,1,.72.62A3.35,3.35,0,0,1,17.3,328a7.94,7.94,0,0,1,.17,1.76Zm-1-1.48a8.29,8.29,0,0,0-.08-1.22,3.23,3.23,0,0,0-.24-.82,1,1,0,0,0-.4-.45,1,1,0,0,0-.54-.15,1,1,0,0,0-.53.15,1.1,1.1,0,0,0-.39.45,3.23,3.23,0,0,0-.24.82,7.11,7.11,0,0,0-.08,1.22v1.65a7.31,7.31,0,0,0,.08,1.23,3.11,3.11,0,0,0,.25.84,1.13,1.13,0,0,0,.39.48,1,1,0,0,0,1.08,0,1.11,1.11,0,0,0,.38-.48,2.8,2.8,0,0,0,.24-.84,8.54,8.54,0,0,0,.08-1.23Z"/><path class="cls-3" d="M23.39,331a8.1,8.1,0,0,1-.16,1.77,3.38,3.38,0,0,1-.46,1.16,1.75,1.75,0,0,1-.72.64,2.35,2.35,0,0,1-.94.19,2.39,2.39,0,0,1-.94-.19,1.75,1.75,0,0,1-.72-.64,3.38,3.38,0,0,1-.47-1.16,8.1,8.1,0,0,1-.16-1.77v-1.3A8,8,0,0,1,19,328a3.35,3.35,0,0,1,.47-1.14,1.74,1.74,0,0,1,.71-.62,2.42,2.42,0,0,1,1.88,0,1.77,1.77,0,0,1,.72.62,3.35,3.35,0,0,1,.47,1.14,8.66,8.66,0,0,1,.16,1.76Zm-1-1.48a8.29,8.29,0,0,0-.08-1.22,2.58,2.58,0,0,0-.24-.82,1.1,1.1,0,0,0-.39-.45,1,1,0,0,0-.54-.15.94.94,0,0,0-.53.15,1,1,0,0,0-.39.45,2.58,2.58,0,0,0-.24.82,7,7,0,0,0-.09,1.22v1.65a7.2,7.2,0,0,0,.09,1.23,2.8,2.8,0,0,0,.24.84,1.15,1.15,0,0,0,.4.48.94.94,0,0,0,.53.15,1,1,0,0,0,.54-.15,1.06,1.06,0,0,0,.39-.48,3.15,3.15,0,0,0,.23-.84,7.31,7.31,0,0,0,.08-1.23Z"/><path class="cls-3" d="M29.31,331a8.1,8.1,0,0,1-.16,1.77,3.38,3.38,0,0,1-.46,1.16,1.67,1.67,0,0,1-.71.64,2.4,2.4,0,0,1-.95.19,2.34,2.34,0,0,1-.93-.19,1.71,1.71,0,0,1-.73-.64,3.38,3.38,0,0,1-.46-1.16,8,8,0,0,1-.17-1.77v-1.3a7.94,7.94,0,0,1,.17-1.76,3.35,3.35,0,0,1,.46-1.14,1.77,1.77,0,0,1,.72-.62A2.34,2.34,0,0,1,27,326a2.44,2.44,0,0,1,.95.19,1.77,1.77,0,0,1,.72.62,3.35,3.35,0,0,1,.46,1.14,8,8,0,0,1,.16,1.76Zm-1-1.48a7,7,0,0,0-.09-1.22,2.58,2.58,0,0,0-.24-.82,1,1,0,0,0-1.46-.45,1.1,1.1,0,0,0-.39.45,3.23,3.23,0,0,0-.24.82,7,7,0,0,0-.09,1.22v1.65a7.2,7.2,0,0,0,.09,1.23,3.55,3.55,0,0,0,.24.84,1.15,1.15,0,0,0,.4.48,1,1,0,0,0,.53.15,1,1,0,0,0,.54-.15,1.06,1.06,0,0,0,.39-.48,3.13,3.13,0,0,0,.24-.84,8.54,8.54,0,0,0,.08-1.23Z"/><path class="cls-3" d="M33.77,334.68H32.72v-7.22l-1.79.8v-1l2.67-1.17h.17Z"/><path class="cls-3" d="M41.16,331a8.1,8.1,0,0,1-.16,1.77,3.38,3.38,0,0,1-.46,1.16,1.63,1.63,0,0,1-.72.64,2.35,2.35,0,0,1-.94.19,2.43,2.43,0,0,1-.94-.19,1.75,1.75,0,0,1-.72-.64,3.38,3.38,0,0,1-.47-1.16,8.77,8.77,0,0,1-.16-1.77v-1.3a8.66,8.66,0,0,1,.16-1.76,3.35,3.35,0,0,1,.47-1.14,1.77,1.77,0,0,1,.72-.62,2.3,2.3,0,0,1,.93-.19,2.35,2.35,0,0,1,.94.19,1.77,1.77,0,0,1,.72.62A3.35,3.35,0,0,1,41,328a8,8,0,0,1,.16,1.76Zm-1-1.48a7.11,7.11,0,0,0-.08-1.22,2.58,2.58,0,0,0-.24-.82,1,1,0,0,0-.39-.45,1,1,0,0,0-.54-.15.94.94,0,0,0-.53.15,1.1,1.1,0,0,0-.39.45,2.58,2.58,0,0,0-.24.82,7,7,0,0,0-.09,1.22v1.65a7.2,7.2,0,0,0,.09,1.23,3.13,3.13,0,0,0,.24.84,1.15,1.15,0,0,0,.4.48.94.94,0,0,0,.53.15,1,1,0,0,0,.54-.15,1.06,1.06,0,0,0,.39-.48,3.15,3.15,0,0,0,.23-.84,7.31,7.31,0,0,0,.08-1.23Z"/><path class="cls-3" d="M45.61,334.68h-1v-7.22l-1.79.8v-1l2.67-1.17h.16Z"/><path class="cls-3" d="M53,331a8.77,8.77,0,0,1-.16,1.77,3.38,3.38,0,0,1-.46,1.16,1.75,1.75,0,0,1-.72.64,2.35,2.35,0,0,1-.94.19,2.39,2.39,0,0,1-.94-.19,1.75,1.75,0,0,1-.72-.64,3.38,3.38,0,0,1-.47-1.16,8.1,8.1,0,0,1-.16-1.77v-1.3A8,8,0,0,1,48.6,328a3.56,3.56,0,0,1,.46-1.14,1.77,1.77,0,0,1,.72-.62,2.35,2.35,0,0,1,.94-.19,2.39,2.39,0,0,1,.94.19,1.77,1.77,0,0,1,.72.62,3.35,3.35,0,0,1,.46,1.14,7.94,7.94,0,0,1,.17,1.76Zm-1-1.48a8.29,8.29,0,0,0-.08-1.22,3.23,3.23,0,0,0-.24-.82,1.1,1.1,0,0,0-.39-.45,1,1,0,0,0-.54-.15.94.94,0,0,0-.53.15,1,1,0,0,0-.39.45,2.85,2.85,0,0,0-.25.82,8.29,8.29,0,0,0-.08,1.22v1.65a8.54,8.54,0,0,0,.08,1.23,3.11,3.11,0,0,0,.25.84,1.15,1.15,0,0,0,.4.48.94.94,0,0,0,.53.15,1,1,0,0,0,.54-.15,1.21,1.21,0,0,0,.39-.48,3.15,3.15,0,0,0,.23-.84,8.54,8.54,0,0,0,.08-1.23Z"/><path class="cls-3" d="M58.93,331a8.1,8.1,0,0,1-.16,1.77,3.38,3.38,0,0,1-.46,1.16,1.67,1.67,0,0,1-.71.64,2.44,2.44,0,0,1-1,.19,2.34,2.34,0,0,1-.93-.19A1.71,1.71,0,0,1,55,334a3.38,3.38,0,0,1-.46-1.16,8,8,0,0,1-.17-1.77v-1.3a7.94,7.94,0,0,1,.17-1.76,3.35,3.35,0,0,1,.46-1.14,1.77,1.77,0,0,1,.72-.62,2.4,2.4,0,0,1,1.87,0,1.73,1.73,0,0,1,.73.62,3.56,3.56,0,0,1,.46,1.14,8,8,0,0,1,.16,1.76Zm-1-1.48a7,7,0,0,0-.09-1.22,2.58,2.58,0,0,0-.24-.82,1,1,0,0,0-.39-.45,1,1,0,0,0-.54-.15,1,1,0,0,0-.53.15,1.1,1.1,0,0,0-.39.45,2.87,2.87,0,0,0-.24.82,7,7,0,0,0-.09,1.22v1.65a7.2,7.2,0,0,0,.09,1.23,3.13,3.13,0,0,0,.24.84,1.15,1.15,0,0,0,.4.48,1,1,0,0,0,.53.15,1,1,0,0,0,.54-.15,1.06,1.06,0,0,0,.39-.48,3.13,3.13,0,0,0,.24-.84,8.54,8.54,0,0,0,.08-1.23Z"/><path class="cls-3" d="M64.86,331a8,8,0,0,1-.17,1.77,3.38,3.38,0,0,1-.45,1.16,1.75,1.75,0,0,1-.72.64,2.39,2.39,0,0,1-.94.19,2.35,2.35,0,0,1-.94-.19,1.75,1.75,0,0,1-.72-.64,3.19,3.19,0,0,1-.47-1.16,8.1,8.1,0,0,1-.16-1.77v-1.3a8,8,0,0,1,.16-1.76,3.35,3.35,0,0,1,.46-1.14,1.77,1.77,0,0,1,.72-.62,2.34,2.34,0,0,1,.93-.19,2.4,2.4,0,0,1,.95.19,1.77,1.77,0,0,1,.72.62,3.35,3.35,0,0,1,.46,1.14,7.94,7.94,0,0,1,.17,1.76Zm-1-1.48a8.29,8.29,0,0,0-.08-1.22,3.23,3.23,0,0,0-.24-.82,1,1,0,0,0-.4-.45,1,1,0,0,0-.54-.15,1,1,0,0,0-.53.15,1,1,0,0,0-.38.45,2.85,2.85,0,0,0-.25.82,8.29,8.29,0,0,0-.08,1.22v1.65a8.54,8.54,0,0,0,.08,1.23,3.11,3.11,0,0,0,.25.84,1.21,1.21,0,0,0,.39.48,1,1,0,0,0,1.08,0,1.21,1.21,0,0,0,.39-.48,3.15,3.15,0,0,0,.23-.84,8.54,8.54,0,0,0,.08-1.23Z"/><path class="cls-3" d="M69.31,334.68h-1v-7.22l-1.8.8v-1l2.67-1.17h.17Z"/><path class="cls-3" d="M76.7,331a8.1,8.1,0,0,1-.16,1.77,3.6,3.6,0,0,1-.45,1.16,1.75,1.75,0,0,1-.72.64,2.4,2.4,0,0,1-1,.19,2.34,2.34,0,0,1-.93-.19,1.77,1.77,0,0,1-.73-.64,3.38,3.38,0,0,1-.46-1.16,8,8,0,0,1-.17-1.77v-1.3A7.94,7.94,0,0,1,72.3,328a3.35,3.35,0,0,1,.46-1.14,1.77,1.77,0,0,1,.72-.62,2.34,2.34,0,0,1,.93-.19,2.44,2.44,0,0,1,1,.19,1.77,1.77,0,0,1,.72.62,3.35,3.35,0,0,1,.46,1.14,8,8,0,0,1,.16,1.76Zm-1-1.48a7,7,0,0,0-.09-1.22,2.58,2.58,0,0,0-.24-.82,1,1,0,0,0-.39-.45,1,1,0,0,0-.54-.15,1,1,0,0,0-.53.15,1.1,1.1,0,0,0-.39.45,3.23,3.23,0,0,0-.24.82,7,7,0,0,0-.09,1.22v1.65a7.2,7.2,0,0,0,.09,1.23,3.11,3.11,0,0,0,.25.84,1.06,1.06,0,0,0,.39.48,1,1,0,0,0,.53.15,1,1,0,0,0,.54-.15,1.06,1.06,0,0,0,.39-.48,3.13,3.13,0,0,0,.24-.84,8.54,8.54,0,0,0,.08-1.23Z"/><path class="cls-3" d="M195,73.76h-1V66.54l-1.79.8v-1l2.67-1.16H195Z"/><path class="cls-3" d="M202.37,70.12a8.1,8.1,0,0,1-.16,1.77,3.47,3.47,0,0,1-.46,1.16,1.61,1.61,0,0,1-.72.63,2.2,2.2,0,0,1-.94.2,2.23,2.23,0,0,1-.94-.2,1.72,1.72,0,0,1-.72-.63,3.46,3.46,0,0,1-.47-1.16,8.1,8.1,0,0,1-.16-1.77v-1.3a8,8,0,0,1,.16-1.76,3.35,3.35,0,0,1,.47-1.14,1.73,1.73,0,0,1,.71-.62,2.23,2.23,0,0,1,.94-.19,2.19,2.19,0,0,1,.94.19,1.69,1.69,0,0,1,.72.62,3.35,3.35,0,0,1,.47,1.14,8,8,0,0,1,.16,1.76Zm-1-1.48a7.11,7.11,0,0,0-.08-1.22,2.58,2.58,0,0,0-.24-.82,1.13,1.13,0,0,0-.39-.46,1.09,1.09,0,0,0-.54-.14,1,1,0,0,0-.53.14,1.13,1.13,0,0,0-.39.46,2.58,2.58,0,0,0-.24.82,7,7,0,0,0-.09,1.22v1.65a7.2,7.2,0,0,0,.09,1.23,3.13,3.13,0,0,0,.24.84,1.15,1.15,0,0,0,.4.48.94.94,0,0,0,.53.15,1,1,0,0,0,.54-.15,1.06,1.06,0,0,0,.39-.48,3.15,3.15,0,0,0,.23-.84,7.31,7.31,0,0,0,.08-1.23Z"/><path class="cls-3" d="M208.29,70.12a8.1,8.1,0,0,1-.16,1.77,3.47,3.47,0,0,1-.45,1.16,1.72,1.72,0,0,1-.72.63,2.23,2.23,0,0,1-.94.2,2.2,2.2,0,0,1-.94-.2,1.81,1.81,0,0,1-.73-.63,3.47,3.47,0,0,1-.46-1.16,8,8,0,0,1-.17-1.77v-1.3a7.94,7.94,0,0,1,.17-1.76,3.35,3.35,0,0,1,.46-1.14,1.69,1.69,0,0,1,.72-.62,2.18,2.18,0,0,1,.93-.19,2.24,2.24,0,0,1,.95.19,1.69,1.69,0,0,1,.72.62,3.35,3.35,0,0,1,.46,1.14,8,8,0,0,1,.16,1.76Zm-1-1.48a8.29,8.29,0,0,0-.08-1.22,2.85,2.85,0,0,0-.25-.82,1.06,1.06,0,0,0-.39-.46A1,1,0,0,0,206,66a1,1,0,0,0-.53.14,1.21,1.21,0,0,0-.39.46,3.23,3.23,0,0,0-.24.82,7.11,7.11,0,0,0-.08,1.22v1.65a7.31,7.31,0,0,0,.08,1.23,3.11,3.11,0,0,0,.25.84,1.13,1.13,0,0,0,.39.48A1,1,0,0,0,206,73a.94.94,0,0,0,.53-.15,1.06,1.06,0,0,0,.39-.48,2.8,2.8,0,0,0,.24-.84,8.54,8.54,0,0,0,.08-1.23Z"/><path class="cls-3" d="M214.22,70.12a8.77,8.77,0,0,1-.16,1.77,3.47,3.47,0,0,1-.46,1.16,1.72,1.72,0,0,1-.72.63,2.2,2.2,0,0,1-.94.2,2.23,2.23,0,0,1-.94-.2,1.72,1.72,0,0,1-.72-.63,3.46,3.46,0,0,1-.47-1.16,8.1,8.1,0,0,1-.16-1.77v-1.3a8,8,0,0,1,.16-1.76,3.56,3.56,0,0,1,.46-1.14,1.69,1.69,0,0,1,.72-.62,2.19,2.19,0,0,1,.94-.19,2.23,2.23,0,0,1,.94.19,1.69,1.69,0,0,1,.72.62,3.35,3.35,0,0,1,.46,1.14,7.94,7.94,0,0,1,.17,1.76Zm-1-1.48a8.29,8.29,0,0,0-.08-1.22,3.23,3.23,0,0,0-.24-.82,1.21,1.21,0,0,0-.39-.46,1.09,1.09,0,0,0-.54-.14,1,1,0,0,0-.53.14,1.06,1.06,0,0,0-.39.46,2.85,2.85,0,0,0-.25.82,8.29,8.29,0,0,0-.08,1.22v1.65a8.54,8.54,0,0,0,.08,1.23,3.11,3.11,0,0,0,.25.84,1.15,1.15,0,0,0,.4.48.94.94,0,0,0,.53.15,1,1,0,0,0,.54-.15,1.21,1.21,0,0,0,.39-.48,3.15,3.15,0,0,0,.23-.84,8.54,8.54,0,0,0,.08-1.23Z"/><path class="cls-3" d="M218.67,73.76h-1V66.54l-1.79.8v-1l2.67-1.16h.16Z"/><path class="cls-3" d="M226.07,70.12a8,8,0,0,1-.17,1.77,3.47,3.47,0,0,1-.45,1.16,1.72,1.72,0,0,1-.72.63,2.23,2.23,0,0,1-.94.2,2.2,2.2,0,0,1-.94-.2,1.72,1.72,0,0,1-.72-.63,3.27,3.27,0,0,1-.47-1.16,8.1,8.1,0,0,1-.16-1.77v-1.3a8,8,0,0,1,.16-1.76,3.35,3.35,0,0,1,.46-1.14,1.69,1.69,0,0,1,.72-.62,2.18,2.18,0,0,1,.93-.19,2.24,2.24,0,0,1,.95.19,1.69,1.69,0,0,1,.72.62,3.35,3.35,0,0,1,.46,1.14,7.94,7.94,0,0,1,.17,1.76Zm-1-1.48a8.29,8.29,0,0,0-.08-1.22,3.23,3.23,0,0,0-.24-.82,1.14,1.14,0,0,0-.4-.46,1,1,0,0,0-.54-.14,1.08,1.08,0,0,0-.53.14,1.21,1.21,0,0,0-.39.46,3.23,3.23,0,0,0-.24.82,8.29,8.29,0,0,0-.08,1.22v1.65a8.54,8.54,0,0,0,.08,1.23,3.11,3.11,0,0,0,.25.84,1.21,1.21,0,0,0,.39.48,1,1,0,0,0,1.08,0,1.21,1.21,0,0,0,.39-.48,3.15,3.15,0,0,0,.23-.84,8.54,8.54,0,0,0,.08-1.23Z"/><path class="cls-3" d="M230.52,73.76h-1V66.54l-1.8.8v-1l2.67-1.16h.17Z"/><path class="cls-3" d="M237.91,70.12a8.1,8.1,0,0,1-.16,1.77,3.69,3.69,0,0,1-.45,1.16,1.72,1.72,0,0,1-.72.63,2.24,2.24,0,0,1-1,.2,2.18,2.18,0,0,1-.93-.2,1.74,1.74,0,0,1-.73-.63,3.47,3.47,0,0,1-.46-1.16,8,8,0,0,1-.17-1.77v-1.3a7.94,7.94,0,0,1,.17-1.76,3.35,3.35,0,0,1,.46-1.14,1.69,1.69,0,0,1,.72-.62,2.18,2.18,0,0,1,.93-.19,2.27,2.27,0,0,1,.95.19,1.69,1.69,0,0,1,.72.62,3.35,3.35,0,0,1,.46,1.14,8,8,0,0,1,.16,1.76Zm-1-1.48a7,7,0,0,0-.09-1.22,2.58,2.58,0,0,0-.24-.82,1.06,1.06,0,0,0-.39-.46,1,1,0,0,0-.54-.14,1,1,0,0,0-.53.14,1.21,1.21,0,0,0-.39.46,3.23,3.23,0,0,0-.24.82,7,7,0,0,0-.09,1.22v1.65a7.2,7.2,0,0,0,.09,1.23,3.11,3.11,0,0,0,.25.84,1.06,1.06,0,0,0,.39.48,1,1,0,0,0,.53.15,1,1,0,0,0,.54-.15,1.06,1.06,0,0,0,.39-.48,3.13,3.13,0,0,0,.24-.84,8.54,8.54,0,0,0,.08-1.23Z"/><path class="cls-3" d="M243.84,70.12a8.77,8.77,0,0,1-.16,1.77,3.47,3.47,0,0,1-.46,1.16,1.72,1.72,0,0,1-.72.63,2.31,2.31,0,0,1-1.88,0,1.72,1.72,0,0,1-.72-.63,3.46,3.46,0,0,1-.47-1.16,8.1,8.1,0,0,1-.16-1.77v-1.3a8,8,0,0,1,.16-1.76,3.35,3.35,0,0,1,.46-1.14,1.69,1.69,0,0,1,.72-.62,2.19,2.19,0,0,1,.94-.19,2.23,2.23,0,0,1,.94.19,1.69,1.69,0,0,1,.72.62,3.35,3.35,0,0,1,.46,1.14,7.94,7.94,0,0,1,.17,1.76Zm-1-1.48a8.29,8.29,0,0,0-.08-1.22,3.23,3.23,0,0,0-.24-.82,1.21,1.21,0,0,0-.39-.46,1.09,1.09,0,0,0-.54-.14,1,1,0,0,0-.53.14,1.06,1.06,0,0,0-.39.46,2.85,2.85,0,0,0-.25.82,8.29,8.29,0,0,0-.08,1.22v1.65a8.54,8.54,0,0,0,.08,1.23,3.11,3.11,0,0,0,.25.84,1.21,1.21,0,0,0,.39.48,1,1,0,0,0,1.08,0,1.21,1.21,0,0,0,.39-.48,3.15,3.15,0,0,0,.23-.84,8.54,8.54,0,0,0,.08-1.23Z"/><path class="cls-3" d="M249.76,70.12a8.1,8.1,0,0,1-.16,1.77,3.47,3.47,0,0,1-.46,1.16,1.64,1.64,0,0,1-.71.63,2.33,2.33,0,0,1-1.89,0,1.72,1.72,0,0,1-.72-.63,3.46,3.46,0,0,1-.47-1.16,8.77,8.77,0,0,1-.16-1.77v-1.3a8.66,8.66,0,0,1,.16-1.76,3.35,3.35,0,0,1,.47-1.14,1.69,1.69,0,0,1,.72-.62,2.15,2.15,0,0,1,.93-.19,2.19,2.19,0,0,1,.94.19,1.69,1.69,0,0,1,.72.62,3.35,3.35,0,0,1,.47,1.14,8,8,0,0,1,.16,1.76Zm-1-1.48a7.11,7.11,0,0,0-.08-1.22,2.58,2.58,0,0,0-.24-.82,1.06,1.06,0,0,0-.39-.46,1.09,1.09,0,0,0-.54-.14,1,1,0,0,0-.53.14,1.21,1.21,0,0,0-.39.46,2.58,2.58,0,0,0-.24.82,7,7,0,0,0-.09,1.22v1.65a7.2,7.2,0,0,0,.09,1.23,3.13,3.13,0,0,0,.24.84,1.15,1.15,0,0,0,.4.48.94.94,0,0,0,.53.15,1,1,0,0,0,.54-.15,1.06,1.06,0,0,0,.39-.48,3.15,3.15,0,0,0,.23-.84,7.31,7.31,0,0,0,.08-1.23Z"/><path class="cls-3" d="M254.21,73.76h-1V66.54l-1.79.8v-1l2.67-1.16h.16Z"/><path class="cls-3" d="M261.61,70.12a8.1,8.1,0,0,1-.16,1.77,3.47,3.47,0,0,1-.46,1.16,1.72,1.72,0,0,1-.72.63,2.2,2.2,0,0,1-.94.2,2.23,2.23,0,0,1-.94-.2,1.72,1.72,0,0,1-.72-.63,3.46,3.46,0,0,1-.47-1.16,8.1,8.1,0,0,1-.16-1.77v-1.3a8,8,0,0,1,.16-1.76,3.35,3.35,0,0,1,.47-1.14,1.61,1.61,0,0,1,.71-.62,2.42,2.42,0,0,1,1.88,0,1.69,1.69,0,0,1,.72.62,3.16,3.16,0,0,1,.46,1.14,7.94,7.94,0,0,1,.17,1.76Zm-1-1.48a8.29,8.29,0,0,0-.08-1.22,3.23,3.23,0,0,0-.24-.82,1.21,1.21,0,0,0-.39-.46,1.09,1.09,0,0,0-.54-.14,1,1,0,0,0-.53.14,1.06,1.06,0,0,0-.39.46,2.85,2.85,0,0,0-.25.82,8.29,8.29,0,0,0-.08,1.22v1.65a8.54,8.54,0,0,0,.08,1.23,3.11,3.11,0,0,0,.25.84,1.15,1.15,0,0,0,.4.48.94.94,0,0,0,.53.15,1,1,0,0,0,.54-.15,1.21,1.21,0,0,0,.39-.48,3.15,3.15,0,0,0,.23-.84,7.31,7.31,0,0,0,.08-1.23Z"/><path class="cls-3" d="M266,101.52h-1V94.3l-1.79.8v-1L265.86,93H266Z"/><path class="cls-3" d="M272,101.52h-1V94.3l-1.8.8v-1L271.79,93H272Z"/><path class="cls-3" d="M277.87,101.52h-1V94.3l-1.79.8v-1L277.71,93h.16Z"/><path class="cls-3" d="M283.8,101.52h-1.05V94.3l-1.79.8v-1L283.63,93h.17Z"/><path class="cls-3" d="M291.19,97.88a8.1,8.1,0,0,1-.16,1.77,3.47,3.47,0,0,1-.46,1.16,1.71,1.71,0,0,1-.71.63,2.33,2.33,0,0,1-1.89,0,1.79,1.79,0,0,1-.72-.63,3.27,3.27,0,0,1-.46-1.16,8,8,0,0,1-.17-1.77v-1.3a7.94,7.94,0,0,1,.17-1.76,3.16,3.16,0,0,1,.46-1.14,1.69,1.69,0,0,1,.72-.62,2.4,2.4,0,0,1,1.87,0,1.64,1.64,0,0,1,.72.62,3.35,3.35,0,0,1,.47,1.14,8,8,0,0,1,.16,1.76Zm-1-1.48a7.31,7.31,0,0,0-.08-1.23,2.59,2.59,0,0,0-.24-.81,1.06,1.06,0,0,0-.39-.46,1.09,1.09,0,0,0-.54-.14,1,1,0,0,0-.53.14,1.21,1.21,0,0,0-.39.46,2.59,2.59,0,0,0-.24.81,7.2,7.2,0,0,0-.09,1.23v1.65a7.2,7.2,0,0,0,.09,1.23,3.13,3.13,0,0,0,.24.84,1.15,1.15,0,0,0,.4.48,1,1,0,0,0,.53.15,1,1,0,0,0,.54-.15,1.06,1.06,0,0,0,.39-.48,3.13,3.13,0,0,0,.24-.84,8.69,8.69,0,0,0,.07-1.23Z"/><path class="cls-3" d="M295.64,101.52h-1V94.3l-1.79.8v-1L295.48,93h.16Z"/><path class="cls-3" d="M301.57,101.52h-1V94.3l-1.8.8v-1L301.4,93h.17Z"/><path class="cls-3" d="M309,97.88a8.1,8.1,0,0,1-.16,1.77,3.47,3.47,0,0,1-.45,1.16,1.79,1.79,0,0,1-.72.63,2.24,2.24,0,0,1-.95.2,2.18,2.18,0,0,1-.93-.2,1.75,1.75,0,0,1-.73-.63,3.47,3.47,0,0,1-.46-1.16,8,8,0,0,1-.17-1.77v-1.3a7.94,7.94,0,0,1,.17-1.76,3.35,3.35,0,0,1,.46-1.14,1.69,1.69,0,0,1,.72-.62,2.18,2.18,0,0,1,.93-.19,2.27,2.27,0,0,1,.95.19,1.69,1.69,0,0,1,.72.62,3.35,3.35,0,0,1,.46,1.14,8,8,0,0,1,.16,1.76Zm-1-1.48a7.2,7.2,0,0,0-.09-1.23,2.59,2.59,0,0,0-.24-.81,1.06,1.06,0,0,0-.39-.46,1.09,1.09,0,0,0-.54-.14,1,1,0,0,0-.53.14,1.21,1.21,0,0,0-.39.46,3.27,3.27,0,0,0-.24.81,7.2,7.2,0,0,0-.09,1.23v1.65a7.2,7.2,0,0,0,.09,1.23,3.11,3.11,0,0,0,.25.84,1.06,1.06,0,0,0,.39.48,1,1,0,0,0,.53.15,1,1,0,0,0,.54-.15,1.06,1.06,0,0,0,.39-.48,3.13,3.13,0,0,0,.24-.84,8.54,8.54,0,0,0,.08-1.23Z"/><path class="cls-3" d="M475.93,196.87h-1v-7.23l-1.79.8v-1l2.67-1.17h.16Z"/><path class="cls-3" d="M481.86,196.87h-1.05v-7.23l-1.79.8v-1l2.67-1.17h.17Z"/><path class="cls-3" d="M487.78,196.87h-1v-7.23l-1.79.8v-1l2.67-1.17h.16Z"/><path class="cls-3" d="M493.7,196.87h-1v-7.23l-1.79.8v-1l2.67-1.17h.16Z"/><path class="cls-3" d="M501.1,193.23a8.66,8.66,0,0,1-.16,1.76,3.38,3.38,0,0,1-.46,1.16,1.75,1.75,0,0,1-.72.64,2.19,2.19,0,0,1-.94.19,2.23,2.23,0,0,1-.94-.19,1.75,1.75,0,0,1-.72-.64,3.38,3.38,0,0,1-.47-1.16,8,8,0,0,1-.16-1.76v-1.3a7.94,7.94,0,0,1,.16-1.76,3.26,3.26,0,0,1,.47-1.14,1.77,1.77,0,0,1,.71-.63,2.54,2.54,0,0,1,1.88,0,1.79,1.79,0,0,1,.72.63,3.26,3.26,0,0,1,.47,1.14,8.59,8.59,0,0,1,.16,1.76Zm-1-1.49a7.18,7.18,0,0,0-.08-1.22,2.58,2.58,0,0,0-.24-.82,1.1,1.1,0,0,0-.39-.45,1,1,0,0,0-.54-.14.93.93,0,0,0-.53.14,1,1,0,0,0-.39.45,2.85,2.85,0,0,0-.25.82,8.39,8.39,0,0,0-.08,1.22v1.66a8.49,8.49,0,0,0,.08,1.22,2.9,2.9,0,0,0,.25.84,1.25,1.25,0,0,0,.4.49.94.94,0,0,0,.53.15,1,1,0,0,0,.54-.15,1.23,1.23,0,0,0,.39-.49,3,3,0,0,0,.23-.84,7.26,7.26,0,0,0,.08-1.22Z"/><path class="cls-3" d="M505.55,196.87h-1v-7.23l-1.79.8v-1l2.67-1.17h.16Z"/><path class="cls-3" d="M511.48,196.87h-1.05v-7.23l-1.79.8v-1l2.67-1.17h.17Z"/><path class="cls-3" d="M518.87,193.23a8,8,0,0,1-.16,1.76,3.38,3.38,0,0,1-.46,1.16,1.72,1.72,0,0,1-.71.64,2.45,2.45,0,0,1-1.89,0,1.75,1.75,0,0,1-.72-.64,3.38,3.38,0,0,1-.47-1.16,8.66,8.66,0,0,1-.16-1.76v-1.3a8.59,8.59,0,0,1,.16-1.76,3.26,3.26,0,0,1,.47-1.14,1.84,1.84,0,0,1,.71-.63,2.39,2.39,0,0,1,.94-.18,2.35,2.35,0,0,1,.94.18,1.79,1.79,0,0,1,.72.63,3.26,3.26,0,0,1,.47,1.14,7.94,7.94,0,0,1,.16,1.76Zm-1-1.49a7.18,7.18,0,0,0-.08-1.22,2.58,2.58,0,0,0-.24-.82,1,1,0,0,0-.39-.45,1,1,0,0,0-.54-.14.93.93,0,0,0-.53.14,1,1,0,0,0-.39.45,2.58,2.58,0,0,0-.24.82,7.08,7.08,0,0,0-.09,1.22v1.66a7.16,7.16,0,0,0,.09,1.22,2.64,2.64,0,0,0,.24.84,1.25,1.25,0,0,0,.4.49.94.94,0,0,0,.53.15,1,1,0,0,0,.54-.15,1.15,1.15,0,0,0,.39-.49,3,3,0,0,0,.23-.84,7.26,7.26,0,0,0,.08-1.22Z"/><path class="cls-3" d="M447.93,219.87h-1v-7.23l-1.79.8v-1l2.67-1.17h.16Z"/><path class="cls-3" d="M453.86,219.87h-1.05v-7.23l-1.79.8v-1l2.67-1.17h.17Z"/><path class="cls-3" d="M459.78,219.87h-1v-7.23l-1.79.8v-1l2.67-1.17h.16Z"/><path class="cls-3" d="M465.7,219.87h-1v-7.23l-1.79.8v-1l2.67-1.17h.16Z"/><path class="cls-3" d="M473.1,216.23a8.66,8.66,0,0,1-.16,1.76,3.38,3.38,0,0,1-.46,1.16,1.75,1.75,0,0,1-.72.64,2.19,2.19,0,0,1-.94.19,2.23,2.23,0,0,1-.94-.19,1.75,1.75,0,0,1-.72-.64,3.38,3.38,0,0,1-.47-1.16,8,8,0,0,1-.16-1.76v-1.3a7.94,7.94,0,0,1,.16-1.76,3.26,3.26,0,0,1,.47-1.14,1.77,1.77,0,0,1,.71-.63,2.54,2.54,0,0,1,1.88,0,1.79,1.79,0,0,1,.72.63,3.26,3.26,0,0,1,.47,1.14,8.59,8.59,0,0,1,.16,1.76Zm-1-1.49a7.18,7.18,0,0,0-.08-1.22,2.58,2.58,0,0,0-.24-.82,1.1,1.1,0,0,0-.39-.45,1,1,0,0,0-.54-.14.93.93,0,0,0-.53.14,1,1,0,0,0-.39.45,2.85,2.85,0,0,0-.25.82,8.39,8.39,0,0,0-.08,1.22v1.66a8.49,8.49,0,0,0,.08,1.22,2.9,2.9,0,0,0,.25.84,1.25,1.25,0,0,0,.4.49.94.94,0,0,0,.53.15,1,1,0,0,0,.54-.15,1.23,1.23,0,0,0,.39-.49,3,3,0,0,0,.23-.84,7.26,7.26,0,0,0,.08-1.22Z"/><path class="cls-3" d="M477.55,219.87h-1v-7.23l-1.79.8v-1l2.67-1.17h.16Z"/><path class="cls-3" d="M483.48,219.87h-1.05v-7.23l-1.79.8v-1l2.67-1.17h.17Z"/><path class="cls-3" d="M490.87,216.23a8,8,0,0,1-.16,1.76,3.38,3.38,0,0,1-.46,1.16,1.72,1.72,0,0,1-.71.64,2.45,2.45,0,0,1-1.89,0,1.75,1.75,0,0,1-.72-.64,3.38,3.38,0,0,1-.47-1.16,8.66,8.66,0,0,1-.16-1.76v-1.3a8.59,8.59,0,0,1,.16-1.76,3.26,3.26,0,0,1,.47-1.14,1.84,1.84,0,0,1,.71-.63,2.39,2.39,0,0,1,.94-.18,2.35,2.35,0,0,1,.94.18,1.79,1.79,0,0,1,.72.63,3.26,3.26,0,0,1,.47,1.14,7.94,7.94,0,0,1,.16,1.76Zm-1-1.49a7.18,7.18,0,0,0-.08-1.22,2.58,2.58,0,0,0-.24-.82,1,1,0,0,0-.39-.45,1,1,0,0,0-.54-.14.93.93,0,0,0-.53.14,1,1,0,0,0-.39.45,2.58,2.58,0,0,0-.24.82,7.08,7.08,0,0,0-.09,1.22v1.66a7.16,7.16,0,0,0,.09,1.22,2.64,2.64,0,0,0,.24.84,1.25,1.25,0,0,0,.4.49.94.94,0,0,0,.53.15,1,1,0,0,0,.54-.15,1.15,1.15,0,0,0,.39-.49,3,3,0,0,0,.23-.84,7.26,7.26,0,0,0,.08-1.22Z"/><path class="cls-3" d="M353.34,156.59h-1v-7.23l-1.79.8v-1l2.67-1.17h.16Z"/><path class="cls-3" d="M359.27,156.59h-1v-7.23l-1.79.8v-1L359.1,148h.17Z"/><path class="cls-3" d="M365.19,156.59h-1v-7.23l-1.8.8v-1L365,148h.16Z"/><path class="cls-3" d="M371.11,156.59h-1v-7.23l-1.79.8v-1L371,148h.16Z"/><path class="cls-3" d="M378.51,153a8.66,8.66,0,0,1-.16,1.76,3.38,3.38,0,0,1-.46,1.16,1.75,1.75,0,0,1-.72.64,2.42,2.42,0,0,1-1.88,0,1.75,1.75,0,0,1-.72-.64,3.38,3.38,0,0,1-.47-1.16,8,8,0,0,1-.16-1.76v-1.3a7.94,7.94,0,0,1,.16-1.76,3.47,3.47,0,0,1,.46-1.14,1.79,1.79,0,0,1,.72-.63,2.35,2.35,0,0,1,.94-.18,2.39,2.39,0,0,1,.94.18,1.79,1.79,0,0,1,.72.63,3.26,3.26,0,0,1,.46,1.14,7.88,7.88,0,0,1,.17,1.76Zm-1-1.49a8.39,8.39,0,0,0-.08-1.22,3.23,3.23,0,0,0-.24-.82,1.1,1.1,0,0,0-.39-.45,1,1,0,0,0-.54-.14.93.93,0,0,0-.53.14,1,1,0,0,0-.39.45,2.85,2.85,0,0,0-.25.82,8.39,8.39,0,0,0-.08,1.22v1.66a8.49,8.49,0,0,0,.08,1.22,3.08,3.08,0,0,0,.25.85,1.29,1.29,0,0,0,.4.48.94.94,0,0,0,.53.15,1,1,0,0,0,.54-.15,1.37,1.37,0,0,0,.39-.48,3.13,3.13,0,0,0,.23-.85,8.49,8.49,0,0,0,.08-1.22Z"/><path class="cls-3" d="M383,156.59h-1v-7.23l-1.8.8v-1L382.8,148H383Z"/><path class="cls-3" d="M388.88,156.59h-1v-7.23l-1.79.8v-1l2.67-1.17h.16Z"/><path class="cls-3" d="M396.28,153a8.66,8.66,0,0,1-.16,1.76,3.38,3.38,0,0,1-.46,1.16,1.75,1.75,0,0,1-.72.64,2.19,2.19,0,0,1-.94.19,2.23,2.23,0,0,1-.94-.19,1.75,1.75,0,0,1-.72-.64,3.38,3.38,0,0,1-.47-1.16,8,8,0,0,1-.16-1.76v-1.3a7.94,7.94,0,0,1,.16-1.76,3.26,3.26,0,0,1,.47-1.14,1.77,1.77,0,0,1,.71-.63,2.54,2.54,0,0,1,1.88,0,1.79,1.79,0,0,1,.72.63,3.26,3.26,0,0,1,.47,1.14,8.59,8.59,0,0,1,.16,1.76Zm-1-1.49a8.39,8.39,0,0,0-.08-1.22,2.58,2.58,0,0,0-.24-.82,1.1,1.1,0,0,0-.39-.45,1,1,0,0,0-.54-.14.93.93,0,0,0-.53.14,1,1,0,0,0-.39.45,2.85,2.85,0,0,0-.25.82,8.39,8.39,0,0,0-.08,1.22v1.66a8.49,8.49,0,0,0,.08,1.22,3.08,3.08,0,0,0,.25.85,1.29,1.29,0,0,0,.4.48.94.94,0,0,0,.53.15,1,1,0,0,0,.54-.15,1.27,1.27,0,0,0,.39-.48,3.13,3.13,0,0,0,.23-.85,8.49,8.49,0,0,0,.08-1.22Z"/><path class="cls-3" d="M323.43,328.92h-1v-7.23l-1.79.8v-1l2.67-1.17h.16Z"/><path class="cls-3" d="M329.36,328.92h-1.05v-7.23l-1.79.8v-1l2.67-1.17h.17Z"/><path class="cls-3" d="M335.28,328.92h-1v-7.23l-1.79.8v-1l2.67-1.17h.16Z"/><path class="cls-3" d="M341.2,328.92h-1v-7.23l-1.79.8v-1l2.67-1.17h.16Z"/><path class="cls-3" d="M348.6,325.28a8.59,8.59,0,0,1-.16,1.76,3.38,3.38,0,0,1-.46,1.16,1.75,1.75,0,0,1-.72.64,2.19,2.19,0,0,1-.94.19,2.23,2.23,0,0,1-.94-.19,1.75,1.75,0,0,1-.72-.64,3.38,3.38,0,0,1-.47-1.16,7.94,7.94,0,0,1-.16-1.76V324a7.94,7.94,0,0,1,.16-1.76,3.35,3.35,0,0,1,.47-1.14,1.67,1.67,0,0,1,.71-.62,2.42,2.42,0,0,1,1.88,0,1.69,1.69,0,0,1,.72.62,3.35,3.35,0,0,1,.47,1.14,8.59,8.59,0,0,1,.16,1.76Zm-1-1.48a7.31,7.31,0,0,0-.08-1.23,2.58,2.58,0,0,0-.24-.82,1.1,1.1,0,0,0-.39-.45,1.09,1.09,0,0,0-.54-.14,1,1,0,0,0-.53.14,1,1,0,0,0-.39.45,2.85,2.85,0,0,0-.25.82,8.54,8.54,0,0,0-.08,1.23v1.65a8.49,8.49,0,0,0,.08,1.22,3.08,3.08,0,0,0,.25.85,1.21,1.21,0,0,0,.4.48.94.94,0,0,0,.53.15,1,1,0,0,0,.54-.15,1.19,1.19,0,0,0,.39-.48,3.13,3.13,0,0,0,.23-.85,7.26,7.26,0,0,0,.08-1.22Z"/><path class="cls-3" d="M353.05,328.92h-1v-7.23l-1.79.8v-1l2.67-1.17h.16Z"/><path class="cls-3" d="M359,328.92h-1.05v-7.23l-1.79.8v-1l2.67-1.17H359Z"/><path class="cls-3" d="M366.37,325.28a7.94,7.94,0,0,1-.16,1.76,3.38,3.38,0,0,1-.46,1.16,1.72,1.72,0,0,1-.71.64,2.45,2.45,0,0,1-1.89,0,1.75,1.75,0,0,1-.72-.64A3.38,3.38,0,0,1,362,327a8.59,8.59,0,0,1-.16-1.76V324a8.59,8.59,0,0,1,.16-1.76,3.35,3.35,0,0,1,.47-1.14,1.73,1.73,0,0,1,.71-.62,2.23,2.23,0,0,1,.94-.19,2.19,2.19,0,0,1,.94.19,1.69,1.69,0,0,1,.72.62,3.35,3.35,0,0,1,.47,1.14,7.94,7.94,0,0,1,.16,1.76Zm-1-1.48a7.31,7.31,0,0,0-.08-1.23,2.58,2.58,0,0,0-.24-.82,1,1,0,0,0-.39-.45,1.09,1.09,0,0,0-.54-.14,1,1,0,0,0-.53.14,1,1,0,0,0-.39.45,2.58,2.58,0,0,0-.24.82,7.2,7.2,0,0,0-.09,1.23v1.65a7.16,7.16,0,0,0,.09,1.22,2.79,2.79,0,0,0,.24.85,1.21,1.21,0,0,0,.4.48.94.94,0,0,0,.53.15,1,1,0,0,0,.54-.15,1.12,1.12,0,0,0,.39-.48,3.13,3.13,0,0,0,.23-.85,7.26,7.26,0,0,0,.08-1.22Z"/><path class="cls-3" d="M297.92,399.74h-1.05v-7.22l-1.79.8v-1l2.67-1.17h.17Z"/><path class="cls-3" d="M303.84,399.74h-1v-7.22l-1.8.8v-1l2.68-1.17h.16Z"/><path class="cls-3" d="M309.76,399.74h-1v-7.22l-1.79.8v-1l2.67-1.17h.16Z"/><path class="cls-3" d="M315.69,399.74h-1.05v-7.22l-1.79.8v-1l2.67-1.17h.17Z"/><path class="cls-3" d="M323.08,396.11a8,8,0,0,1-.16,1.76,3.38,3.38,0,0,1-.46,1.16,1.67,1.67,0,0,1-.71.64,2.27,2.27,0,0,1-.95.19,2.18,2.18,0,0,1-.93-.19,1.71,1.71,0,0,1-.73-.64,3.38,3.38,0,0,1-.46-1.16,7.94,7.94,0,0,1-.17-1.76v-1.3a7.88,7.88,0,0,1,.17-1.76,3.32,3.32,0,0,1,.46-1.15,1.84,1.84,0,0,1,.72-.62,2.52,2.52,0,0,1,1.87,0,1.72,1.72,0,0,1,.72.62,3.32,3.32,0,0,1,.47,1.15,7.94,7.94,0,0,1,.16,1.76Zm-1-1.49a7.11,7.11,0,0,0-.08-1.22,2.58,2.58,0,0,0-.24-.82,1,1,0,0,0-.39-.45,1,1,0,0,0-.54-.14,1,1,0,0,0-.53.14,1.1,1.1,0,0,0-.39.45,3.23,3.23,0,0,0-.24.82,7,7,0,0,0-.09,1.22v1.66a7.16,7.16,0,0,0,.09,1.22,3.41,3.41,0,0,0,.24.84,1.15,1.15,0,0,0,.4.48.9.9,0,0,0,.53.16.89.89,0,0,0,.54-.16,1.06,1.06,0,0,0,.39-.48,3,3,0,0,0,.24-.84,8.64,8.64,0,0,0,.07-1.22Z"/><path class="cls-3" d="M327.54,399.74h-1.05v-7.22l-1.79.8v-1l2.67-1.17h.17Z"/><path class="cls-3" d="M333.46,399.74h-1v-7.22l-1.8.8v-1l2.67-1.17h.17Z"/><path class="cls-3" d="M340.85,396.11a8,8,0,0,1-.16,1.76,3.38,3.38,0,0,1-.45,1.16,1.75,1.75,0,0,1-.72.64,2.24,2.24,0,0,1-.95.19,2.18,2.18,0,0,1-.93-.19,1.83,1.83,0,0,1-.73-.64,3.38,3.38,0,0,1-.46-1.16,7.94,7.94,0,0,1-.17-1.76v-1.3a7.88,7.88,0,0,1,.17-1.76,3.32,3.32,0,0,1,.46-1.15,1.84,1.84,0,0,1,.72-.62,2.34,2.34,0,0,1,.93-.18,2.44,2.44,0,0,1,.95.18,1.84,1.84,0,0,1,.72.62,3.32,3.32,0,0,1,.46,1.15,7.94,7.94,0,0,1,.16,1.76Zm-1-1.49a7,7,0,0,0-.09-1.22,2.58,2.58,0,0,0-.24-.82,1,1,0,0,0-.39-.45,1,1,0,0,0-.54-.14,1,1,0,0,0-.53.14,1.1,1.1,0,0,0-.39.45,3.23,3.23,0,0,0-.24.82,7,7,0,0,0-.09,1.22v1.66a7.16,7.16,0,0,0,.09,1.22,3,3,0,0,0,.25.84,1.06,1.06,0,0,0,.39.48.9.9,0,0,0,.53.16.89.89,0,0,0,.54-.16,1.06,1.06,0,0,0,.39-.48,2.72,2.72,0,0,0,.24-.84,8.49,8.49,0,0,0,.08-1.22Z"/><path class="cls-3" d="M101.63,280.94h-1v-7.22l-1.79.8v-1l2.67-1.17h.16Z"/><path class="cls-3" d="M107.56,280.94h-1v-7.22l-1.79.8v-1l2.67-1.17h.17Z"/><path class="cls-3" d="M113.48,280.94h-1v-7.22l-1.8.8v-1l2.68-1.17h.16Z"/><path class="cls-3" d="M119.4,280.94h-1v-7.22l-1.79.8v-1l2.67-1.17h.16Z"/><path class="cls-3" d="M126.8,277.3a8.1,8.1,0,0,1-.16,1.77,3.47,3.47,0,0,1-.46,1.16,1.82,1.82,0,0,1-.72.64,2.35,2.35,0,0,1-.94.19,2.39,2.39,0,0,1-.94-.19,1.82,1.82,0,0,1-.72-.64,3.46,3.46,0,0,1-.47-1.16,8.1,8.1,0,0,1-.16-1.77V276a8,8,0,0,1,.16-1.76,3.35,3.35,0,0,1,.47-1.14,1.74,1.74,0,0,1,.71-.62,2.42,2.42,0,0,1,1.88,0,1.77,1.77,0,0,1,.72.62,3.35,3.35,0,0,1,.47,1.14,8.66,8.66,0,0,1,.16,1.76Zm-1-1.48a8.29,8.29,0,0,0-.08-1.22,2.58,2.58,0,0,0-.24-.82,1.21,1.21,0,0,0-.39-.46,1.09,1.09,0,0,0-.54-.14,1,1,0,0,0-.53.14,1.06,1.06,0,0,0-.39.46,2.58,2.58,0,0,0-.24.82,7,7,0,0,0-.09,1.22v1.65a7.2,7.2,0,0,0,.09,1.23,2.8,2.8,0,0,0,.24.84,1.15,1.15,0,0,0,.4.48.94.94,0,0,0,.53.15,1,1,0,0,0,.54-.15,1.06,1.06,0,0,0,.39-.48,3.15,3.15,0,0,0,.23-.84,7.31,7.31,0,0,0,.08-1.23Z"/><path class="cls-3" d="M131.25,280.94h-1v-7.22l-1.79.8v-1l2.67-1.17h.16Z"/><path class="cls-3" d="M137.18,280.94h-1.05v-7.22l-1.79.8v-1l2.67-1.17h.17Z"/><path class="cls-3" d="M144.57,277.3a8.1,8.1,0,0,1-.16,1.77,3.47,3.47,0,0,1-.46,1.16,1.7,1.7,0,0,1-.72.64,2.35,2.35,0,0,1-.94.19,2.43,2.43,0,0,1-.94-.19,1.82,1.82,0,0,1-.72-.64,3.46,3.46,0,0,1-.47-1.16,8.77,8.77,0,0,1-.16-1.77V276a8.66,8.66,0,0,1,.16-1.76,3.35,3.35,0,0,1,.47-1.14,1.77,1.77,0,0,1,.72-.62,2.3,2.3,0,0,1,.93-.19,2.35,2.35,0,0,1,.94.19,1.77,1.77,0,0,1,.72.62,3.35,3.35,0,0,1,.47,1.14,8,8,0,0,1,.16,1.76Zm-1-1.48a7.11,7.11,0,0,0-.08-1.22,2.58,2.58,0,0,0-.24-.82,1.06,1.06,0,0,0-.39-.46,1.09,1.09,0,0,0-.54-.14,1,1,0,0,0-.53.14,1.21,1.21,0,0,0-.39.46,2.58,2.58,0,0,0-.24.82,7,7,0,0,0-.09,1.22v1.65a7.2,7.2,0,0,0,.09,1.23,3.13,3.13,0,0,0,.24.84,1.15,1.15,0,0,0,.4.48.94.94,0,0,0,.53.15,1,1,0,0,0,.54-.15,1.06,1.06,0,0,0,.39-.48,3.15,3.15,0,0,0,.23-.84,7.31,7.31,0,0,0,.08-1.23Z"/></g></g></svg>