<svg xmlns="http://www.w3.org/2000/svg" viewBox="0 0 1103.73 557.84"><g id="Слой_2" data-name="Слой 2"><g id="Layer_1" data-name="Layer 1"><path d="M963,280.2c-11.34-4.8-24,13-40.09,35.55-5.43,7.64-11.28,15.85-17.48,23.67l-5-4.65c20.32-11.18,42.25-51.67,47.07-60.93,1.88-3.59-1.1-10.4-5.22-19.83-4.26-9.73-9.55-21.84-10.21-33.08-.15-2.68-3.87-65.74-22.64-77.33a12.53,12.53,0,0,0-3.21-1.44,11.29,11.29,0,0,1,3.83-1.5A51.07,51.07,0,0,0,924,135.09c3.75-2.33,5.09-6.78,3.52-11.62-2-6.11-8.64-12.35-18.51-11.61-.93.06-2.18.63-3.19,2.83a14.93,14.93,0,0,0-5.09-.74c-8,.21-40.61,9.92-54.29,14.09a5.25,5.25,0,0,0-3.4,3.42,8.11,8.11,0,0,0-5.1-2.11,40.61,40.61,0,0,0-8.3,1.22c6.47-1.89,13.39-3.54,20.56-4.89,3.45-.63,5.27-1.65,5.73-3.2.35-1.21-.22-2.52-1.71-3.91-6.15-5.76-30.77-14.25-32.86-13.47C808.69,109,774.68,127,760.75,135.15c-5,2.95-7.13,5.8-6.2,8.47.89,2.52,4.39,4.11,8,4.94-6.16,2-11,3.73-13.76,4.89l-7.24,3.39-16.92,7.92a12,12,0,0,0-3.69,2.47l-.44.06-2.82.37c-3.09.4-5.13.66-7,1-1.33-.81-1-8.64.89-23.27.14-1.05.26-2,.36-2.77a.8.8,0,0,1,0-.19.77.77,0,0,1,.29,0v0c.12,0,12.25.44,13.66-10,1.18-8.47-3.6-17.4-10.89-20.34-1.86-.72-3.22-.68-4.14.12-1.76,1.51-1,5.08-.13,8.87l0,.22c.83,3.83.09,6.47-1,7.31-.41.32-.67.2-.77.15-.58-.26-1.58-1.66-1.66-5.19-.07-2.53-.14-6.1-.21-10.4,3.05-1.44,5.49-3.41,5.41-7.3-.38-18.49-.94-47.52-1.26-67.46A44.16,44.16,0,0,0,717,40.68c4.13,1.44,9.26,3.24,14.18,7.07,4,3.09,7.93,4.36,11.64,3.77s7.08-3.07,10-7.35c1.54-2.26,3.78-6.47,6.37-11.34,3.79-7.13,8.51-16,12.63-21.63,4.27-5.79,5.45-8.93,4-10.5-2.55-2.7-12.62,2.93-20.6,8.12-10.85,6.93-12.56,5-15.67,1.43a31.78,31.78,0,0,0-2.31-2.46c-3.51-3.3-8.57-3.83-14.64-1.52-6.36,2.43-13.09,7.92-13.28,10.1-.09,1,0,7.81.11,17.32a4.92,4.92,0,0,1-.23-1.33l-.52-12.68c-.17-4-1.7-4.45-2.31-4.43-1.37,0-2.14,1.75-2.1,4.69.1,11.83.61,64.94,1.06,92-.69.29-1.42.57-2.16.85-3.41,1.29-6.93,2.63-9,5.58-1.76,2.45-2.08,6.31-.9,10.87,1.41,5.42,5.14,12,10.3,14.41.72.33,1.31.57,1.8.76.83.33,1.26.52,1.33.7a11.3,11.3,0,0,1-.11,3.08c-.08.73-.16,1.6-.25,2.64-.3,3.56-.95,8.44-1.91,14.49-.43,2.65-1.07,3-1.14,3-.49.18-1.79-.93-2.57-1.59-.46-.39-.94-.8-1.39-1.11-1.07-.8-1.84-1.39-27.63,28.06-14.16,16.17-31.19,36.11-43.63,50.67-3.87,4.54-7.3,8.54-10,11.74a6.81,6.81,0,0,1-5.65,2.73c-9.05-.36-21.87-18-32.17-32.15-3.53-4.86-6.87-9.45-9.91-13.21-8.66-10.63-25.29-7.25-44.55-3.34-5.19,1.06-10.55,2.15-15.91,3a60.67,60.67,0,0,0-8.8,1.61,5.55,5.55,0,0,1-1.72.31,9.43,9.43,0,0,1,.51-1.38c.46-1.07.89-2.09.53-3A16.73,16.73,0,0,0,498,207a12.53,12.53,0,0,1-2.45-4.26c-.6-2.48-.6-9.92-.6-16.49,0-3.13,0-6.08-.05-8.46,0,0,0-.07,0-.1a36.21,36.21,0,0,0,7.29-1.45c4.85-1.93,4.44-39.83,3.57-49.42-1.26-14-33.61-16.44-40.22-16.8.09-.14.19-.29.27-.43.67-1.21.47-4.45-.2-12.1-.46-5.32-1.23-14.12-.31-15.68a40.37,40.37,0,0,1,5.29,2.46c6,3.07,14.25,7.27,19.5,6.33,6.57-1.18,25-13.9,28.51-18.4a3.89,3.89,0,0,0,1.77-.88,4.09,4.09,0,0,0,1.71-3.09c0-2-1.79-3.61-2.56-4.28l-.23-.2-.19-.15c-.15-.09-.74-.51-1.54-1.12,2.44.31,6.81.64,8.42-3.85a8,8,0,0,0-1.69-8.55c-3-3.1-8.15-4.08-13.2-2.5a3.52,3.52,0,0,0-2.2,2.71,11.87,11.87,0,0,0,.51,6.79c-1.94.15-5.44,2.73-10.86,6.83-1.38,1.05-2.75,2.09-4,3-5.42,3.86-17.82-5-20.2-7,.13-1.55.51-6.78-.36-9.87-.71-2.61-4.38-3.93-7.57-5.07a30.91,30.91,0,0,1-5-3.12c.51,0,1,0,1.6,0,9.48.67,12.09-13.41,12.66-17.74a23.39,23.39,0,0,0-.92-10.25l.16-.05c3.63-1,7.07-2,8.4-3.51a2.53,2.53,0,0,0,.53-2.85c-1.07-2.39-5.89-3.85-8.88-3.85a8.59,8.59,0,0,1-3.55-1.2A13.34,13.34,0,0,0,464.49.6c-6.63.34-14.36,6-15.91,11.63s-3.09,17.66.13,21.47A73.7,73.7,0,0,0,456.9,41c-2.69,2.27-2.2,13.37-.59,35.37.61,8.27,1.18,16.08,1.13,21,0,2.4-1,4.86-1.55,5.4a4.59,4.59,0,0,1-.66-1.5c-.51-1.67-.61-8.32-.7-14.19,0-1.77,0-3.55-.08-5.24-.22-9.92-4.12-16-7.25-20.94-2.14-3.37-4-6.27-4.16-9.56a22.65,22.65,0,0,1,0-2.39c.1-1.8.18-3.21-2-4.42-.71-.38-1.7-3.68-1.13-7a9.61,9.61,0,0,1,.28-1.16l.49.09c3.93.78,5.86,1.15,6.69,1a2,2,0,0,0,1.57-1.22,2.51,2.51,0,0,0-.65-2.44,6.62,6.62,0,0,0-6.22-1.87A4.31,4.31,0,0,0,439,34.07c-11.11-2.13-20.15-3.4-21.56.16a10.18,10.18,0,0,0-.86,4.13v.14a9.07,9.07,0,0,1-.92.26l-2.95.73c-5.74,1.26-24.6,5.65-26.31,9.46-1.65,3.64-1.1,28.55,1.28,35.34.7,1.92,2.28,2.47,4.14,2.52l-2,.25-2.36.29a1.77,1.77,0,0,0-1.3.87c-.9,1.5-.19,4.94,2.43,11.86l.06.14c1,2.7,6.27,1.55,13.08-.24,1.27-.33,2.37-.62,2.91-.69,1.79-.33,2.3-2.91,2.44-4.42.3-3.19-.49-8.43-3.92-9.77l-.75-.25a5.9,5.9,0,0,0,1-4.61A116.28,116.28,0,0,1,402,63.75c.06-2,1-2.93,3-3,6-.16,17.17,7.38,17.46,10.89.65,8.15-5.41,36.62-10.21,40.53a5.28,5.28,0,0,0-2.32,4.35c.09,1.87,1.43,3.76,3.77,5.33,4.24,2.82,26.73,6.78,36.08,6.23-.05.1-.1.2-.16.3-.79,1.44-1.57,1.35-3.91.85a19.51,19.51,0,0,0-3.67-.52c-2.77-.06-6.16.87-9.42,1.79-1.46.41-2.84.8-4.12,1.07-1.06.28-2.13.51-3.17.73l-1.41.31c-.34.07-.65.12-.95.16a14.11,14.11,0,0,0,2.11-4.76c.26-1.4-.24-2-.71-2.23-.83-.44-1.91,0-3.19,1.31s-3.39,4.28-2.29,6.31a2.47,2.47,0,0,0,.64.76,37.36,37.36,0,0,1-4.45,4.74c-5.82,5-11,13.69-16.58,22.88-7.24,12-15.46,25.7-26.27,32.56a6.47,6.47,0,0,0-3.26,5.13c-.16,2.27.83,4.77,2.4,7.17a12.91,12.91,0,0,0-6.7-.47c-5.35,1.51-12.46,5.72-11.91,9.71.38,2.72,4.09,4.1,11,4.1.87,0,1,.12,1,.13s.21.48.11,2.05c-.2,3.26,3.85,10.62,4.94,12.4,1.46,2.48,9.3,4.93,13.31,4.68,1.79-.12,2.94-.73,3.4-1.82.57-1.34-.08-3.1-2-5.39-1.05-1.17-2.34-2.45-3.59-3.68s-2.43-2.4-3.22-3.32c-1.23-1.45-1.23-2.11-1.17-2.33.16-.61,1.5-1.11,2.58-1.51,1.63-.61,3.47-1.3,3.78-3s-1-3.55-4.15-6.25c-.18-.14-.35-.29-.52-.45,2,.94,3.68,1.85,4.71,2.4a6,6,0,0,0,2.85.69c12.82,0,37.05-34.5,57.22-65.45,1.16-1.78,2.14-3.28,2.89-4.4.15-.23.37-.54.63-.91.95-1.35,1.91-2.76,2.72-4.12a12.12,12.12,0,0,0,5.42,2c3.86.52,8.58-.23,13.15-1,5.43-.87,11.05-1.77,11.47.55.52,3,.86,11.44.78,19.62,0,1,0,2,0,3,.09,4.46.15,7.68-3,11-.73.78-1.56,1.6-2.41,2.45s-1.73,1.72-2.51,2.55c-2.92,2.9-3.86,6.52-2.58,9.93,1,2.63,3.22,4.63,5.3,4.76a5.71,5.71,0,0,0,3.07-.7c1-.48,1.17-.56,2,.54a54.59,54.59,0,0,1,3.16,5.43,89.76,89.76,0,0,0,5.78,9.7,12.94,12.94,0,0,0,2.83,2.67c.37.29.74.57,1,.83.67,3.55-4.69,36.59-15.93,98.22-.64,3.51-2,5.56-4.27,6.25-11.6,3.62-42.25-27.12-64.64-49.56q-2.61-2.62-5.08-5.09c-4.14-4.14-8.56-5.71-13.13-4.67-19.79,4.48-38.43,57.05-53.4,99.3-1.87,5.25-3.66,10.29-5.36,15-1.87,5.15-4.84,8.16-9.07,9.2-18.23,4.47-55.06-29.3-77.07-49.47-7.47-6.84-13.37-12.25-17-14.81a1.35,1.35,0,0,1-.55-.49l0,0-.88-1.5c-.93-1.63-7-27.17-7-29.37a2.31,2.31,0,0,0-.15-.9,43.32,43.32,0,0,0,6.5,1.17c1.82.21,4.7-1.57,11-17.24,4-9.85,7.91-21.83,10.27-29.76,2.61-8.79,2.48-15.2-.4-20.17-4.17-7.17-13.68-10.63-27.66-13.88a9.28,9.28,0,0,0-5.19.6c.68-1.09,1.37-2.23,2.06-3.43,3.8-6.47,14.14-17.1,20.87-21.46a1.64,1.64,0,0,0,.22-.14l.25.57a12.72,12.72,0,0,0,1.06,2.12c3.31,4.89,11.61,10.18,16.16,10.29,1.83,0,3.84.16,6,.28,9.52.51,19.36,1,22.72-2.61.05-.06.11-.12.16-.19h.28a31.78,31.78,0,0,0,6.86-1.09c4-1.11,6.45-2.88,7.29-5.26.77-2.19.12-4.82-1.88-7.6-4-5.56-8.73-6.26-11.53-5.16a5.55,5.55,0,0,0-3.56,6c.1.88.36,2.48.67,4.33s.61,3.75.85,5.44a4.15,4.15,0,0,1,0,.78c-.51-.69-.76-2-1-3.93-.53-3.63-1.34-9.11-8.33-8.14-10.15.58-20.25-4.71-25.22-13.05a7.22,7.22,0,0,0,.16-1.46c0-6.12-.85-7.42-1.67-7.87a1.44,1.44,0,0,0-1.51,0,3.68,3.68,0,0,0-1.31,3.06,16,16,0,0,0,1.67,5.51c.17.36.36.71.55,1.06-1,4.06-4.87,10.57-8.15,13.88-.94-1-2.32-1.47-4.53-.58a17.39,17.39,0,0,0-2.87,2.11c-1.56,1.27-5.7,4.63-6.7,4.22-.33-1.37,6.63-6.31,9.6-8.42,2.11-1.5,3.92-2.79,5.06-3.8,1.61-1.45,2.77-8,2-11.14-.42-1.67-1.31-2.22-2-2.38-1.41-.34-3.05.61-5.17,3-.55.61-1.12,1.28-1.7,2-1.61,1.86-4.61,5.32-5.58,5.17-1.4-.24-3.45-2.26-4.48-4.39a3.52,3.52,0,0,1-.45-2.73,21.41,21.41,0,0,1,2.45-3.06c.71-.79,1.44-1.62,2-2.37,2.07-2.76.21-5.86-1.28-8.35-.94-1.57-1.91-3.19-1.29-3.88,1.07-1.28,5.56-2.93,7.15-2.09.33.44-.17,2.74-.47,4.11-.66,3-1.41,6.46.18,8.43,2,2.58,7,2,9.76.69,2.33-1.24,1.08-4.65-.51-9-.16-.46-.34-.94-.51-1.42,5.27,11,11.57,12.05,15.93,11,2.86-.64,5.28-2.59,7.18-5.79,2.15-3.6,3.39-8.4,4-12.9a11.87,11.87,0,0,0,3.84.48c2.67-.23,5.76-1.44,6.4-4.11.31-1.3-.44-3.14-2.28-5.63-3.84-5.18-12.48-12.86-18.07-13.2-5-.32-11.9,1.75-15,6.19s-6.14,12.16-5.95,16.85c-.48-.11-1-.19-1.56-.26l-1.07-.15c-2.88-.44-5.53-1.1-8.33-1.79-7-1.74-14.21-3.52-26.16-2.36v-.05A161.72,161.72,0,0,0,180.58,134c-11.17,1.79-40.47,21.42-39.24,29.95.68,4.72,4,7.2,6.43,9,1.08.81,2.2,1.64,2.27,2.16a1.89,1.89,0,0,1,0,.3,5.42,5.42,0,0,1-3.56-2.18c-2.38-4-7.63-3.68-11.38-3.1a4.68,4.68,0,0,0-3.6,3.5c-1.28,3.89-.17,10.63,3.87,14.74,1.07,1.1,3,2.11,5.91.68,3.83-1.85,8.34-7.72,10.06-11.51a3.88,3.88,0,0,0,3.25-1.34c1.8-2.61,21.67-22.81,30.77-19.74.47.17,1.12.38,1.88.62l-.62.51c-3.62,3.16-6.39,8.63-9.59,14.95-4.35,8.61-9.28,18.36-17.6,24.08a4.21,4.21,0,0,0-1.18,5.59c1.62,2.83,20.69,18.16,28.28,21.69,4.09,1.82,4.74,3.26,4.76,4,0,.91-.93,2-2.57,2.83-2.07,1-8.72-1.25-15.8-5.48a56.06,56.06,0,0,1-5.63-3.8,27.66,27.66,0,0,0,1-5.67c.09-1,.38-4.21-1.59-4.59s-4.21,3.28-5,5.88c-.39,1.25.64,2.86,3.24,5.06a19.73,19.73,0,0,1-1.52,3.1C157.18,235.5,152,248.61,147,261.28c-6.29,15.89-12.79,32.32-21.53,44a6.79,6.79,0,0,0-1.47,5.5,10.08,10.08,0,0,0,3.66,5.47c-.56-.08-1.16-.14-1.78-.17-1.27-.05-3.65.59-9.41,6.95-3,3.36-2.49,6.21-1.56,8,2,3.8,7.61,6,10,5.78l.72-.1c1.64-.25,3.89-.58,4.7,0a11.39,11.39,0,0,1,1.71,2.54c1.79,3.09,4.51,7.77,9.27,9.08,1.21.35,9.62,1.94,11.09-1.14,1-2.15-2-4.62-4.33-6.28-2.65-1.94-3.43-4.71-4.33-7.93s-2-7.2-5.43-11c2,.25,3.92-.67,6.2-4.34,3.21-5.23,9.69-15.51,17.19-27.41,24.09-38.21,34.17-54.42,34.27-55.91a2.06,2.06,0,0,1,.15-.58,4.38,4.38,0,0,0,2.1.77c1,.05,3.37-.2,7.56-.65s9.24-1,13.4-1.22c3.41-.18,5.54.34,6.17,1.48,1.43,2.61-3.37,9.35-8,15.87a115,115,0,0,0-9.12,14.17c-1.48,2.75-2.11,7.13-2.49,10.63-.28,2.41-1,4.08-2.12,5-1.33,1-3.14,1-4.69.76-2.42-.41-4.09,0-5,1.2-1.38,1.87-.2,4.89.63,6.52,1.49,3,2.26,3,2.55,3a4.42,4.42,0,0,0,1.67-.5c1.41-.64,2.11-.81,2.84.11,1.36,1.75,10.79,17,14.82,23.49,4.33,7-14.33,51.69-23.3,73.19l-.16.4c-.92,2.19-1.67,4.09-2.3,5.7-1.35,3.42-2.52,6.37-3.26,6.51s-2.77-2-5.14-4.54c-1.78-1.87-4-4.2-6.88-7l-29.61-28.78c-3.64-3.56-6.45-6.59-8.71-9-4.62-5-6.94-7.49-9.64-7.27-3,.26-5.46,4-10.81,12.3-15.48,24-31.19,48.25-46.39,71.7C57.57,447,58.33,474.81,59,499.4c.13,4.88.26,9.5.29,14.06,0,3.64-3.05,7.69-8,10.59-5.68,3.3-11.86,4-15.73,1.73-3.13-1.82-4.7-5.4-4.66-10.65L34.34,96.31v-.39c.11.22.23.46.34.71l12.85,26.93C50,128.74,52,128.8,53,128.37c1.63-.71,1.84-3.43.52-6.77L35,75.3c-.45-1.13-.81-2.09-1.11-2.9-1-2.65-1.37-3.64-2.44-3.69s-1.5.92-2.59,3.22c-.24.51-.51,1.08-.83,1.74L8.76,114.11c-4.27,9-4.27,9-3.28,9.56s1.15.32,4.65-4.19c1.27-1.64,2.9-3.74,4.88-6.21L29,95.84,23.24,531.73,0,533.77H0l23.21,0,0,2.69c0,2.86-.06,4.3.88,5.21s2.34.86,5.15.76c1,0,2.09-.08,3.43-.1L852.18,532h.32l-1,.62-29.17,17c-11,6.5-11,6.5-10.52,7.57.19.4.35.62.81.62.68,0,2-.49,5.09-1.62,2.08-.77,4.67-1.73,7.75-2.79l51.65-17.63c.65-.24,1.21-.42,1.67-.57,1.59-.53,2.38-.79,2.52-1.69s-.53-1.4-2-2.49c-.43-.32-.94-.69-1.54-1.15l-36.63-27.85c-2-1.52-3.7-2.85-5.05-3.93-3.32-2.64-3.83-3.05-4.61-2.27s-.84.82,5.27,8.78l16,21c.07.1.14.18.19.26-.49,0-1.07-.08-1.75-.08l-825.92,5.9L31.07,93l-1.78-.64L13.45,112c-1.42,1.77-2.67,3.36-3.73,4.72l.85-1.77L29.84,74.53q.48-1,.84-1.74c.23-.5.47-1,.68-1.42.19.48.43,1.1.67,1.74.3.81.66,1.78,1.12,2.93l18.5,46.3c1,2.59.73,4,.58,4.19-.22,0-1.37-.66-2.89-3.84L36.49,95.76l-.77-1.59c-1.19-2.51-1.47-3.11-2.43-2.89s-.95.91-.94,3.22c0,.51,0,1.11,0,1.8L28.85,515.12c-.06,7.49,3,10.87,5.66,12.39,4.48,2.6,11.44,1.92,17.74-1.73,5.6-3.26,9.06-8,9-12.33,0-4.59-.16-9.21-.29-14.11-.69-25.48-1.4-51.83,10.86-70.85,15.2-23.46,30.91-47.71,46.39-71.7,4.68-7.24,7.26-11.22,9.31-11.4,1.7-.17,4.08,2.41,8,6.64,2.27,2.46,5.1,5.52,8.77,9.11l29.61,28.78c2.88,2.78,5.06,5.09,6.82,6.95,3.57,3.76,5.19,5.48,7,5.13s2.67-2.52,4.74-7.75c.63-1.6,1.37-3.48,2.28-5.66l.17-.4c14.18-34,27.65-67.79,23.15-75-6.69-10.8-13.69-22.05-14.95-23.68-1.78-2.24-4-1.24-5.23-.7l-.56.24c-.86-1.1-2.67-4.58-2-6.06.41-.84,1.92-.77,3.16-.56,1.89.25,4.3.34,6.22-1.16,1.59-1.25,2.53-3.31,2.87-6.32.37-3.33,1-7.46,2.28-9.92a115.1,115.1,0,0,1,9-13.94c5.69-8,10.18-14.28,8.15-18-1.06-1.92-3.68-2.75-8-2.52-4.21.22-9.37.78-13.51,1.23-3.43.37-6.39.69-7.22.65a2.46,2.46,0,0,1-1.33-.61c.19-.36.4-.73.59-1.07,1.44-2.6,2.58-4.66,1.61-5.86-.78-1-2.22-.53-2.69-.38a4.11,4.11,0,0,0-3.15,4.6,6.55,6.55,0,0,0,1.22,3,6,6,0,0,0-.61,1.86c-.85,2.52-20,32.87-34,55.06-7.51,11.91-14,22.19-17.2,27.43-2.76,4.45-4.05,3.84-7.51,2.2-.4-.2-.83-.4-1.27-.6-.72-.51-1.49-1-2.32-1.51-3.28-2-5.3-4.18-5.71-6.24a4.83,4.83,0,0,1,1.11-3.92c8.9-11.87,15.45-28.42,21.79-44.43,5-12.6,10.14-25.63,16.3-35.81a22.1,22.1,0,0,0,1.43-2.83c6.48,4.86,18.72,11.28,23.05,9.07,1.4-.74,3.73-2.32,3.65-4.66-.07-2.11-2-4-5.94-5.72-7.6-3.53-26-18.56-27.39-20.89a2.28,2.28,0,0,1,.65-3c8.7-6,13.75-16,18.21-24.79,3.11-6.15,5.79-11.45,9.11-14.35a12.25,12.25,0,0,1,1.8-1.29c4.1,1.11,9.34,2,10.81.11a2.07,2.07,0,0,0-.17-2.58,4.15,4.15,0,0,0-3-1.48,14.54,14.54,0,0,0-7.92,1.81c-1.06-.3-2.21-.67-3.45-1.1-11.11-3.75-31.86,18.74-33.06,20.49a1.53,1.53,0,0,1-.92.42,2.21,2.21,0,0,0,0-.62c-.18-1.36-1.45-2.31-3.05-3.51-2.27-1.7-5.09-3.81-5.65-7.71-1-6.66,26.87-26,37.58-27.68,6.14-1,13.7-1.52,15.78-1.64v.08c12-1.26,19.2.52,26.15,2.25,2.84.7,5.53,1.37,8.5,1.83l1.13.15a7.78,7.78,0,0,1,2.15.47,57.65,57.65,0,0,0,2.24,7c.94,2.57,2.23,6.1,1.5,6.49-2.13,1-6.13,1.4-7.31-.13-1-1.25-.34-4.32.2-6.78.63-2.88,1.17-5.37-.5-6.26-2.59-1.39-8.07.63-9.64,2.51s-.23,4,1.08,6.22c1.56,2.6,2.57,4.56,1.4,6.11-.51.69-1.22,1.48-1.9,2.25A22,22,0,0,0,219,160c-.61,1.13-.46,2.75.41,4.56,1.14,2.36,3.61,5.08,6,5.49,2,.32,4.11-2,7.42-5.83.57-.67,1.14-1.32,1.69-1.93,2.24-2.53,3.1-2.41,3.19-2.39s.39.41.52.93c.75,2.94-.66,8.52-1.37,9.16-1.05.93-2.91,2.25-4.89,3.66-7,5-11.25,8.22-10.31,10.74a2,2,0,0,0,1.35,1.29c1.91.53,4.85-1.69,8.49-4.65a23.78,23.78,0,0,1,2.38-1.82c1.08-.43,1.72-.43,2.24.05l-.26.17c-7.07,4.57-17.52,15.32-21.52,22.14q-1.89,3.27-3.69,5.94A52.71,52.71,0,0,0,199,216.18c-3.12,3-4.46,5.27-4,6.59a1.51,1.51,0,0,0,1.35,1C198.73,224,205,219.35,212,209c2.68-1.36,5.09-2.07,6.67-1.67,13.1,3.05,22.6,6.42,26.4,13,2.59,4.45,2.66,10.36.21,18.59-2.35,7.88-6.26,19.79-10.21,29.58-6.48,16.09-8.82,16-9,16a42.66,42.66,0,0,1-8-1.59c-1.68-2.45-4.46-5.27-6.39-5.85a2.37,2.37,0,0,0-3,1.17,2.12,2.12,0,0,0,.08,2.07c.95,1.71,4.38,3.22,8,4.32a4.75,4.75,0,0,1,.71,1.4c-.21,1.87,6.15,28.74,7.24,30.58l1,1.68.06,0a3.21,3.21,0,0,0,1,1c3.47,2.46,9.32,7.83,16.74,14.63,22.19,20.33,55,50.39,74.9,50.39a16.79,16.79,0,0,0,4-.46c4.86-1.19,8.38-4.71,10.47-10.46,1.71-4.71,3.5-9.76,5.36-15,14-39.57,33.25-93.77,52-98,3.92-.89,7.61.47,11.28,4.14l5.08,5.08c24,24.07,53.9,54,66.65,50.06,3-.93,4.86-3.55,5.63-7.8,17.83-97.69,16.42-99,15.46-99.93-.39-.34-.83-.69-1.3-1.05a11.65,11.65,0,0,1-2.43-2.26,90,90,0,0,1-5.65-9.5,52.73,52.73,0,0,0-3.34-5.69c-1.8-2.38-3.33-1.66-4.44-1.13a3.77,3.77,0,0,1-2.07.52c-1.14-.07-2.78-1.39-3.56-3.48-.59-1.55-1.09-4.62,2.13-7.82.79-.84,1.65-1.7,2.5-2.54s1.7-1.7,2.45-2.49c3.68-3.95,3.61-7.88,3.52-12.44,0-.92,0-1.89,0-2.91.07-7.22-.19-16.4-.81-20-.77-4.26-6.79-3.29-13.76-2.18-4.42.71-9,1.44-12.54,1a9.74,9.74,0,0,1-4.73-1.82c.81-1.64,1.24-3.11.93-4.17a2.08,2.08,0,0,0-1.26-1.4,2.23,2.23,0,0,0-2.43.37,3.55,3.55,0,0,0-.7,3.66,6,6,0,0,0,1,1.89q-1.06,1.83-2.87,4.4l-.66.95c-.75,1.13-1.73,2.63-2.89,4.42-6.21,9.52-17.76,27.24-29.32,41.75-17.23,21.66-24.82,24.1-28.14,22.34a83.62,83.62,0,0,0-9.26-4.37c-2.2-2.68-3.87-5.66-3.7-8.14a4.51,4.51,0,0,1,2.34-3.58c11.21-7.12,19.56-21,26.92-33.22,5.44-9.05,10.59-17.6,16.17-22.4a40.51,40.51,0,0,0,5.15-5.6,10.41,10.41,0,0,0,2.8-.25l1.41-.3c1.06-.23,2.15-.46,3.21-.74,1.3-.28,2.71-.68,4.2-1.1,3.12-.87,6.34-1.77,8.83-1.71a17.55,17.55,0,0,1,3.3.48c2.24.47,4.54,1,6.09-1.85a13.33,13.33,0,0,0,.71-1.55,5.94,5.94,0,0,0,.58-.16c1.73-.49,4.11-5.75,4.06-8.94-.05-2.75-1.66-3.55-2.65-3.79a2,2,0,0,0-1.77.35c-.94.76-.95,2.23-1,4.26a23.35,23.35,0,0,1-.75,6.52c-7.92,1-31.69-3.13-35.77-5.85-1.77-1.18-2.82-2.55-2.88-3.76a3.43,3.43,0,0,1,1.58-2.7c5.68-4.61,11.6-34.08,10.94-42.24-.39-4.81-12.77-12.87-19.5-12.73-3.07.08-4.89,1.87-5,4.92a119,119,0,0,0,1.47,16.84,3.71,3.71,0,0,1-1.41,3.88,27.76,27.76,0,0,0-5.2.21c-3.38.36-4.81.37-5.31-1-2.34-6.66-2.63-31-1.34-33.84.9-2,13.38-5.81,24.95-8.34l3-.74c1.77-.44,2.44-.75,2.44-2.34a8.2,8.2,0,0,1,.72-3.39c.88-2.22,12.32-.27,18.89,1a10.26,10.26,0,0,0-.27,1.21c-.59,3.44.15,8,2.14,9.09,1.11.61,1.09.87,1,2.56a23.12,23.12,0,0,0,0,2.59c.19,3.83,2.18,6.94,4.48,10.55,3.15,4.94,6.72,10.55,6.93,19.91,0,1.68.06,3.45.08,5.22.1,6.59.19,12.81.79,14.74.64,2.14,1.58,3.15,2.78,3,2.27-.31,3.31-5.07,3.34-7.42.05-5-.52-12.84-1.13-21.16-.89-12.1-2.37-32.36-.11-33.7l.45-.18a40.67,40.67,0,0,0,7,4.51c2.5.9,5.93,2.13,6.36,3.74.71,2.5.48,6.82.33,8.68h0c0,.12-.08.62-.12.78v.1c-.13,1.15,4.27,3.93,6.9,5.48,5.15,3,12.19,6,16.56,2.88,1.27-.91,2.65-2,4.05-3,3.39-2.56,8.49-6.42,9.83-6.42a3.38,3.38,0,0,1,1.36.3A54.3,54.3,0,0,0,518,65.25l.21.2c.57.49,1.89,1.64,1.88,2.74a2.22,2.22,0,0,1-1,1.58l-.18.15c-.84-2.09-3.49-4.93-5-5.43a1.67,1.67,0,0,0-1.94.53c-1.05,1.42.61,4,2.13,5.46a7.13,7.13,0,0,0,2.21,1.45c-4.09,3.9-20,15.51-26.52,16.69-4.59.83-12.8-3.37-18.24-6.14-4.34-2.22-5.9-3-6.93-2.61-2.19.85-2,6.07-.95,17.79.39,4.47.87,10,.45,10.93a5.9,5.9,0,0,1-.84,1.11,31,31,0,0,1-2.93-1c-2.29-.9-4-1.55-4.93-.55-.81.81-.44,2.1,0,3.13a4,4,0,0,0,3.43,2.69,7.57,7.57,0,0,0,5.05-2.06,8,8,0,0,0,.81.09c13.12.57,38.17,4.44,39.13,15,1.37,15.1.21,45.48-2.28,47.37a34.23,34.23,0,0,1-7.06,1.36,6.44,6.44,0,0,0-3.09-3c-2.66-1.34-6.3-1.49-8-.33a2.18,2.18,0,0,0-1,2.09,3,3,0,0,0,1.49,2.19c1.88,1.17,5.44,1.4,9,1.18.05,2.34.05,5.28.05,8.39,0,7,0,14.25.66,17a14.06,14.06,0,0,0,2.8,5,15.68,15.68,0,0,1,2.06,3.15,5.86,5.86,0,0,1-.51,1.47c-.52,1.21-1.11,2.59-.27,3.54s2.43.66,3.89.24a60.41,60.41,0,0,1,8.51-1.55c5.43-.84,10.82-1.94,16-3,18.62-3.78,34.71-7.05,42.6,2.64,3,3.72,6.33,8.29,9.85,13.13,11.1,15.26,23.68,32.57,33.7,33h.36a8.86,8.86,0,0,0,6.89-3.44c2.74-3.2,6.17-7.2,10-11.74,20.8-24.35,63.57-74.43,69-78.11.27.21.56.46.85.71,1.39,1.19,3,2.53,4.56,1.94,1.23-.45,2-1.9,2.42-4.55,1-6.09,1.63-11,1.94-14.63.08-1,.17-1.89.24-2.62.38-3.94.45-4.66-2.47-5.82-.46-.19-1-.42-1.69-.72-3.9-1.84-7.69-7.23-9.21-13.11-1-3.91-.8-7.26.6-9.22,1.67-2.44,4.9-3.67,8-4.85l1.48-.57c.07,4,.14,7.23.2,9.6.09,3.68,1.09,6.15,2.81,7a2.67,2.67,0,0,0,2.87-.41c1.45-1.16,2.75-4.28,1.67-9.3l-.05-.23c-.55-2.46-1.38-6.19-.53-6.92.29-.25,1.08-.16,2.1.23,6.36,2.56,10.69,10.73,9.65,18.21-1,7.74-9.24,8.24-11.18,8.25a2.59,2.59,0,0,0-2,.37,2.18,2.18,0,0,0-.83,1.55c-.09.79-.22,1.72-.35,2.76-1.86,14.15-2.51,22.77-.34,24.92a2,2,0,0,0,1.72.57c1.84-.33,3.86-.59,6.92-1l2-.26a3.69,3.69,0,0,0,0,.47c.25,2.61,4.08,4.85,11.71,6.84,6.08,1.59,8.05,1.73,8.77,1.56l0,.06c2.69-1.2,3.24-4.77,2.6-7.79-.69-3.24-2.55-5.33-4.75-5.33-1.75,0-6.41.57-12.93,1.44l.13-.06,16.91-7.92c3.62-1.68,6.46-3,7.22-3.38,3.16-1.34,9.45-3.49,17.44-6.05a16.74,16.74,0,0,0,3.25-.07l2-.38c11.47-2.11,16.78-3.27,17.87-4.55a4.76,4.76,0,0,0,.53-.7,5.78,5.78,0,0,0,3,.06l1.41-.35c5.76-1.42,12.93-3.19,15.47-4.93a13.66,13.66,0,0,0,1.16-1,4.94,4.94,0,0,0,2.7-.29c4.77-1.56,17.44-5.71,23.48-5.71a7,7,0,0,1,4.56,2.33,18.38,18.38,0,0,0,0,4.32c.53,4.89,3,12.42,5.63,12.63a2.36,2.36,0,0,0,2.26-1.12c1.48-2.35-.23-7.76-2.45-11.78a26,26,0,0,0-3.31-4.72A3.72,3.72,0,0,1,847,130c10.6-3.23,45.82-13.8,53.77-14a13.13,13.13,0,0,1,4.36.6c-1.21,4.36-1.11,11.26,1.89,14.06a4.58,4.58,0,0,0,5.32.67c4.74-1.94,4.81-5.14,4.43-6.88-.77-3.55-4.64-7.09-9.09-9,.45-.93,1-1.5,1.44-1.53,8.8-.66,14.71,4.84,16.46,10.23,1.3,4,.3,7.46-2.68,9.31a49.26,49.26,0,0,1-13.24,5.29,13.58,13.58,0,0,0-6.25,3.05,13.51,13.51,0,0,0-5.81,1.21c-17,7.33-46.92,13.21-68.75,17.5-8.72,1.71-16.24,3.19-20.75,4.35-7.26,1.9-6.93,6.14-6.65,7.39.58,2.65,3.19,4.89,5.19,4.52s8.27-2.29,13.31-4.14a77.44,77.44,0,0,0,8.82-3.65,22.29,22.29,0,0,0,5.76,1.2,77.85,77.85,0,0,0,11,.26c4.43-.12,7-.12,7.18,1.16-.5.66-4.47.66-6.61.66-4.33,0-7,.1-8.13,1.36a1.93,1.93,0,0,0-.43,1.57c0,.18,0,.88-1,2.3-2.24,3-7.43,6.65-11.3,7.15-4.28.53-5.69,1.17-5.61,2.51.16,2.52,8.92,3.15,9,3.15,2.85,0,10-1.13,13.51-3.29,2-1.23,4.45-1.84,5.14-1.64-.05.26-.33,1.13-2.05,3.06s-9.73,8.6-17.89,5.49c-4.7-1.87-16.6-9.86-33.52-22.51-7-5.19-31.3-18.95-43.78-15a9.84,9.84,0,0,0-6.68,6.67l0,.13c-.07.4-1.65,9.79,7.51,16.88,3,2.39,10,8.57,26.24,24.31a70.4,70.4,0,0,0-9.3-3.93c-6.14-2.08-11.17-1.3-13.43,2.09-2,3-1.27,7.25,1.88,10.85,1.89,2.11,18.54,4.74,26,3,2.36-.55,3.76-1.53,4.15-2.91a3.08,3.08,0,0,0,.11-.74c11.12,8.64,18.64,20.08,26.45,31.95,2.53,3.85,5.16,7.84,7.92,11.75.63.88,1.51,2.14,2.6,3.69,7,9.94,21.41,30.61,32.89,41.5,4.89,4.63,10.29,6.06,15.6,4.16,9.06-3.25,16.46-16,18.42-31.63,3.22-25.7-8-49.92-30.1-64.81-3.79-2.58-6-5.65-6.42-9.11-.51-3.79,1.05-8,4.52-12.05,7.88-9.31,15.79-15.13,24.19-17.82,12.15-3.91,19.25-8.06,21.1-12.31a5.57,5.57,0,0,0-.07-4.77c-1.46-3.1-1.63-5.77-.49-8a7.49,7.49,0,0,1,1.11-1.56,10.17,10.17,0,0,1,4.19,1.51C926.24,156.35,930,220.39,930,221c.69,11.6,6.06,23.89,10.38,33.77,3.6,8.24,6.71,15.36,5.28,18.1-3,5.71-26.43,49.85-46.83,60.44-9.25-8.59-15.33-14.17-16.27-15-6.56-6.05-8.65-6.08-9.84-5.32-1.59,1-.94,3.64-.32,5.53,4,12.07,9.79,18.49,17.12,19.07a18,18,0,0,0,8.93-1.86l5.66,5.26a188.32,188.32,0,0,1-13.67,15.38c-6.78,6.83-9.9,11.57-10.78,16.34-2.2,11.75,42.6,73.78,86.72,132.92,6,8,16.35,12.5,28.08,12.5a48.19,48.19,0,0,0,7-.52c15.15-2.26,27.66-11.28,31.88-23,3.21-8.91,3.38-23.6-14-43-27.86-31-81.28-81.69-112.53-110.86,6.27-7.9,12.17-16.18,17.65-23.88,14.93-21,27.82-39,37.68-34.87,41.42,17.31,139.07,125.27,140,126.36l1.49-1.34C1099.71,402.6,1004.79,297.68,963,280.2ZM711.22,16.6c.35-1.2,6.95-7.19,14.09-9.14,4.41-1.21,7.94-.61,10.48,1.79A30.83,30.83,0,0,1,738,11.56c3.8,4.34,6.51,6.43,18.25-1.05,11-7.16,17.29-9.27,18.07-8.44,0,0,.83,1.22-4.13,7.94-4.21,5.74-9,14.69-12.79,21.88-2.56,4.82-4.77,9-6.26,11.15-2.57,3.81-5.48,6-8.64,6.5s-6.54-.63-10.09-3.37c-5.18-4-10.49-5.89-14.75-7.38a30.44,30.44,0,0,1-6.24-2.67C711.22,25.25,711.14,17.55,711.22,16.6ZM442.4,33.91a4.86,4.86,0,0,1,4.05.87,2.09,2.09,0,0,1,.57.71,54.23,54.23,0,0,1-5.8-1A2.14,2.14,0,0,1,442.4,33.91ZM285.15,174.14a4.84,4.84,0,0,1,1.72-.31c2.11,0,4.88,1.23,7.46,4.78,1.11,1.55,2.3,3.81,1.61,5.76-.61,1.73-2.61,3.08-5.92,4a33.45,33.45,0,0,1-5.68,1,5.15,5.15,0,0,0,0-1.62c-.24-1.71-.57-3.71-.86-5.49s-.56-3.41-.65-4.24A3.56,3.56,0,0,1,285.15,174.14Zm-39.68-16.81a1.81,1.81,0,0,1,.07-.55,14.42,14.42,0,0,1,.35,2.64A10.14,10.14,0,0,1,245.47,157.33Zm1.61,8.9a30.28,30.28,0,0,0,26.15,12.48c4.76-.66,5.5,2,6.15,6.44.3,2,.62,4.29,2,5.45-3.23,2.52-12.88,2-20.71,1.58-2.14-.12-4.17-.23-6-.28-3.89-.09-11.64-5.11-14.55-9.41a10.18,10.18,0,0,1-.88-1.78c-.15-.35-.31-.74-.5-1.12A40.36,40.36,0,0,0,247.08,166.23ZM140.17,187.34c-1.9.84-2.85.19-3.4-.38-3.35-3.41-4.48-9.44-3.4-12.71a2.83,2.83,0,0,1,2-2.15,23.32,23.32,0,0,1,3.58-.32c2.92,0,4.79.81,5.78,2.48a7.31,7.31,0,0,0,4.49,3C147.59,180.43,143.71,185.77,140.17,187.34Zm711,340.48c.7,0,1.31,0,1.81.09,1.09.09,1.95.16,2.38-.63s-.1-1.62-1-2.85l-16-21L836.38,501q1.54,1.21,3.48,2.69l36.62,27.84c.61.47,1.14.85,1.58,1.17l.64.47-.59.2c-.47.16-1,.34-1.7.58l-51.64,17.63c-1.58.55-3,1.06-4.36,1.54l2.9-1.7,29.16-17.06c1-.59,1.82-1.05,2.45-1.4,1.56-.87,2.2-1.22,2-2.12-.2-.72-.67-.86-2-.86l-1.24,0-1.52,0L32.62,540.29c-1.37,0-2.52.06-3.48.1-1.88.07-3.36.13-3.68-.19s-.31-1.83-.28-3.76l0-2.72ZM197,226.44l.43-.11a21.61,21.61,0,0,1-1.68,3.47c-.06.09-.11.19-.16.28a3.88,3.88,0,0,1-.33-1.17A2.13,2.13,0,0,1,197,226.44ZM133,319.87c6.24,4.51,7.59,9.32,8.79,13.61,1,3.43,1.86,6.66,5.09,9,3.93,2.79,3.69,3.79,3.69,3.8-.45.93-5.6,1-8.75.08-4-1.1-6.35-5.18-8.08-8.16-.94-1.63-1.62-2.8-2.37-3.23a4.51,4.51,0,0,0-2.6-.63,23.93,23.93,0,0,0-3.46.36l-.68.1c-1.56.16-6.37-1.68-7.93-4.71-.94-1.81-.51-3.76,1.27-5.77,5.22-5.76,7.2-6.31,7.82-6.28A19.5,19.5,0,0,1,133,319.87Zm33.33-104.31a28.89,28.89,0,0,1-.71,4.44c-1.34-1.22-2-2.06-2-2.39a9.35,9.35,0,0,1,2.6-4.42A6.39,6.39,0,0,1,166.29,215.56Zm30.83-59.72a2.32,2.32,0,0,1,1.59.65,1.11,1.11,0,0,1,.15.26c-.49.35-2.47.52-6.22-.28A11.09,11.09,0,0,1,197.12,155.84Zm66.48-22.06-2.45-.74-.31-.09c-.41-.11-1-.32-1.82-.58-4.56-1.51-8.81-2.76-10.65-1.43a2.13,2.13,0,0,0-.9,1.82,3.09,3.09,0,0,1-1.88,2.38c-1.37.74-3.17,1.41-4,.4-1.55-1.93,0-9,3.51-13,1.31-1.5,4.19-2.16,7.25-2.16a22.17,22.17,0,0,1,4.93.55c3.33.78,5.66,2.21,6.07,3.74A31,31,0,0,1,263.6,133.78Zm-27.21,4,0-.17c-.69-3.9,2.34-11.89,5.51-16.44,2.57-3.7,8.73-5.62,13.21-5.34s12.51,6.89,16.59,12.4c1.73,2.33,2,3.59,1.94,4-.39,1.64-2.74,2.42-4.67,2.59a10.7,10.7,0,0,1-3.39-.5,33.51,33.51,0,0,0-.26-10.18c-.62-2.3-3.37-4.18-7.55-5.16-5-1.17-11.49-.78-14.14,2.24-3.68,4.23-6.09,12.41-3.56,15.58.93,1.15,2.81,2.11,6.51.1a4.91,4.91,0,0,0,2.92-4.13c0-.15,0-.18.07-.2,1.16-.84,6.75,1,8.85,1.71.82.27,1.5.5,1.91.6l.27.08c1,.3,1.9.58,2.81.84-.56,4.34-1.73,9-3.76,12.41-1.62,2.7-3.6,4.34-5.92,4.86-5.4,1.28-10.07-2.2-13.88-10.35C238.56,140,237.51,138.61,236.39,137.8Zm-39.34,83.85a16.34,16.34,0,0,1,3.31-4.05,51.43,51.43,0,0,1,7.25-6C202.6,218.11,198.61,221,197.05,221.65Zm13.49,57.59c-.07-.13,0-.16,0-.17.09-.17.16-.24.31-.24l.18,0c1,.2,2.41,1.43,3.65,2.82C212.54,280.85,211,280,210.54,279.24Zm238.38-145a.2.2,0,0,1,.13-.05.48.48,0,0,1,.2.05c.08,0,.09,0,.1.11a3.25,3.25,0,0,1-.4,1.9,2.57,2.57,0,0,1-.16-.41A1.73,1.73,0,0,1,448.92,134.21Zm-71.37,79.26c3.34,2.86,3.55,4,3.49,4.39-.11.58-1.44,1.07-2.51,1.47-1.59.59-3.4,1.27-3.82,2.89-.31,1.18.2,2.49,1.6,4.13.84,1,2.05,2.18,3.33,3.44s2.49,2.47,3.48,3.57c1.95,2.32,1.74,3.15,1.68,3.3s-.6.53-1.69.6c-3.94.26-10.65-2.31-11.47-3.71-1.64-2.68-4.79-9-4.65-11.25.1-1.73,0-2.81-.66-3.54a3.24,3.24,0,0,0-2.48-.76c-6.42,0-8.88-1.23-9-2.38-.26-1.93,4.61-5.85,10.47-7.51a5.77,5.77,0,0,1,1.61-.2,20.62,20.62,0,0,1,6.63,1.53A38.32,38.32,0,0,0,377.55,213.47Zm43.25-80.91a.45.45,0,0,1-.13-.23c-.24-1.12,1.32-3.26,2.41-4.22A15.06,15.06,0,0,1,420.8,132.56Zm32.6-13a10.44,10.44,0,0,1,.22-2.7h.09c.4.1.88.34,1,1.31.3,1.88-.78,4.68-1.69,6.31A30,30,0,0,0,453.4,119.56ZM400.6,86.49a8.74,8.74,0,0,1,1.89.48c1.79.7,2.56,3.57,2.68,5.82.15,2.79-.56,4.38-.79,4.52a31.61,31.61,0,0,0-3.11.74c-8.29,2.17-10.39,2-10.7,1.47l-.06-.15c-2.91-7.68-2.8-9.59-2.62-10.05l2.22-.28C394,88.58,398,88.1,400.6,86.49Zm49.62-54.11c-2.35-2.77-1.4-13.47.29-19.62,1.33-4.83,8.3-9.86,14.08-10.16h.4a11.92,11.92,0,0,1,5.5,1.64,10.17,10.17,0,0,0,4.44,1.4c2.74,0,6.5,1.42,7.06,2.67.05.12.14.31-.21.71-.94,1.08-4.55,2.09-7.45,2.91L474,12a13.35,13.35,0,0,0-6-6.82C465.58,4.05,460.73,3,455,9s-5.31,15.65-5.18,17.54c.22,3,.77,3.6,1,3.8.9.82,2.49.73,4.05-.25a5.46,5.46,0,0,0,2.52-6.37c-.21-.63-.17-.93-.12-1,.18-.27,1.42-.37,2.24-.43,1.88-.13,4.45-.32,6.31-2.16A28.91,28.91,0,0,0,468,17.56a7,7,0,0,1,2.46-2.35c.65-.26,1.45-.52,2.33-.78a21.56,21.56,0,0,1,.83,9.45c-.51,3.89-2.79,16.54-10.55,16a15.48,15.48,0,0,0-4,.27A75.2,75.2,0,0,1,450.22,32.38Zm5.27-8.06a3.4,3.4,0,0,1-1.33,3.81,2.72,2.72,0,0,1-2,.72c-.67-1.52-1.39-12.63,4.22-18.49,3.67-3.8,7.36-5,10.67-3.36a11.13,11.13,0,0,1,5,5.56c-.87.26-1.66.52-2.32.78-1.31.48-2.23,1.64-3.3,3a27.56,27.56,0,0,1-2.06,2.37c-1.34,1.32-3.31,1.46-5,1.59s-3,.22-3.76,1.3A3,3,0,0,0,455.49,24.32Zm58.8,34.61a20.53,20.53,0,0,0-2.18-1.23l-.27-.3c-.95-1.06-1.62-4.38-1-6.6.12-.42.39-1.16.88-1.32,4.32-1.36,8.7-.59,11.15,2a6,6,0,0,1,1.25,6.49c-1,2.71-3.19,3-6.67,2.49A9.94,9.94,0,0,1,514.29,58.93Zm-.6,7.67a12.36,12.36,0,0,1,3,3.34l-.19-.1A7,7,0,0,1,513.69,66.6Zm-54.78,45.34c-.5,0-1.22-.22-1.72-1.44a6.09,6.09,0,0,1-.28-.87,17.76,17.76,0,0,1,2.66.9c.57.23,1.17.46,1.78.67A4.4,4.4,0,0,1,458.91,111.94Zm26,63c-.47-.29-.55-.55-.57-.73s0-.1.15-.21a4,4,0,0,1,2.06-.42,8.85,8.85,0,0,1,3.85.89,5.27,5.27,0,0,1,1.76,1.38C489.15,176,486.3,175.82,484.94,175Zm221.25-155a8.75,8.75,0,0,1,.17-2,9,9,0,0,1,.24,1.84l.52,12.68a6.19,6.19,0,0,0,2.28,4.71c.4,25.73,1.23,66.37,1.28,68.81s-1.36,3.91-3.45,5C706.79,83.71,706.29,31.63,706.19,19.92Zm32.1,147.27c1.18,0,2.33,1.54,2.79,3.75s.16,4.6-1.24,5.43c-3.15-.35-17.3-3.39-17.9-6.63a1,1,0,0,1,.12-.64C728.9,168.17,736.23,167.19,738.29,167.19ZM788.7,142.9c-.72.66-5.19,1.67-9.75,2.58l9.86-3,.13.11C788.86,142.7,788.78,142.8,788.7,142.9ZM790,140l-.55.17c-.12-.17-.24-.34-.35-.53a11.28,11.28,0,0,1-1.21-7.47,6.81,6.81,0,0,1,2.19,4.36A10.58,10.58,0,0,1,790,140Zm19.46-3.37c-2.22,1.53-9.79,3.39-14.8,4.63l-1.39.34a3.86,3.86,0,0,1-1.65.05l0,0c6.1-1.84,12.36-3.69,18.43-5.46A7.16,7.16,0,0,1,809.41,136.66Zm2.86-3.22-.85.25a13.3,13.3,0,0,1,1.67-5.61,2.36,2.36,0,0,1,.34,1.16A7.82,7.82,0,0,1,812.27,133.44Zm1.52,1.73-.3.09a.41.41,0,0,0,.07-.11l2.4-.69Zm1-2.46a8.87,8.87,0,0,0,.62-3.62,3.67,3.67,0,0,0-1.89-3.2,1.4,1.4,0,0,0-1.72.57,13.74,13.74,0,0,0-2.37,7.8c-5.69,1.66-11.59,3.4-17.39,5.14a12.64,12.64,0,0,0,0-3.13,8.25,8.25,0,0,0-3.5-6,1.54,1.54,0,0,0-1.9.19c-1.47,1.4-1.22,6.64.48,9.84.1.19.2.37.31.54-7.4,2.24-14.5,4.43-20.65,6.41-4.11-.34-9.47-1.86-10.31-4.25-.56-1.59,1.33-3.75,5.32-6.08,13.82-8.07,47.46-25.87,60.1-29.86h0c3.69,0,31.54,10.09,32.08,14.68.07.59-1,1.43-4.19,2-7.25,1.37-14.25,3-20.78,5C824.68,129.88,819.87,131.25,814.81,132.71Zm31.36,6c2.41,4.39,3.25,8.58,2.51,9.76a.38.38,0,0,1-.37.19c-1.17-.66-3.92-7.27-4-12.8A26.42,26.42,0,0,1,846.17,138.69Zm68.64-13.87c.44,2-.65,3.55-3.25,4.61a2.69,2.69,0,0,1-3.18-.28c-2.11-2-2.46-7.86-1.38-11.91C910.94,119,914.22,122.1,914.81,124.82Zm-86.1,41.86c-.71-.4-1-.8-1-1.09a1.62,1.62,0,0,1,0-.21,4.19,4.19,0,0,1,1.36,1.07C829,166.52,828.85,166.6,828.71,166.68Zm-44.57,46.69c-3.38,3.53-24.57.47-26.48-1.32-2.53-2.89-3.21-6.19-1.72-8.41,1-1.56,3-2.36,5.48-2.36a18,18,0,0,1,5.65,1.05,66.59,66.59,0,0,1,16,8C784.07,211.39,784.86,212.63,784.14,213.37Zm117.63-56.09c-1.11,2.54-5.45,6.55-19.87,11.2-8.76,2.8-17,8.83-25.11,18.43-3.84,4.53-5.56,9.24-5,13.61.55,4,3,7.57,7.28,10.5,31.75,21.42,30.41,53.56,29.24,62.9-1.87,14.94-8.75,27-17.11,30-4.56,1.64-9.25.35-13.56-3.72C846.35,289.44,832,268.88,825.05,259c-1.1-1.57-2-2.84-2.61-3.71-2.74-3.88-5.35-7.85-7.88-11.69-8.67-13.18-17-25.82-30.2-34.86-.13-.14-.26-.28-.41-.42-16.34-15.91-27.08-25.94-31.94-29.83-7.92-6.12-6.92-14.06-6.79-14.89a7.82,7.82,0,0,1,5.36-5.31c11.09-3.55,34.21,8.88,42,14.66,12.06,9,27.75,20.29,34,22.77,9.1,3.47,17.8-3.37,20.12-6,1.65-1.85,3.38-4.17,2.14-5.66-1.48-1.77-5.87.05-7.77,1.21-3.15,1.94-9.89,3-12.47,3a29.9,29.9,0,0,1-6.13-1.17,26,26,0,0,1,3-.51c4.44-.57,10.12-4.56,12.65-7.93,1.09-1.46,1.57-2.74,1.38-3.76.5-.67,4.47-.67,6.61-.67,4.33,0,7-.09,8.12-1.35a1.9,1.9,0,0,0,.44-1.57c-.46-3.13-4.12-3-9.19-2.89a77.15,77.15,0,0,1-10.7-.26,25.27,25.27,0,0,1-3.85-.64,1.15,1.15,0,0,0,.33-.89c0-1.1-1.36-2.34-2.33-2.87a2.19,2.19,0,0,0-2.34-.14,2.13,2.13,0,0,0-.82,2.14,2.89,2.89,0,0,0,1,2c-5.46,2.49-17.54,6.68-20.37,7-.84.15-2.55-1.18-2.94-3-.49-2.23,1.36-4,5.2-5,4.45-1.15,11.95-2.62,20.63-4.33,21.92-4.31,51.94-10.21,69.16-17.62a12.65,12.65,0,0,1,3.23-.95c-.12.19-.23.39-.34.59-1.43,2.76-1.28,6,.46,9.72A3.62,3.62,0,0,1,901.77,157.28Zm-12,178.32c-6.46-.52-11.64-6.47-15.39-17.71-.85-2.58-.48-3.21-.5-3.22s1.44-.39,7.41,5.12c.93.84,6.77,6.2,15.68,14.48A15.7,15.7,0,0,1,889.72,335.6ZM1017.9,453c16.73,18.65,16.64,32.57,13.62,41-4,11-15.87,19.53-30.3,21.68-13.79,2-26.5-2.24-33.19-11.2-26.55-35.58-88.7-118.88-86.37-131.36.81-4.34,3.77-8.77,10.23-15.29a185.54,185.54,0,0,0,13.72-15.42C936.85,371.52,990.12,422.05,1017.9,453Z"/></g></g></svg>