<svg xmlns="http://www.w3.org/2000/svg" viewBox="0 0 984.42 1720.66"><defs><style>.cls-1{fill:#333;}</style></defs><g id="Слой_2" data-name="Слой 2"><g id="Слой_1-2" data-name="Слой 1"><path class="cls-1" d="M983.62,1037.19c-.25-10.64-.53-21.43-.81-31.86C981.92,971.23,981,936,981,901.56A101,101,0,0,0,880.14,800.7c-1.74,0-3.51,0-5.25.14a99.79,99.79,0,0,0-67.2,30.85v-1.24A100.79,100.79,0,0,0,634.4,760.4v-1a100.76,100.76,0,0,0-172.35-70.89V367.11c0-55.43-45.27-100.53-100.9-100.55h0A100.58,100.58,0,0,0,260.34,367.11v738.83l-31.86-90.65a100.88,100.88,0,0,0-196,25.34,100.07,100.07,0,0,0,5.07,39.77l.15.42,15.45,44L99.5,1256.66c5.06,14.38,10.14,29.28,15,43.7,16.5,48.39,33.57,98.44,55.35,146.51,25.32,55.9,53.73,101.35,86.85,139,75.48,85.69,184.82,134.84,300,134.84a395.15,395.15,0,0,0,122.68-19.4A387.82,387.82,0,0,0,855.72,1582.5a429.88,429.88,0,0,0,47.55-69.37,523.74,523.74,0,0,0,34.17-76A671.59,671.59,0,0,0,960.5,1357c11-49.27,18.08-102.94,21.5-164.07C985.35,1133,984.53,1075.33,983.62,1037.19ZM767.21,1608c-62.56,47.2-136.65,70-210.48,70-99.46,0-198.44-41.42-268-120.4-78-88.56-110.73-206.14-149-315.12l-61.8-175.84a58.42,58.42,0,0,1,36.42-73.88,57.72,57.72,0,0,1,18.6-3.09,58.49,58.49,0,0,1,55.28,39.5l55.61,158.23A30.42,30.42,0,0,0,303,1177.37V367.11a58.12,58.12,0,0,1,58.18-57.94c32,0,58.3,25.91,58.3,57.94v580.8a27.94,27.94,0,0,0,55.87,0V759.57a58.24,58.24,0,0,1,116.48-.22V982a27.93,27.93,0,0,0,27.94,27.93h.95A27.93,27.93,0,0,0,648.6,982V830.5a58.24,58.24,0,0,1,116.48,0v180A27.93,27.93,0,0,0,793,1038.34H794a27.93,27.93,0,0,0,27.94-27.93v-108c0-31.13,24.1-57.42,55.19-59,1-.06,2-.08,3-.08a58.41,58.41,0,0,1,58.24,58.24c0,45.56,1.55,91.1,2.64,136.64C945.6,1230.49,935.44,1481.12,767.21,1608Z"/><path class="cls-1" d="M563.86,361.27a21.12,21.12,0,0,0,21.31,21.08H700.7a21.08,21.08,0,1,0,0-42.16H585.17A21.11,21.11,0,0,0,563.86,361.27Z"/><path class="cls-1" d="M534.58,217.56l81.69-81.69a21.31,21.31,0,0,0-30.13-30.13l-81.69,81.69a21.31,21.31,0,1,0,30.13,30.13Z"/><path class="cls-1" d="M360.45,158.15a21.37,21.37,0,0,0,21.38-21.31V21.31a21.38,21.38,0,0,0-42.76,0V136.84A21.37,21.37,0,0,0,360.45,158.15Z"/><path class="cls-1" d="M187.57,217.42a21.31,21.31,0,0,0,30.14-30.14L136,105.59a21.31,21.31,0,0,0-30.13,30.13Z"/><path class="cls-1" d="M158.15,361.27a21.11,21.11,0,0,0-21.31-21.08H21.31a21.08,21.08,0,1,0,0,42.16H136.84A21.12,21.12,0,0,0,158.15,361.27Z"/></g></g></svg>